<svg version="1.1" id="Layer_1" xmlns="http://www.w3.org/2000/svg" x="0" y="0" viewBox="0 0 585 168" xml:space="preserve" enable-background="new 0 0 585 168"><style>.st0{fill:#adbfd6}.st1{fill:#7389a7}.st2{fill-rule:evenodd;clip-rule:evenodd;fill:#dce7f5}.st3{fill:#fff}.st4{fill:#b8c8de}.st6{fill-rule:evenodd;clip-rule:evenodd;fill:#fff}.st8{fill:#4e6789}</style><path class="st0" d="M11.1.7c0 .7-1.4 2.8 0 2.8s1.6.8 2.1 0c.4-.7.4-1.8 0-3.5-1.4 0-2.1.2-2.1.7zM2.9 1.4c0 .7 1.4 2.8 0 2.8s-1.7.8-2.1 0C.4 3.5.4 2.4.8.7c1.4 0 2.1.2 2.1.7z" transform="translate(199.943 162.769)"/><path class="st1" d="M17.4 0c2.1 0 6.3 1.4 4.9 2.8h-7.7c-.5 0-.7-.5-.7-1.4C13.9 0 14.6 0 16 0h1.4zM5.2 0C3.1 0-.7 1.4.3 2.8H8c.5 0 .7-.5.7-1.4C8.7 0 8 0 6.6 0H5.2z" transform="translate(195.773 164.87)"/><path class="st1" d="M24.1 169c-1.9-27.1-3-46.9-3.5-59.5h24.3c-2.8 13.5-5.1 33.1-7 58.8h-3.5c-1.6-15.4-2.8-30.8-3.5-46.2 0-.7-.7-.7-.7 0-.5 13.5-1.4 29.2-2.8 46.9h-3.3z" transform="translate(175.805 -4.793)"/><path class="st2" d="M34.9 5.8c19.1-3 37 10 40 29.1l.3 2c3 19.1-10 37-29.1 40s-37-10-40-29.1l-.3-2c-3-19 10-37 29.1-40z" transform="translate(175.805 -4.793)"/><path class="st3" d="M68.6 58.3c-3.2 2.8-4.9 4.7-4.9 5.6 0 .9.5 1.6 1.4 2.1 5.1-3.3 7.2-4.9 6.3-4.9s-1.9-.2-2.8-.7c.5-.5.7-.9.7-1.4 0-.5-.2-.7-.7-.7zM8.8 61.8C6.7 57.6 6 55 6.7 54.1c1-1.4 2.1-.7 2.8 0 .5.5.9 2.8 1.4 7l-2.1.7z" transform="translate(175.805 -4.793)"/><g transform="translate(184.653 54.924)"><path class="st4" d="M27.1 7.7c2.8 1.4 8.3 5.6 27.1-4.2.9.5 1.6 1.4 2.1 2.8-4.6 8.9-11.6 14.5-20.9 16.8-1.5 3.3.8 15.1 1.4 21 .7 5.8-.3 5.6 0 6.3-3.4 2.4-22.2 1.4-25.7-.7-.2-1.9-.2-3.7.2-7.1 1-7.5 2.9-18.4-.2-23.7C7.9 17 4.2 11.4 0 2.1L2.8 0c7.4 7.9 13 10.5 16.7 7.7h7.6z"/><defs><filter id="Adobe_OpacityMaskFilter" filterUnits="userSpaceOnUse" x="27.8" y="23.1" width="8.3" height="2.2"><feColorMatrix values="1 0 0 0 0 0 1 0 0 0 0 0 1 0 0 0 0 0 1 0"/></filter></defs><mask maskUnits="userSpaceOnUse" x="27.8" y="23.1" width="8.3" height="2.2" id="empty-illustration-b_1_"><g filter="url(#Adobe_OpacityMaskFilter)"><path id="empty-illustration-a_1_" class="st6" d="M27.1 7.7c2.8 1.4 8.3 5.6 27.1-4.2.9.5 1.6 1.4 2.1 2.8-4.6 8.9-11.6 14.5-20.9 16.8-1.5 3.3.8 15.1 1.4 21 .7 5.8-.3 5.6 0 6.3-3.4 2.4-22.2 1.4-25.7-.7-.2-1.9-.2-3.7.2-7.1 1-7.5 2.9-18.4-.2-23.7C7.9 17 4.2 11.4 0 2.1L2.8 0c7.4 7.9 13 10.5 16.7 7.7h7.6z"/></g></mask><path d="M35.4 23.1c-1.4.5-3.9.5-7.6 0 3 1.9 5.8 2.6 8.3 2.1 0-1.3-.7-1.4-.7-2.1z" opacity=".461" mask="url(#empty-illustration-b_1_)" fill="#7389a7" enable-background="new"/></g><g><path class="st3" d="M15.1 11.9c.7-2.1.4-9.1-1.4-9.1s-4.9 0-6.3 2.8c-.9 1.9-.9 5.1 0 9.8h4.9c1.4-.9 2.4-2.1 2.8-3.5z" transform="translate(197.333 47.221)"/><path class="st1" d="M7.1 29.8c1.5 0 3.2-15.3 3.2-18.5s1.5-1.6 2.3-2.4c.4-1.1.4-2.5 0-4.1 2-1.1 2.5-2.2 1.5-3.3C12.6-.2 3.7-.2 2.2 3.1S0 23.9 2.2 26.3s4.1 3.5 4.9 3.5z" transform="translate(197.333 47.221)"/></g><g><path class="st0" d="M21.4 138.1c0 .7-.7 4 .7 4 1.2 0 1.6 0 2-.7 0-.1 1.4 0 .7-.7-.4-.4-1-1.5-1.6-3.4-1.3.1-1.8.4-1.8.8zm-19-2c0 .7-1.3 3.4 0 3.4s2.5.7 2.9 0c-.4-.7-.7-1.7-.7-2.7-.5-1.4-2.2-1.4-2.2-.7z" transform="matrix(-1 0 0 1 585.122 .455)"/><path class="st1" d="M23.7 2.3c2 0 6 1.3 4.7 2.7H21c-.4 0-.7-.4-.7-1.3 0-1.3.7-1.3 2-1.3.7-.1.7-.1 1.4-.1zM4.3.8c1.9.5 5.2 2.7 3.9 3.7-.3 0-1.8-.4-4.6-1.1L1 2.8C.6 2.7.5 2.2.7 1.3 1 0 1.7.2 3 .5c.6.2.6.2 1.3.3z" transform="matrix(-1 0 0 1 585.122 138.234)"/><g transform="matrix(-1 0 0 1 581.727 80.887)"><path class="st8" d="M.7.7c-1.2 8.7 10.8 12.1 15 57 0 1.3 3 .7 3.6.7 1.2-27.5-1.8-42.3-.6-56.3C18-.7 6.6.7.7.7z"/><defs><filter id="Adobe_OpacityMaskFilter_1_" filterUnits="userSpaceOnUse"><feColorMatrix values="1 0 0 0 0 0 1 0 0 0 0 0 1 0 0 0 0 0 1 0"/></filter></defs><mask maskUnits="userSpaceOnUse" id="empty-illustration-d_1_"><g filter="url(#Adobe_OpacityMaskFilter_1_)"><path id="empty-illustration-c_1_" class="st6" d="M.7.7c-1.2 8.7 10.4 12.1 14.5 57 0 1.3 2.9.7 3.5.7C19.8 30.9 16.9 16.1 18 2 17.4-.7 6.4.7.7.7z"/></g></mask><path mask="url(#empty-illustration-d_1_)" fill="#3b4f6a" d="M21.3.3l-8 38.3-6.6-10.1z"/></g><path class="st1" d="M1.8.8C.6 9.5 8.5 8.9 0 55c0 1.3 2.4 1.3 3 1.3 8-26 15.3-40.1 17.1-54.1C19.5-.5 7.9.8 1.8.8z" transform="matrix(-1 0 0 1 583.057 80.887)"/><path class="st3" d="M22.4 36.4c.6-1.9.4-8.2-1.3-8.2s-5.8 0-7.1 2.5 0 6.2 0 8.9c0 .7-.3 1.4-.6 2l5.1.7c-.8-1.3-.8-2.2 0-2.7 1.5-.8 3.2-1.3 3.9-3.2z" transform="matrix(-1 0 0 1 585.122 .455)"/><path class="st1" d="M36 39.5c2.6 0 3.7 1.3 3.3 4-2.7 4-5.1 6-7.3 6s-8.2-.7-18-2l.7-6c7.1 2 14.2 1.4 21.3-2z" transform="matrix(-1 0 0 1 585.122 .455)"/><path class="st2" d="M63.8 9.6l13.9 17.8c1.1 1.4 1.1 3.3.2 4.7L65.3 50.7c-1 1.4-2.8 2.1-4.4 1.6l-21.7-6.2c-1.7-.5-2.8-2-2.9-3.7l-.8-22.5c-.1-1.7 1-3.3 2.6-3.9l21.2-7.7c1.6-.6 3.5-.1 4.5 1.3z" transform="matrix(-1 0 0 1 585.122 .455)"/><path class="st3" d="M52 40.7c-3.6 2.5-6 4.1-7 4.8-1 .7-1.5 1.8-1.3 3.2 7.7-2.6 11.4-4.2 11.1-4.7s-1.4-1-3.1-1.3c.5-.4.8-.8.9-1.2 0-.5-.2-.7-.6-.8z" transform="matrix(-1 0 0 1 585.122 .455)"/><g transform="matrix(-1 0 0 1 582.352 39.302)"><path class="st4" d="M8.5 1.1C3.6 11.6 3.4 14.3 3.1 30 3 33.3 0 38.3.2 42.9c5.3.7 12 .6 20.6 1.9-5.8-19.2 2.4-22.5-.5-28.6 6 0 13.7 1.5 22.3-6.5.2-1.7-.2-2.9-.8-3.3-10.6 1.3-19.2 1-25.9-3.7C11.3 2 10.2.3 8.5 1.1z"/><defs><filter id="Adobe_OpacityMaskFilter_2_" filterUnits="userSpaceOnUse"><feColorMatrix values="1 0 0 0 0 0 1 0 0 0 0 0 1 0 0 0 0 0 1 0"/></filter></defs><mask maskUnits="userSpaceOnUse" id="empty-illustration-f_1_"><g filter="url(#Adobe_OpacityMaskFilter_2_)"><path id="empty-illustration-e_1_" class="st6" d="M8.5 1.1C3.6 11.6 3.4 14.3 3.1 30 3 33.3 0 38.3.2 42.9c5.3.7 12 .6 20.6 1.9-5.8-19.2 2.4-22.5-.5-28.6 6 0 13.7 1.5 22.3-6.5.2-1.7-.2-2.9-.8-3.3-10.6 1.3-19.2 1-25.9-3.7C11.3 2 10.2.3 8.5 1.1z"/></g></mask><path d="M11.9 14.1c3.1 1.4 6 2.1 8.7 2.1 1.3 2.7 1.9 3.6.6 3.2-2.6-.4-5.7-2.2-9.3-5.3z" opacity=".461" mask="url(#empty-illustration-f_1_)" fill="#7389a7" enable-background="new"/></g><path class="st1" d="M13.2 43.4c1.2 0 4.8-6.8 4.8-9.2s1.2-1.2 1.8-1.8c.3-.9.3-1.9 0-3.1 2.2-.3 2.6-1.1 1.2-2.4-2.1-2-4.5-3.5-10-.3S6.2 46.4 7 48.3s5.7-4.9 6.2-4.9z" transform="matrix(-1 0 0 1 585.122 .455)"/></g><g><path class="st0" d="M32 122c0 .8-.8 4.9.8 4.9 1.5 0 2 0 2.4-.8 0-.1 1.7 0 .8-.8-.5-.5-1.2-1.8-2-4.1-1.3 0-2 .2-2 .8zm-30.6 1.9c0 .8-1.6 4.1 0 4.1s3.1.9 3.6 0c-.5-.8-.8-2-.8-3.3-.8-1.6-2.8-1.6-2.8-.8z" transform="translate(0 11.818)"/><path class="st1" d="M35.3 124.4c2.7 0 8.1 1.6 6.3 3.2h-9.9c-.6 0-.9-.5-.9-1.6 0-1.6.9-1.6 2.7-1.6h1.8zm-31 2.3c2.6 0 7.3 1.6 6 3.2H.9c-.6 0-.9-.5-.9-1.6 0-1.6.9-1.6 2.6-1.6h1.7z" transform="translate(0 11.818)"/><g transform="translate(6.904 77.883)"><path class="st8" d="M.3.4C-1 9 9.8 7.8 21.6 36.7c2.3 5.6 1.5 9.6 2.5 19.2 0 1.6 4 .8 4.8.8.5-10.7 1.8-14.5 1.5-22.5C29.8 17.7 24 6 24 2 23.2-1.2 8.2.4.3.4z"/><defs><filter id="Adobe_OpacityMaskFilter_3_" filterUnits="userSpaceOnUse" x="6.6" y="2.6" width="17.4" height="45.9"><feColorMatrix values="1 0 0 0 0 0 1 0 0 0 0 0 1 0 0 0 0 0 1 0"/></filter></defs><mask maskUnits="userSpaceOnUse" x="6.6" y="2.6" width="17.4" height="45.9" id="empty-illustration-h_1_"><g filter="url(#Adobe_OpacityMaskFilter_3_)"><path id="empty-illustration-g_1_" class="st6" d="M.3.4C-1 9 9.8 7.8 21.6 36.7c2.3 5.6 1.5 9.6 2.5 19.2 0 1.6 4 .8 4.8.8.5-10.7 1.8-14.5 1.5-22.5C29.8 17.7 24 6 24 2 23.2-1.2 8.2.4.3.4z"/></g></mask><path mask="url(#empty-illustration-h_1_)" fill="#3b4f6a" d="M24 2.6l-9.5 45.8-7.9-12z"/></g><path class="st1" d="M6.8.4c-.6 13 7.3 5.5 3 30.9C8.3 39.9 2.2 47.1 0 57.9c0 1.6 3.2 1.6 4 1.6C7.5 48.8 17.6 43 20.7 35c5.9-15.2 8.3-21.9 9.9-33C29.8-1.2 14.7.4 6.8.4z" transform="translate(.348 77.883)"/><path class="st3" d="M14.2 15.3c.8-2.4.5-10.6-1.6-10.6s-7.3 0-9 3.3 0 8 0 11.4c-.1.9-.3 1.8-.8 2.6l6.5.9c-1-1.7-1-2.9 0-3.5 2-.9 4.1-1.6 4.9-4.1z" transform="rotate(13 -38.362 130.445)"/><path class="st1" d="M5.3 18.1c1.6 0 2.4-.9 2.4-4.3 0-3.5 1.6-1.7 2.4-2.6.4-1.2.4-2.7 0-4.3 1.7 0 2.8-.5 3.4-1.3.8-1.2 2.2-2.1 1.6-3.6-.4-1.1-.8.2-1.3-.3-.3-.3-.9-1.5-1.6-1.4-.8.1-.5.5-1.5 1.2-.9.6-1.7-1-2.9-.8C6.8.9 5.9 2.5 5 1.9c-1.1-.8-3.4 2.4-3.7 3.2-1.7 4.6-1.6 7.8 0 10.4s3.2 2.6 4 2.6z" transform="rotate(13 -38.362 130.445)"/><path class="st1" d="M37.7 19.5c.4 1.1-.5 2.8-2.8 5.1-4.6-3.6-8.2-5.7-10.8-6.1-2.6-.4-10-4.2-22.1-11.3 1-2.3 1.6-4.3 1.6-5.9 19.4 3.4 18 13 34.1 18.2z" transform="translate(21.431 33.304)"/><path class="st2" d="M42.9.8l31.6 5c2.2.3 3.7 2.4 3.3 4.6l-5 31.6c-.3 2.2-2.4 3.7-4.6 3.3l-31.6-5c-2.2-.3-3.7-2.4-3.3-4.6l5-31.6c.4-2.2 2.4-3.7 4.6-3.3z" transform="translate(21.431 33.304)"/><path class="st3" d="M64.7 51c-.9-1.8-2.9-2.4-5.1-2.9-1.4-.3-2.7.2-3.7 1.5 3.6 3.2 5.8 4.8 6.8 4.8 1.5 0 3-.8 2-3.4z" transform="translate(0 11.818)"/><g transform="rotate(9 -187.796 105.673)"><path class="st4" d="M11.4.7C1.9 8.5-.5 18.1.2 48.3c.8 1.7 13.7-3.6 24.1-2 3.2-3.6-1.1-16.6-1.1-28.7 9.9 1.9 7.4 4.6 24.1 8.2 1.5-.6 3.3-2.3 2.5-4.7C36.1 17 35.4 12.7 19 1.3c-5.5-1-6.5-1.7-7.6-.6z"/><defs><filter id="Adobe_OpacityMaskFilter_4_" filterUnits="userSpaceOnUse" x="17.7" y="17" width="6.9" height="4.8"><feColorMatrix values="1 0 0 0 0 0 1 0 0 0 0 0 1 0 0 0 0 0 1 0"/></filter></defs><mask maskUnits="userSpaceOnUse" x="17.7" y="17" width="6.9" height="4.8" id="empty-illustration-j_1_"><g filter="url(#Adobe_OpacityMaskFilter_4_)"><path id="empty-illustration-i_1_" class="st6" d="M11.4.7C1.9 8.5-.5 18.1.2 48.3c.8 1.7 13.7-3.6 24.1-2 3.2-3.6-1.1-16.6-1.1-28.7 9.9 1.9 7.4 4.6 24.1 8.2 1.5-.6 3.3-2.3 2.5-4.7C36.1 17 35.4 12.7 19 1.3c-5.5-1-6.5-1.7-7.6-.6z"/></g></mask><path d="M17.3 18.9c.3-.9 2.3-1.3 6-1.3 1.6 3.2 2.7 3.2 1.1 2.9-2-1-4.4-1.5-7.1-1.6z" opacity=".461" mask="url(#empty-illustration-j_1_)" fill="#7389a7" enable-background="new"/></g></g><g><path class="st0" d="M15.2.4c0 .8-1.6 3.9 0 3.9s2.6 1.2 3.1.4c.4-.7.2-2.2-.8-4.3-1.5-.5-2.3-.5-2.3 0zM3.2 3.2c0 .8 2.5 3.9 0 3.5S1 7.5.5 6.7c-.4-.7-.4-2 0-3.9 1.8-.3 2.7-.1 2.7.4z" transform="translate(385.562 157.796)"/><path class="st1" d="M19.1 1.2c2.3.6 6.4 3.3 4.4 4.4 0 0-1.8-.5-5.3-1.4l-3-.8c-.5-.1-.6-.7-.3-1.7.4-1.5 1.2-1.3 2.7-.9.7.2.7.2 1.5.4zM3.9 3.8c2.3 0 6.6 1.6 5.4 3.1H.8c-.5 0-.8-.5-.8-1.5 0-1.6.8-1.6 2.3-1.6h1.6z" transform="translate(383.643 159.187)"/><g transform="translate(382.271 93.681)"><path class="st1" d="M.6.4C-1.8 5 3.9 14.9 2.7 66.5c0 1.6 3.9.8 4.7.8C9.7 24 22.4 18.4 23.9 2 23.1-1.1 8.4.4.6.4z"/><defs><filter id="Adobe_OpacityMaskFilter_5_" filterUnits="userSpaceOnUse" x="6.3" y="2" width="17.6" height="44.6"><feColorMatrix values="1 0 0 0 0 0 1 0 0 0 0 0 1 0 0 0 0 0 1 0"/></filter></defs><mask maskUnits="userSpaceOnUse" x="6.3" y="2" width="17.6" height="44.6" id="empty-illustration-l_1_"><g filter="url(#Adobe_OpacityMaskFilter_5_)"><path id="empty-illustration-k_1_" class="st6" d="M.6.4C-1.8 5 3.9 14.9 2.7 66.5c0 1.6 3.9.8 4.7.8C9.7 24 22.4 18.4 23.9 2 23.1-1.1 8.4.4.6.4z"/></g></mask><path mask="url(#empty-illustration-l_1_)" fill="#3b4f6a" d="M23.9 2l-9.3 44.5L6.3 11z"/><path class="st1" d="M.6.4C-1 10.6 15.5 10.9 17.7 63.3c0 1.6 3.1 1.6 3.9 1.6 7.6-33.6 0-46.4 2.3-62.9C23.1-1.1 8.4.4.6.4z"/></g><path class="st2" d="M34 26.2l65.8 39.2c1.9 1.1 2.5 3.6 1.4 5.5-.5.8-1.3 1.5-2.2 1.8L33.2 93.6c-2.1.7-4.4-.5-5-2.6-.2-.4-.2-.8-.2-1.2V29.7c0-2.2 1.8-4 4-4 .7 0 1.4.2 2 .5z" transform="translate(338.024 -19.777)"/><path class="st1" d="M65.1 0c-2 .5-3 1.3-3 2.3v2.1c2.9.8 4.3.3 4.3-1.4S66 .4 65.1 0zM1.4 0c2 .5 3 1.3 3 2.3v2.1C1.5 5.3 0 4.8 0 3.1S.5.4 1.4 0z" transform="translate(364.024 53.816)"/><g><path class="st1" d="M12.4 12.9c.8-2.3.5-10.2-1.6-10.2s-5.4 0-7 3.1c-1 2.1-1 5.8 0 11.3h5.3c1.7-1.2 2.8-2.6 3.3-4.2z" transform="translate(388.305 39.223)"/><path d="M5.4 15.3c1.6 0 3.1-1.6 3.1-4.7s1.6-1.6 2.3-2.3c.4-1.1.4-2.4 0-3.9 2.1-1 2.6-2.1 1.6-3.1C10.9-.4 3.1-.4 1.6 2.8s-2.3 7.8 0 10.2 3.1 2.3 3.8 2.3z" fill="#374f6f" transform="translate(388.305 39.223)"/></g><g transform="translate(367.226 54.931)"><path class="st4" d="M39.6 1.6C45.6 3.3 52.8.1 59.8.1c.8 1.6.8 2.9 0 4.1-7.2 5.2-13.7 8.3-19.7 9.2 1.6 7.1-1.3 21.1 0 32.8-16.3 3.9-21.3 2.3-25.2 0-3.3-4.6-1.6-28.7 0-34.4-6.1-.9-11-3.6-14.8-8.1.2-2 .5-3 1-3 10.5 2.5 10.1 1.7 23.1.5 2.4.4 4.4.4 6 0 2.5-.6 6.8-.4 9.4.4z"/><defs><filter id="Adobe_OpacityMaskFilter_6_" filterUnits="userSpaceOnUse" x="36.1" y="13.3" width="6.6" height="2.9"><feColorMatrix values="1 0 0 0 0 0 1 0 0 0 0 0 1 0 0 0 0 0 1 0"/></filter></defs><mask maskUnits="userSpaceOnUse" x="36.1" y="13.3" width="6.6" height="2.9" id="empty-illustration-n_1_"><g filter="url(#Adobe_OpacityMaskFilter_6_)"><path id="empty-illustration-m_1_" class="st6" d="M39.6 1.6C45.6 3.3 52.8.1 59.8.1c.8 1.6.8 2.9 0 4.1-7.2 5.2-13.7 8.3-19.7 9.2 1.6 7.1-1.3 21.1 0 32.8-16.3 3.9-21.3 2.3-25.2 0-3.3-4.6-1.6-28.7 0-34.4-6.1-.9-11-3.6-14.8-8.1.2-2 .5-3 1-3 10.5 2.5 10.1 1.7 23.1.5 2.4.4 4.4.4 6 0 2.5-.6 6.8-.4 9.4.4z"/></g></mask><path d="M40.2 13.3c-1.3.1-2.6.1-4.1 0 1.3 2 3.5 2.9 6.6 2.9-.1-1.4-2.5-2.1-2.5-2.9z" opacity=".461" mask="url(#empty-illustration-n_1_)" fill="#7389a7" enable-background="new"/></g></g></svg>