<svg width="520" height="538" viewBox="0 0 520 538" xmlns="http://www.w3.org/2000/svg" xmlns:xlink="http://www.w3.org/1999/xlink"><defs><path id="kNeBqXb" d="M0 118L260 0l260 118-260 117z"/><path id="kNeBqXf" d="M0 235l260-117v303L0 538z"/><path id="kNeBqXh" d="M0 118L260 0l260 118v303L260 538 0 421z"/><path d="M192.187 137.247c1.865.76 4.246 1.217 6.841 1.217 5.977 0 10.821-2.42 10.821-5.406 0-2.986-4.844-5.407-10.82-5.407-5.977 0-10.822 2.42-10.822 5.407 0 1.608 1.407 3.053 3.638 4.043l-.422 1.186-69.765 32.469v307.238" id="kNeBqXj"/><path d="M88.113 463.937V156.7l75.206-36.617-5.41-37.846 55.483-25.589.65-.414c1.83.71 4.13 1.133 6.628 1.133 5.977 0 10.821-2.42 10.821-5.406 0-2.986-4.844-5.407-10.82-5.407-5.977 0-10.822 2.42-10.822 5.407 0 1.536 1.284 2.924 3.344 3.908" id="kNeBqXk"/><path d="M270.447.057L122.199 67.098l5.41 37.846-72.5 34.601v45.429c2.992 0 5.417 4.835 5.417 10.8 0 5.964-2.425 10.799-5.417 10.799s-5.417-4.835-5.417-10.8c0-5.66 2.184-10.303 4.964-10.762" id="kNeBqXl"/><path d="M67.8 103.911c1.857.748 4.217 1.195 6.787 1.195 5.976 0 10.82-2.42 10.82-5.406 0-2.986-4.844-5.407-10.82-5.407-5.977 0-10.821 2.42-10.821 5.407 0 1.491 1.208 2.841 3.163 3.82l-.157.918-44.126 21.213v80.935l33.004 61.848V448.8" id="kNeBqXm"/><path d="M432.961 70.425l-145.2 65.877-.734 1.326c1.147.858 1.816 1.89 1.816 2.999 0 2.986-4.845 5.406-10.821 5.406-5.977 0-10.821-2.42-10.821-5.406 0-2.986 4.844-5.407 10.82-5.407 3.172 0 6.025.682 8.004 1.768" id="kNeBqXn"/><path d="M407.788 56.572L360.493 78.03l-55.26-6.34-1.545-1.151c.199-.41.304-.838.304-1.278 0-2.986-4.845-5.407-10.82-5.407-5.977 0-10.822 2.42-10.822 5.407 0 2.986 4.845 5.406 10.821 5.406 4.542 0 8.43-1.398 10.035-3.38" id="kNeBqXo"/><path d="M330.667 22.5l-55.66 25.253-.223.968c1.354.903 2.156 2.024 2.156 3.239 0 2.986-4.845 5.406-10.821 5.406-5.977 0-10.821-2.42-10.821-5.406 0-2.986 4.844-5.407 10.82-5.407 3.235 0 6.138.71 8.12 1.833" id="kNeBqXp"/><path d="M473.882 93.05l-167.844 76.148-88.614-6.945-53.564 27.335v96.656l-.215 1.473c2.84.336 5.091 5.034 5.091 10.78 0 5.965-2.425 10.8-5.417 10.8s-5.417-4.835-5.417-10.8c0-5.964 2.425-10.799 5.417-10.799" id="kNeBqXq"/><path d="M215.614 262.778c2.827-.364 5.063-5.05 5.063-10.777 0-5.964-2.425-10.8-5.417-10.8s-5.417 4.836-5.417 10.8c0 5.965 2.425 10.8 5.417 10.8v45.428l-51.4 38.927v158.952" id="kNeBqXr"/><path d="M215.684 435.777c2.794-.432 4.993-5.087 4.993-10.767 0-5.964-2.425-10.8-5.417-10.8s-5.417 4.836-5.417 10.8c0 5.965 2.425 10.8 5.417 10.8v45.428l-34.245 25.935" id="kNeBqXs"/><path d="M29.12 306.002c2.744-.53 4.888-5.14 4.888-10.748 0-5.965-2.425-10.8-5.417-10.8s-5.418 4.835-5.418 10.8c0 5.693 2.21 10.357 5.014 10.77.133.019.268.029.404.029v45.428L.997 390.408v49.836" id="kNeBqXt"/><path d="M431.212 424.224V307.082l51.4-38.927v-45.429c2.992 0 5.417-4.835 5.417-10.799 0-5.964-2.425-10.8-5.417-10.8s-5.418 4.836-5.418 10.8c0 5.695 2.211 10.36 5.015 10.77" id="kNeBqXu"/><path d="M401.096 440.513v-30.552l51.4-38.927v-45.428c2.992 0 5.417-4.835 5.417-10.8 0-5.964-2.425-10.8-5.417-10.8s-5.418 4.836-5.418 10.8c0 5.674 2.196 10.326 4.985 10.766" id="kNeBqXv"/><path d="M267.258 523.185V412.967l51.4-38.927V328.61c2.991 0 5.417-4.835 5.417-10.8 0-5.964-2.426-10.799-5.417-10.799-2.992 0-5.418 4.835-5.418 10.8 0 5.692 2.21 10.356 5.012 10.77" id="kNeBqXw"/><path d="M358.372 464.244V440.5l27.593-20.893V356.146c2.992 0 5.417-4.835 5.417-10.8 0-5.964-2.425-10.8-5.417-10.8s-5.417 4.836-5.417 10.8c0 5.592 2.132 10.191 4.863 10.744" id="kNeBqXx"/><linearGradient x1="8.26%" y1="40.894%" x2="58.554%" y2="93.682%" id="kNeBqXa"><stop stop-color="#FFF" stop-opacity=".084" offset="0%"/><stop stop-color="#FFF" stop-opacity="0" offset="100%"/></linearGradient><linearGradient x1="100%" y1="48.703%" x2="5.54%" y2="48.703%" id="kNeBqXc"><stop stop-opacity=".181" offset="0%"/><stop stop-opacity="0" offset="100%"/></linearGradient><linearGradient x1="-20.326%" y1="24.006%" x2="128.888%" y2="82.427%" id="kNeBqXd"><stop stop-opacity=".115" offset="0%"/><stop stop-opacity="0" offset="100%"/></linearGradient><linearGradient x1="50%" y1="24.248%" x2="85.008%" y2="75.741%" id="kNeBqXe"><stop stop-opacity=".16" offset="0%"/><stop stop-opacity="0" offset="100%"/></linearGradient><linearGradient x1="19.461%" y1="50%" x2="75.129%" y2="54.931%" id="kNeBqXg"><stop stop-opacity=".03" offset="0%"/><stop stop-opacity="0" offset="100%"/></linearGradient></defs><g fill="none" fill-rule="evenodd"><path d="M0 118L260 0l260 118v303L260 538 0 421z"/><g><use fill="url(#kNeBqXa)" xlink:href="#kNeBqXb"/><use fill="url(#kNeBqXc)" xlink:href="#kNeBqXb"/></g><path fill="url(#kNeBqXd)" d="M260 235l260-117v303L260 538z"/><g transform="matrix(-1 0 0 1 260 0)"><use fill="url(#kNeBqXe)" xlink:href="#kNeBqXf"/><use fill="url(#kNeBqXg)" xlink:href="#kNeBqXf"/></g><g><mask id="kNeBqXi" fill="#fff"><use xlink:href="#kNeBqXh"/></mask><g stroke="#000" mask="url(#kNeBqXi)" fill-rule="nonzero" opacity=".06"><g stroke-linecap="round" transform="translate(15.228 9.756)"><use stroke-opacity=".618" stroke-width="5.4" xlink:href="#kNeBqXj"/><use stroke-width="2" xlink:href="#kNeBqXj"/></g><g stroke-linecap="round" stroke-linejoin="round" transform="translate(15.228 9.756)"><use stroke-opacity=".618" stroke-width="5.4" xlink:href="#kNeBqXk"/><use stroke-width="2" xlink:href="#kNeBqXk"/></g><g stroke-linejoin="round" transform="translate(15.228 9.756)"><use stroke-opacity=".618" stroke-width="5.4" xlink:href="#kNeBqXl"/><use stroke-width="2" xlink:href="#kNeBqXl"/></g><g stroke-linejoin="round" transform="translate(15.228 9.756)"><use stroke-opacity=".618" stroke-width="5.4" xlink:href="#kNeBqXm"/><use stroke-width="2" xlink:href="#kNeBqXm"/></g><g stroke-linecap="round" stroke-linejoin="round" transform="translate(15.228 9.756)"><use stroke-opacity=".618" stroke-width="5.4" xlink:href="#kNeBqXn"/><use stroke-width="2" xlink:href="#kNeBqXn"/></g><g stroke-linecap="round" stroke-linejoin="round" transform="translate(15.228 9.756)"><use stroke-opacity=".618" stroke-width="5.4" xlink:href="#kNeBqXo"/><use stroke-width="2" xlink:href="#kNeBqXo"/></g><g stroke-linecap="round" stroke-linejoin="round" transform="translate(15.228 9.756)"><use stroke-opacity=".618" stroke-width="5.4" xlink:href="#kNeBqXp"/><use stroke-width="2" xlink:href="#kNeBqXp"/></g><g stroke-linejoin="round" transform="translate(15.228 9.756)"><use stroke-opacity=".618" stroke-width="5.4" xlink:href="#kNeBqXq"/><use stroke-width="2" xlink:href="#kNeBqXq"/></g><g stroke-linejoin="round" transform="translate(15.228 9.756)"><use stroke-opacity=".618" stroke-width="5.4" xlink:href="#kNeBqXr"/><use stroke-width="2" xlink:href="#kNeBqXr"/></g><g stroke-linecap="round" stroke-linejoin="round" transform="translate(15.228 9.756)"><use stroke-opacity=".618" stroke-width="5.4" xlink:href="#kNeBqXs"/><use stroke-width="2" xlink:href="#kNeBqXs"/></g><g stroke-linejoin="round" transform="matrix(-1 0 0 1 50.233 9.756)"><use stroke-opacity=".618" stroke-width="5.4" xlink:href="#kNeBqXt"/><use stroke-width="2" xlink:href="#kNeBqXt"/></g><g stroke-linecap="round" stroke-linejoin="round" transform="matrix(-1 0 0 1 934.468 9.756)"><use stroke-opacity=".618" stroke-width="5.4" xlink:href="#kNeBqXu"/><use stroke-width="2" xlink:href="#kNeBqXu"/></g><g stroke-linecap="round" stroke-linejoin="round" transform="matrix(-1 0 0 1 874.237 9.756)"><use stroke-opacity=".618" stroke-width="5.4" xlink:href="#kNeBqXv"/><use stroke-width="2" xlink:href="#kNeBqXv"/></g><g stroke-linecap="round" stroke-linejoin="round" transform="translate(15.228 9.756)"><use stroke-opacity=".618" stroke-width="5.4" xlink:href="#kNeBqXw"/><use stroke-width="2" xlink:href="#kNeBqXw"/></g><g stroke-linecap="round" stroke-linejoin="round" transform="matrix(-1 0 0 1 764.982 9.756)"><use stroke-opacity=".618" stroke-width="5.4" xlink:href="#kNeBqXx"/><use stroke-width="2" xlink:href="#kNeBqXx"/></g></g></g></g></svg>