<svg width="20" height="20" viewBox="0 0 20 20" xmlns="http://www.w3.org/2000/svg"><path d="M10 2c.144 0 .288.029.423.077l6.77 2.461c.48.174.807.635.807 1.154v7.385c0 .452-.25.865-.644 1.077l-6.77 3.692A1.163 1.163 0 0110 18c-.202 0-.404-.048-.587-.154l-6.769-3.692A1.223 1.223 0 012 13.077V5.692c0-.519.327-.98.808-1.154l6.769-2.461C9.712 2.029 9.856 2 10 2zm6.77 4.962l-6.155 2.24v7.23l6.154-3.355V6.962zM10 3.23L3.288 5.673 10 8.115l6.712-2.442L10 3.231z" fill="#253C5B" fill-rule="evenodd"/></svg>