<svg width="20" height="20" viewBox="0 0 20 20" xmlns="http://www.w3.org/2000/svg"><path d="M6.294 16.5l3.177-1.588v-2.598l-3.177 1.357V16.5zm-.53-3.756l3.343-1.43-3.342-1.432-3.342 1.431 3.342 1.431zm9 3.756l3.177-1.588v-2.598l-3.176 1.357V16.5zm-.529-3.756l3.342-1.43-3.342-1.432-3.342 1.431 3.342 1.431zm-3.706-2.423l3.177-1.365v-2.2l-3.177 1.356v2.209zM10 7.186l3.648-1.564L10 4.06 6.352 5.622 10 7.186zm9 4.285v3.44c0 .398-.223.77-.587.944l-3.706 1.853a.948.948 0 01-.472.116.948.948 0 01-.471-.116l-3.706-1.853a.133.133 0 01-.058-.033.133.133 0 01-.058.033l-3.706 1.853a.948.948 0 01-.471.116.948.948 0 01-.472-.116l-3.706-1.853A1.043 1.043 0 011 14.912V11.47c0-.422.256-.803.645-.977l3.59-1.538V5.647c0-.422.257-.802.646-.976l3.705-1.588C9.72 3.025 9.86 3 10 3c.14 0 .281.025.414.083l3.705 1.588c.39.174.646.554.646.976v3.309l3.59 1.538c.397.174.645.555.645.977z" fill="#253C5B" fill-rule="evenodd"/></svg>