<svg width="20" height="20" viewBox="0 0 20 20" xmlns="http://www.w3.org/2000/svg"><path d="M5.046 17.027c-1.104 0-2-.897-2-2s.896-2 2-2a2.001 2.001 0 010 4m-.083-8.91l2.074 2.075H5.48v1.879a2.991 2.991 0 012.565 2.956 3 3 0 11-6 0 2.996 2.996 0 012.435-2.942v-1.893H2.889l2.074-2.074zm9.999 3.91a3 3 0 11-.001 6 3 3 0 010-6zm0 1.5c-.827 0-1.5.673-1.5 1.5s.673 1.5 1.5 1.5 1.5-.673 1.5-1.5-.673-1.5-1.5-1.5zM16.93 2c.549 0 1 .451 1 1v3.973c0 .55-.451 1-1 1h-1.485v1.91h1.549l-2.032 2.032-2.032-2.032h1.515v-1.91h-1.488c-.55 0-1-.45-1-1V3c0-.549.45-1 1-1zM6.972 2c.55 0 1 .45 1 1v1.483h1.89v-1.55l2.032 2.033-2.032 2.033V5.483h-1.89v1.49c0 .55-.45 1-1 1H3c-.55 0-1-.45-1-1V3c0-.55.45-1 1-1z" fill="#253C5B" fill-rule="evenodd"/></svg>