<svg width="20" height="20" viewBox="0 0 20 20" xmlns="http://www.w3.org/2000/svg"><path d="M8.2 3L10 4.75h7.2c.99 0 1.8.787 1.8 1.75v8.75c0 .962-.81 1.75-1.8 1.75H2.8c-.99 0-1.8-.788-1.8-1.75V4.75C1 3.788 1.81 3 2.8 3h5.4zm1.805 4c-.64 0-1.19.218-1.648.655-.46.437-.69.96-.69 1.57v.952h-.166a.496.496 0 00-.355.14.449.449 0 00-.146.337v2.86c0 .132.049.244.146.337a.496.496 0 00.355.14h5.009c.139 0 .257-.047.354-.14a.449.449 0 00.146-.338v-2.86a.449.449 0 00-.146-.337.496.496 0 00-.354-.139h-.167v-.953c0-.609-.23-1.132-.69-1.569A2.308 2.308 0 0010.006 7zm0 .953c.369 0 .684.124.945.373.26.248.39.547.39.898v.953H8.67v-.953c0-.35.13-.65.39-.898a1.32 1.32 0 01.945-.373z" fill="#253C5B" fill-rule="evenodd"/></svg>