<svg width="20" height="20" viewBox="0 0 20 20" xmlns="http://www.w3.org/2000/svg" xmlns:xlink="http://www.w3.org/1999/xlink"><defs><path d="M3.799 10.25h1.128s1.74-6.302 2.1-7.697c.116-.454.484-.554.723-.553.24 0 .62.168.71.555.436 1.85 2.333 10.431 2.333 10.431s1.198-4.83 1.457-5.918c.076-.319.402-.568.75-.568s.649.257.75.53c.234.631 1.256 3.216 1.258 3.22H16.2a1.499 1.499 0 11-.002 1.498c-.704-.001-1.392 0-1.699.002-.377.003-.58-.217-.696-.472l-.639-1.596s-1.371 5.526-1.688 6.75a.727.727 0 01-.727.568c-.243-.003-.635-.148-.732-.587-.412-1.865-1.56-7.027-2.342-10.54 0 0-1.167 4.323-1.452 5.324-.098.34-.324.549-.724.553H3.799a1.499 1.499 0 110-1.5z" id="kxfCHra"/></defs><use fill="#253C5B" xlink:href="#kxfCHra" fill-rule="evenodd"/></svg>