<svg width="20" height="20" viewBox="0 0 20 20" xmlns="http://www.w3.org/2000/svg"><path d="M17 6.5a2 2 0 012 2v8a2 2 0 01-2 2H3a2 2 0 01-2-2v-8a2 2 0 012-2h14zm-7 2.204a.572.572 0 00-.2.039l-3.207 1.23a.613.613 0 00-.382.577v3.693c0 .226.118.432.305.538l3.206 1.846a.529.529 0 00.278.077.529.529 0 00.278-.077l3.206-1.846a.617.617 0 00.305-.538V10.55c0-.26-.154-.49-.382-.576L10.2 8.743a.572.572 0 00-.2-.039zm3.206 2.481v3.058l-2.915 1.678v-3.616l2.915-1.12zM10 9.32l3.18 1.22L10 11.763l-3.18-1.221L10 9.32zm6-5.82a1 1 0 011 1v1H3v-1a1 1 0 011-1h12zm-2-2a1 1 0 011 1H5a1 1 0 011-1h8z" fill="#253C5B" fill-rule="evenodd"/></svg>