<svg width="20" height="20" viewBox="0 0 20 20" xmlns="http://www.w3.org/2000/svg"><path d="M9.716 3.713c2.027-2.027 5.258-2.089 7.209-.138 1.95 1.951 1.889 5.182-.138 7.209-1.358 1.358-3.257 1.834-4.949 1.413l-1.747 1.545-2.266.044-.043 2.265-1.699.033-.043 2.265-3.965.076.065-3.399 6.163-6.364c-.421-1.692.055-3.59 1.413-4.95zm3.516 1.52c-.507.506-.522 1.313-.034 1.801S14.493 7.507 15 7c.507-.507.522-1.314.034-1.802s-1.295-.473-1.802.034zM8.96 9.602L5.374 13.19a.307.307 0 00-.01.423.278.278 0 00.393.02l.005-.005 3.632-3.632a.278.278 0 00-.01-.402.307.307 0 00-.424.01z" fill="#253C5B" fill-rule="evenodd"/></svg>