<svg width="20" height="20" viewBox="0 0 20 20" xmlns="http://www.w3.org/2000/svg"><path d="M10 14.918c.984 0 1.788-.805 1.788-1.788 0-.984-.804-1.789-1.788-1.789s-1.788.805-1.788 1.789c0 .983.804 1.788 1.788 1.788zm5.365-8.048h-.894V5.082A4.473 4.473 0 0010 .612a4.473 4.473 0 00-4.47 4.47V6.87h-.895c-.984 0-1.788.805-1.788 1.789V17.6c0 .983.804 1.788 1.788 1.788h10.73c.984 0 1.788-.805 1.788-1.788V8.659c0-.984-.804-1.789-1.788-1.789zM7.228 5.082A2.774 2.774 0 0110 2.31a2.774 2.774 0 012.772 2.772V6.87H7.228V5.082zm8.137 12.519H4.635V8.659h10.73V17.6z" fill="#253C5B" fill-rule="evenodd"/></svg>