<svg width="20" height="20" viewBox="0 0 20 20" xmlns="http://www.w3.org/2000/svg" xmlns:xlink="http://www.w3.org/1999/xlink"><defs><path d="M14.305 3.128a.642.642 0 00-1.096.454v1.925H8.716a.642.642 0 000 1.284h5.135a.642.642 0 00.642-.642V5.131l2.943 2.944-2.943 2.943V10a.642.642 0 00-.642-.642H6.79V7.433a.642.642 0 00-1.096-.454l-4.492 4.493a.642.642 0 000 .907l4.492 4.493a.642.642 0 001.096-.454v-1.926h4.493a.642.642 0 100-1.283H6.149a.642.642 0 00-.642.642v1.018l-2.943-2.944 2.943-2.943V10c0 .354.288.642.642.642h7.06v1.925a.642.642 0 001.096.454l4.492-4.493a.642.642 0 000-.907l-4.492-4.493" id="DnrlAa"/></defs><use fill="#253C5B" xlink:href="#DnrlAa" fill-rule="evenodd"/></svg>