<svg width="20" height="20" viewBox="0 0 20 20" xmlns="http://www.w3.org/2000/svg" xmlns:xlink="http://www.w3.org/1999/xlink"><defs><path d="M16.622 7.647l.073.002a.392.392 0 01.294.19l1.959 3.393a.392.392 0 01-.34.587.33.33 0 01-.047 0l-.829-.099a.197.197 0 00-.211.14 8.04 8.04 0 01-5.774 5.579 7.632 7.632 0 01-7.482-2.374.979.979 0 111.467-1.298 5.675 5.675 0 005.563 1.766 6.024 6.024 0 004.206-3.84.198.198 0 00-.018-.169.195.195 0 00-.143-.092l-1.448-.173a.392.392 0 01-.235-.66l2.708-2.831a.383.383 0 01.33-.119zM8.23 2.557a7.63 7.63 0 017.485 2.377.98.98 0 01-1.467 1.298 5.672 5.672 0 00-5.563-1.764 6.033 6.033 0 00-4.21 3.839.196.196 0 00.156.26l1.472.183a.392.392 0 01.235.66l-2.724 2.816a.392.392 0 01-.282.12.337.337 0 01-.048 0 .392.392 0 01-.293-.195l-1.94-3.402a.392.392 0 01.387-.584l.81.102a.195.195 0 00.211-.14 8.046 8.046 0 015.771-5.57zM9.99 8.04a1.959 1.959 0 110 3.917 1.959 1.959 0 010-3.917z" id="efCavla"/></defs><use fill="#253C5B" xlink:href="#efCavla" fill-rule="evenodd"/></svg>