<svg width="20" height="20" viewBox="0 0 20 20" xmlns="http://www.w3.org/2000/svg"><path d="M5 14a1 1 0 011 1v2a1 1 0 01-1 1H3a1 1 0 01-1-1v-2a1 1 0 011-1h2zm6 0a1 1 0 011 1v2a1 1 0 01-1 1H9a1 1 0 01-1-1v-2a1 1 0 011-1h2zM5 8a1 1 0 011 1v2a1 1 0 01-1 1H3a1 1 0 01-1-1V9a1 1 0 011-1h2zm6 0a1 1 0 011 1v2a1 1 0 01-1 1H9a1 1 0 01-1-1V9a1 1 0 011-1h2zm6 0a1 1 0 011 1v2a1 1 0 01-1 1h-2a1 1 0 01-1-1V9a1 1 0 011-1h2zM5 2a1 1 0 011 1v2a1 1 0 01-1 1H3a1 1 0 01-1-1V3a1 1 0 011-1h2zm6 0a1 1 0 011 1v2a1 1 0 01-1 1H9a1 1 0 01-1-1V3a1 1 0 011-1h2zm6 0a1 1 0 011 1v2a1 1 0 01-1 1h-2a1 1 0 01-1-1V3a1 1 0 011-1h2zm-2 13v2h2v-2h-2zm0-1h2a1 1 0 011 1v2a1 1 0 01-1 1h-2a1 1 0 01-1-1v-2a1 1 0 011-1z" fill="#253C5B" fill-rule="evenodd"/></svg>