<svg width="20" height="20" viewBox="0 0 20 20" xmlns="http://www.w3.org/2000/svg"><path d="M18.292 9.307L14.75 9.3a.706.706 0 00-.708.7v6.3c0 .385.318.7.708.7h3.542c.39 0 .708-.315.708-.7V10a.7.7 0 00-.708-.693zm0 6.293H14.75v-4.9h3.542v4.9zM16.167 3H3.417C2.63 3 2 3.623 2 4.4v8.4c0 .77.63 1.4 1.417 1.4h4.958v1.4H6.958V17h5.667v-1.4h-1.417v-1.4h1.417v-1.4H3.417V4.4h12.75v3.5h1.416V4.4c0-.777-.637-1.4-1.416-1.4zm-5.688 4.9l-.687-2.1-.687 2.1H6.958l1.75 1.232-.666 2.037 1.75-1.26 1.75 1.26-.667-2.037 1.75-1.232h-2.146z" fill="#253C5B" fill-rule="evenodd"/></svg>