<svg width="20" height="20" viewBox="0 0 200 20" xmlns="http://www.w3.org/2000/svg"><g fill="#253C5B" fill-rule="nonzero"><path d="M111.384 26.38c0 7.284-2.575 13.502-7.726 18.653-5.151 5.151-11.37 7.727-18.654 7.727-7.284 0-13.502-2.576-18.653-7.727-5.151-5.15-7.726-11.369-7.726-18.653 0-7.285 2.575-13.503 7.726-18.653C71.502 2.576 77.72 0 85.004 0c7.285 0 13.503 2.576 18.654 7.727 5.15 5.15 7.726 11.368 7.726 18.653 0 .307-.005.614-.016.92" fill-opacity=".498"/><path d="M52.76 26.38c0 7.284-2.576 13.502-7.727 18.653-5.15 5.151-11.369 7.727-18.653 7.727-7.285 0-13.503-2.576-18.654-7.727C2.576 39.883 0 33.664 0 26.38c0-7.285 2.575-13.503 7.726-18.653C12.877 2.576 19.096 0 26.38 0c7.284 0 13.502 2.576 18.653 7.727 5.151 5.15 7.727 11.368 7.727 18.653 0 .307-.006.614-.016.92"/><path d="M117.24 26.38C117.24 11.81 129.05 0 143.62 0 158.19 0 170 11.81 170 26.38c0 14.569-11.81 26.38-26.38 26.38-14.57 0-26.38-11.811-26.38-26.38" fill-opacity=".298"/></g></svg>