<svg width="20" height="20" viewBox="0 0 20 20" xmlns="http://www.w3.org/2000/svg"><path d="M11.516 15.625v3.75a.6.6 0 01-.188.438.6.6 0 01-.437.187H7.14a.6.6 0 01-.438-.188.6.6 0 01-.187-.437v-3.75a.6.6 0 01.187-.438.6.6 0 01.438-.187h3.75a.6.6 0 01.437.188.6.6 0 01.188.437zm4.937-9.375a5.01 5.01 0 01-.242 1.578c-.161.49-.344.888-.547 1.195-.203.308-.49.618-.86.93-.37.313-.669.54-.898.68-.229.14-.547.325-.953.555-.427.239-.784.578-1.07 1.015-.287.438-.43.787-.43 1.047a.818.818 0 01-.187.508c-.125.161-.271.242-.438.242h-3.75c-.156 0-.289-.096-.398-.29a1.175 1.175 0 01-.164-.585v-.703c0-.865.338-1.68 1.015-2.445.677-.766 1.422-1.331 2.235-1.696.614-.281 1.052-.573 1.312-.875.26-.302.39-.698.39-1.187 0-.438-.242-.823-.726-1.156-.484-.334-1.044-.5-1.68-.5-.677 0-1.24.15-1.687.453-.365.26-.922.859-1.672 1.797-.136.166-.297.25-.484.25a.747.747 0 01-.391-.125L2.265 4.984a.616.616 0 01-.156-.828C3.776 1.386 6.192 0 9.36 0c.833 0 1.672.161 2.516.484a8.473 8.473 0 012.281 1.297 6.483 6.483 0 011.656 1.993c.427.786.641 1.612.641 2.476z" fill="#253C5B" fill-rule="evenodd"/></svg>