<svg width="20" height="20" viewBox="0 0 20 20" xmlns="http://www.w3.org/2000/svg"><path d="M17 6.5a2 2 0 012 2v8a2 2 0 01-2 2H3a2 2 0 01-2-2v-8a2 2 0 012-2h14zm-1-3a1 1 0 011 1v1H3v-1a1 1 0 011-1h12zm-2-2a1 1 0 011 1H5a1 1 0 011-1h8zm-1.39 12.005c.874 0 1.583.67 1.583 1.497 0 .828-.709 1.498-1.583 1.498s-1.584-.67-1.584-1.498c0-.826.71-1.497 1.584-1.497zm-5.278-1.951l1.095 1.035h-.822v.938c.765.106 1.354.723 1.354 1.475 0 .828-.709 1.498-1.583 1.498-.875 0-1.583-.67-1.583-1.498 0-.73.553-1.336 1.284-1.468v-.945h-.84l1.095-1.035zM13.65 8.5c.29 0 .528.225.528.5v1.982c0 .275-.238.5-.528.5h-.784v.953h.818l-1.073 1.014-1.072-1.014h.8v-.953h-.786c-.29 0-.528-.225-.528-.5V9c0-.274.238-.499.528-.499zm-5.256 0c.29 0 .528.225.528.5v.74h.997v-.774l1.073 1.014-1.073 1.015v-.757h-.997v.744c0 .275-.238.5-.528.5H6.296c-.29 0-.528-.225-.528-.5V9c0-.275.238-.5.528-.5z" fill="#253C5B" fill-rule="evenodd"/></svg>