<svg width="20" height="20" viewBox="0 0 20 20" xmlns="http://www.w3.org/2000/svg"><path d="M4.077 16.857H6.5v-2.571H4.077v2.571zm2.961 0h2.693v-2.571H7.038v2.571zm-2.961-3.143H6.5v-2.857H4.077v2.857zm2.961 0h2.693v-2.857H7.038v2.857zm-2.961-3.428H6.5V7.714H4.077v2.572zm6.192 6.571h2.693v-2.571h-2.693v2.571zm-3.23-6.571H9.73V7.714H7.038v2.572zm6.461 6.571h2.423v-2.571H13.5v2.571zm-3.23-3.143h2.692v-2.857h-2.693v2.857zM7.307 6V3.429a.283.283 0 00-.08-.201.252.252 0 00-.19-.085H6.5a.252.252 0 00-.19.085.283.283 0 00-.08.2V6c0 .077.027.144.08.2a.252.252 0 00.19.086h.538a.252.252 0 00.19-.085.283.283 0 00.08-.201zm6.192 7.714h2.423v-2.857H13.5v2.857zm-3.23-3.428h2.692V7.714h-2.693v2.572zm3.23 0h2.423V7.714H13.5v2.572zM13.77 6V3.429a.283.283 0 00-.08-.201.252.252 0 00-.19-.085h-.538a.252.252 0 00-.19.085.283.283 0 00-.08.2V6c0 .077.027.144.08.2a.252.252 0 00.19.086h.538a.252.252 0 00.19-.085.283.283 0 00.08-.201zM17 5.429v11.428c0 .31-.107.578-.32.804-.213.226-.465.339-.757.339H4.077c-.292 0-.544-.113-.757-.34a1.132 1.132 0 01-.32-.803V5.43c0-.31.107-.578.32-.804.213-.226.465-.34.757-.34h1.077V3.43c0-.393.132-.73.395-1.01C5.813 2.14 6.13 2 6.5 2h.538c.37 0 .688.14.951.42.264.28.396.616.396 1.009v.857h3.23v-.857c0-.393.132-.73.396-1.01.263-.28.58-.419.95-.419h.539c.37 0 .687.14.95.42.264.28.396.616.396 1.009v.857h1.077c.292 0 .544.113.757.339.213.226.32.494.32.804z" fill="#253C5B" fill-rule="evenodd"/></svg>