<svg width="20" height="20" viewBox="0 0 170 146" xmlns="http://www.w3.org/2000/svg"><path d="M14.631 51.094c-8.07 3.523-11.767 12.948-8.244 21.018l.738 1.691c.679 1.555 2.263 2.442 3.936 2.719 3.876.649 7.341 3.164 9.028 7.027 1.687 3.864 1.175 8.116-.985 11.399-.934 1.415-1.36 3.18-.682 4.734l7.125 16.323 131.68-57.48-7.126-16.324c-.678-1.554-2.263-2.441-3.935-2.718-3.876-.649-7.342-3.164-9.029-7.027-1.686-3.864-1.174-8.116.985-11.399.934-1.415 1.361-3.18.683-4.734l-.739-1.692c-3.522-8.07-12.948-11.767-21.018-8.244L14.631 51.094zM160.42 65.84L28.74 123.32l6.387 14.631a7.974 7.974 0 0010.509 4.123l10.973-4.79-3.193-7.316a4.002 4.002 0 012.061-5.254 4.002 4.002 0 015.254 2.061l3.194 7.315 21.946-9.58-3.193-7.315a4.003 4.003 0 012.061-5.255 4.003 4.003 0 015.255 2.061l3.193 7.316 21.947-9.58-3.194-7.316a4.003 4.003 0 012.061-5.254 4.003 4.003 0 015.255 2.061l3.193 7.315 21.947-9.58-3.194-7.315a4.003 4.003 0 012.061-5.255 4.003 4.003 0 015.255 2.061l3.193 7.316 10.973-4.79a7.974 7.974 0 004.123-10.51l-6.387-14.63zM53.473 60.267l6.387 14.631a7.973 7.973 0 01-4.122 10.509 7.974 7.974 0 01-10.509-4.122l-6.387-14.631a7.974 7.974 0 014.122-10.51 7.973 7.973 0 0110.51 4.123zm29.262-12.774l6.387 14.632A7.974 7.974 0 0185 72.633a7.974 7.974 0 01-10.509-4.122l-6.387-14.63a7.973 7.973 0 014.123-10.51 7.973 7.973 0 0110.508 4.122zm29.263-12.773l6.386 14.631a7.972 7.972 0 01-4.122 10.509 7.974 7.974 0 01-10.509-4.122l-6.386-14.631a7.973 7.973 0 014.122-10.51 7.974 7.974 0 0110.509 4.123z" fill="#253C5B" fill-rule="evenodd"/></svg>