<svg width="16" height="19.33" viewBox="0 0 16 19.33" xmlns="http://www.w3.org/2000/svg"><g transform="translate(0 .391)" fill="#253C5B" fill-rule="nonzero"><path d="M9.818 0c.602 0 1.284.455 1.512 1.011l.795 1.898h.376l-.799 1.454H2.909v10.773c0 .546.307.864.364.864l2.038-.001-.799 1.455h-1.24c-1 0-1.817-1.022-1.817-2.272V4.364H.364A.359.359 0 010 4v-.727c0-.205.16-.364.364-.364h3.511l.795-1.898C4.898.455 5.58 0 6.182 0h3.636zm4.964 2.909h.854c.205 0 .364.16.364.364V4c0 .205-.16.364-.364.364h-1.09v10.772c0 1.25-.819 2.319-1.819 2.319l-5.933-.001.799-1.455 5.134.001c.057 0 .364-.318.364-.864L13.09 5.99l1.692-3.081zM5.455 6.545c.204 0 .363.16.363.364v6.546c0 .204-.159.363-.363.363h-.728a.359.359 0 01-.363-.363V6.909c0-.204.159-.364.363-.364h.728zm6.181 2.093v4.817c0 .204-.159.363-.363.363h-.728a.359.359 0 01-.363-.363l-.001-2.168 1.455-2.649zM8.364 6.545c.204 0 .363.16.363.364V9.78l-1.455 2.649v-5.52c0-.204.16-.364.364-.364h.728zm1.443-5.09H6.205a.383.383 0 00-.194.125l-.556 1.33h5.09L10 1.58a.438.438 0 00-.193-.125z"/><rect transform="rotate(28.776 8 9.274)" x="7.04" y="-1.226" width="1.919" height="21" rx=".3"/></g></svg>