<svg width="20" height="20" viewBox="0 0 20 20" xmlns="http://www.w3.org/2000/svg"><path d="M5.868 16.781l.97-.97-2.504-2.504-.97.97v1.14h1.364v1.364h1.14zm5.574-9.89a.224.224 0 00-.234-.234.25.25 0 00-.182.075L5.25 12.508a.25.25 0 00-.074.18c0 .14.096.235.234.235a.25.25 0 00.181-.074l5.776-5.776a.25.25 0 00.075-.182zm-.576-2.046L15.3 9.28l-8.867 8.866H2v-4.433l8.866-8.867zm7.28 1.023c0 .363-.15.714-.395.96l-1.77 1.769-4.432-4.434 1.769-1.758c.245-.256.596-.405.959-.405.362 0 .714.15.97.405l2.504 2.494c.245.255.394.607.394.97z" fill="#253C5B" fill-rule="evenodd"/></svg>