<svg width="20" height="20" viewBox="0 0 20 20" xmlns="http://www.w3.org/2000/svg"><path d="M6.765 13.627l.74-1.364a4.246 4.246 0 01-1.29-1.538 4.329 4.329 0 01-.465-1.963c0-.78.193-1.506.579-2.176C4.88 7.34 3.676 8.478 2.714 10c1.056 1.664 2.407 2.873 4.051 3.627zm3.69-7.341a.452.452 0 00-.132-.33.435.435 0 00-.323-.135c-.79 0-1.469.289-2.035.866a2.858 2.858 0 00-.849 2.075c0 .129.044.238.133.329.088.09.196.135.322.135a.435.435 0 00.323-.135c.089-.09.133-.2.133-.33 0-.554.193-1.028.578-1.421.386-.393.851-.59 1.395-.59a.435.435 0 00.323-.135c.088-.09.132-.2.132-.33zM13.9 4.438a.245.245 0 01-.01.087c-.664 1.213-1.66 3.037-2.988 5.475a1711.24 1711.24 0 01-2.998 5.484l-.464.861a.296.296 0 01-.266.155c-.076 0-.5-.226-1.271-.677a.304.304 0 01-.152-.27c0-.078.14-.359.417-.842a9.8 9.8 0 01-2.5-1.674 11.492 11.492 0 01-1.977-2.37c-.127-.2-.19-.422-.19-.667 0-.245.063-.468.19-.667.967-1.516 2.169-2.712 3.605-3.589A8.857 8.857 0 0110 4.429a9.11 9.11 0 011.708.164l.512-.938a.296.296 0 01.265-.155c.032 0 .089.02.171.058a6.543 6.543 0 01.607.329c.095.058.195.118.3.179.104.061.165.098.184.111a.297.297 0 01.152.261zm.351 4.324a4.28 4.28 0 01-.75 2.452 4.192 4.192 0 01-1.982 1.591l2.656-4.856c.05.29.076.561.076.813zM18.5 10c0 .226-.063.448-.19.667-.246.413-.591.88-1.034 1.403a10.253 10.253 0 01-3.296 2.583 8.92 8.92 0 01-3.98.918l.702-1.276a7.78 7.78 0 003.724-1.326A9.882 9.882 0 0017.286 10a9.824 9.824 0 00-2.676-2.844l.598-1.083c.601.413 1.178.906 1.731 1.48a9.56 9.56 0 011.371 1.78c.127.219.19.441.19.667z" fill="#253C5B" fill-rule="evenodd"/></svg>