<svg width="20" height="20" viewBox="0 0 20 20" xmlns="http://www.w3.org/2000/svg" xmlns:xlink="http://www.w3.org/1999/xlink"><defs><path d="M1 11a1 1 0 011 1v3h4a1 1 0 010 2H1a1 1 0 01-1-1v-4a1 1 0 011-1zm18 1a1 1 0 011 1v3a1 1 0 01-1 1h-5a1 1 0 010-2h4v-2a1 1 0 011-1zm-4-4a1 1 0 011 1v3a1 1 0 01-1 1h-3a1 1 0 01-1-1V9a1 1 0 011-1h3zM8 8a1 1 0 011 1v3a1 1 0 01-1 1H5a1 1 0 01-1-1V9a1 1 0 011-1h3zm11-4a1 1 0 011 1v3a1 1 0 01-2 0V6h-4a1 1 0 010-2zM6 4a1 1 0 110 2H2v2a1 1 0 11-2 0V5a1 1 0 011-1h5z" id="kYCUpka"/></defs><use fill="#253C5B" xlink:href="#kYCUpka" fill-rule="evenodd"/></svg>