<svg width="20" height="20" viewBox="0 0 18 19" xmlns="http://www.w3.org/2000/svg"><path d="M9.173 17.234c0-.107-.054-.16-.161-.16-.396 0-.736-.143-1.02-.428a1.393 1.393 0 01-.428-1.02c0-.108-.054-.161-.16-.161-.108 0-.162.053-.162.16 0 .49.173.907.518 1.253.345.345.763.517 1.252.517.107 0 .16-.053.16-.16zm-6.697-2.896h13.072c-1.783-2.01-2.675-4.8-2.675-8.366 0-.342-.08-.694-.24-1.056a3.842 3.842 0 00-.695-1.036c-.301-.328-.709-.598-1.222-.81a4.437 4.437 0 00-1.704-.316c-.623 0-1.192.106-1.704.317-.513.21-.92.48-1.222.81a3.842 3.842 0 00-.694 1.035c-.161.362-.241.714-.241 1.056 0 3.566-.892 6.355-2.675 8.366zm14.902 0c0 .349-.127.65-.382.905a1.237 1.237 0 01-.905.383h-4.505a2.48 2.48 0 01-.754 1.82 2.48 2.48 0 01-1.82.754 2.48 2.48 0 01-1.82-.754 2.48 2.48 0 01-.754-1.82H1.933c-.349 0-.65-.128-.905-.383a1.237 1.237 0 01-.382-.905c.335-.281.64-.576.915-.885.274-.308.56-.708.854-1.201a9.033 9.033 0 00.75-1.594c.204-.57.372-1.26.502-2.072.131-.81.196-1.682.196-2.614 0-1.02.393-1.966 1.177-2.84.784-.876 1.813-1.407 3.087-1.595a1.002 1.002 0 01-.08-.392c0-.268.093-.496.281-.684A.931.931 0 019.012.18c.268 0 .496.094.684.281a.931.931 0 01.281.684c0 .134-.026.265-.08.392 1.274.188 2.303.72 3.087 1.594.784.875 1.177 1.822 1.177 2.84 0 .933.065 1.804.196 2.615.13.812.298 1.502.503 2.072.204.57.454 1.101.749 1.594.295.492.58.893.854 1.201.275.309.58.604.915.885z" fill="#A0B2CA" fill-rule="evenodd"/></svg>