<svg width="20" height="20" viewBox="0 0 16 19" xmlns="http://www.w3.org/2000/svg"><path d="M15.129 4.032c.19.19.351.447.487.771.135.324.202.622.202.892v11.68c0 .27-.094.5-.284.69a.939.939 0 01-.689.283H1.218c-.27 0-.5-.094-.689-.283a.939.939 0 01-.284-.69V1.153c0-.27.095-.5.284-.69.19-.189.42-.283.69-.283h9.084c.27 0 .568.067.892.203.325.135.581.297.77.486l3.164 3.163zm-4.501-2.474V5.37h3.812c-.067-.196-.142-.335-.223-.416l-3.173-3.173c-.082-.081-.22-.156-.416-.223zM14.52 17.05V6.669h-4.218c-.27 0-.5-.095-.69-.284a.939.939 0 01-.283-.69V1.479H1.543V17.05h12.978zH4.462zv-5.515zv-2.919z" fill="#253C5B" fill-rule="evenodd"/></svg>