<svg width="20" height="20" viewBox="0 0 20 20" fill="none" xmlns="http://www.w3.org/2000/svg"><g fill-rule="evenodd" clip-rule="evenodd" fill="#A0B2CA"><path d="M18 5H2a1 1 0 00-1 1v8.197a1 1 0 001 1h16a1 1 0 001-1V6a1 1 0 00-1-1zM2 4a2 2 0 00-2 2v8.197a2 2 0 002 2h16a2 2 0 002-2V6a2 2 0 00-2-2H2z"/><path d="M9.091 11.588h1.773l.351 1.395h1.404l-1.827-5.868H9.208l-1.827 5.868h1.35l.36-1.395zm1.368-1.575l.135.54H9.361l.135-.54c.078-.294.156-.605.234-.932.078-.327.153-.646.225-.958h.036c.078.306.156.624.234.954.078.33.156.642.234.936zM2.035 7.115h1.404L4.14 9.85c.09.324.17.637.238.94.07.303.146.617.23.94h.036c.09-.323.17-.637.243-.94.072-.303.15-.616.234-.94l.693-2.736h1.35L5.4 12.983H3.808L2.035 7.115zM15.346 10.868l1.125 2.115h1.485l-1.323-2.35c.312-.137.564-.346.756-.625.192-.279.288-.634.288-1.066 0-.348-.06-.64-.18-.873a1.489 1.489 0 00-.49-.563 2.044 2.044 0 00-.72-.301 4.082 4.082 0 00-.878-.09H13.33v5.868h1.323v-2.115h.693zm-.045-1.053h-.648V8.168h.648c.354 0 .62.057.8.17.18.115.27.316.27.604 0 .582-.356.873-1.07.873z"/></g></svg>