<svg width="20" height="20" viewBox="0 0 19 14" xmlns="http://www.w3.org/2000/svg"><path d="M4.743 13.044a2.573 2.573 0 01-2.573-2.573V8.934a1.287 1.287 0 00-.573-1.074L.53 7.146a.643.643 0 010-1.068l1.067-.714c.36-.24.574-.643.573-1.074V2.753A2.572 2.572 0 014.743.18a.643.643 0 110 1.286 1.287 1.287 0 00-1.287 1.287V4.29c0 .86-.429 1.664-1.145 2.142l-.27.18.27.18a2.573 2.573 0 011.145 2.142v1.537a1.287 1.287 0 001.287 1.287.643.643 0 110 1.286zm11.578-2.573V8.934a1.287 1.287 0 01.572-1.074l1.068-.714a.643.643 0 000-1.068l-1.068-.714a1.287 1.287 0 01-.573-1.074V2.753A2.573 2.573 0 0013.748.18a.643.643 0 100 1.286 1.287 1.287 0 011.286 1.287V4.29c0 .86.43 1.664 1.145 2.142l.27.18-.27.18a2.573 2.573 0 00-1.145 2.142v1.537a1.287 1.287 0 01-1.286 1.287.643.643 0 100 1.286 2.572 2.572 0 002.572-2.573zm-9.006 0a.643.643 0 00-.643-.643H6.03a.643.643 0 100 1.286h.643a.643.643 0 00.643-.643zm3.216 0a.643.643 0 00-.643-.643H8.602a.643.643 0 100 1.286h1.286a.643.643 0 00.643-.643zm2.573 0a.643.643 0 00-.643-.643h-.643a.643.643 0 100 1.286h.643a.643.643 0 00.643-.643z" fill="#A0B2CA" fill-rule="evenodd"/></svg>