<svg width="20" height="20" viewBox="0 0 19 17" xmlns="http://www.w3.org/2000/svg"><path d="M19.57 1.543V3.09h-6.82V1.543zM11.531 0c.223 0 .41.078.574.23a.72.72 0 01.239.543v3.09a.72.72 0 01-.239.543.813.813 0 01-.574.23H8.277a.803.803 0 01-.57-.23.724.724 0 01-.242-.543V.773c0-.21.082-.39.242-.543a.803.803 0 01.57-.23zm-4.48 1.543V3.09H0V1.543zm12.52 6V9.09H12.75V7.543zM11.53 6c.223 0 .41.078.574.23a.72.72 0 01.239.543v3.09a.72.72 0 01-.239.543.813.813 0 01-.574.23H8.277a.803.803 0 01-.57-.23.724.724 0 01-.242-.543v-3.09c0-.21.082-.39.242-.543a.803.803 0 01.57-.23zm-4.48 1.543V9.09H0V7.543zm12.52 6v1.547H12.75v-1.547zM11.53 12c.223 0 .41.078.574.23a.72.72 0 01.239.543v3.09a.72.72 0 01-.239.543.813.813 0 01-.574.23H8.277a.803.803 0 01-.57-.23.724.724 0 01-.242-.543v-3.09c0-.21.082-.39.242-.543a.803.803 0 01.57-.23zm-4.48 1.543v1.547H0v-1.547zm0 0" fill="#A0B2CA" fill-rule="evenodd"/></svg>