<svg width="20" height="20" viewBox="0 0 16 19" xmlns="http://www.w3.org/2000/svg"><path d="M15.129 4.032c.19.19.351.447.487.771.135.324.202.622.202.892v11.68c0 .27-.094.5-.284.69a.939.939 0 01-.689.283H1.218c-.27 0-.5-.094-.689-.283a.939.939 0 01-.284-.69V1.153c0-.27.095-.5.284-.69.19-.189.42-.283.69-.283h9.084c.27 0 .568.067.892.202.325.136.581.298.77.487l3.164 3.163zm-4.501-2.474V5.37h3.812c-.067-.196-.142-.335-.223-.416l-3.173-3.173c-.082-.081-.22-.156-.416-.223zM14.52 17.05V6.669h-4.218c-.27 0-.5-.095-.69-.284a.939.939 0 01-.283-.69V1.479H1.543V17.05h12.978zM4.138 8.291c0-.095.03-.173.091-.234a.316.316 0 01.233-.091H11.6c.095 0 .173.03.233.091.061.061.092.139.092.233v.65a.316.316 0 01-.324.324H4.461a.316.316 0 01-.233-.092.316.316 0 01-.091-.233V8.29zm7.462 2.271c.095 0 .173.03.233.091.061.061.092.139.092.234v.649a.316.316 0 01-.324.324H4.461a.316.316 0 01-.233-.091.316.316 0 01-.091-.233v-.65c0-.094.03-.172.091-.233a.316.316 0 01.233-.09H11.6zm0 2.597c.095 0 .173.03.233.091.061.06.092.139.092.233v.65a.316.316 0 01-.324.324H4.461a.316.316 0 01-.233-.092.316.316 0 01-.091-.233v-.649c0-.095.03-.172.091-.233a.316.316 0 01.233-.091H11.6z" fill="#A0B2CA" fill-rule="evenodd"/></svg>