<svg width="20" height="20" viewBox="0 0 17 19" xmlns="http://www.w3.org/2000/svg"><path d="M8.518 17.215c0-.107-.054-.16-.16-.16-.396 0-.736-.143-1.02-.427a1.392 1.392 0 01-.427-1.02c0-.107-.054-.16-.161-.16-.107 0-.16.053-.16.16 0 .49.172.906.517 1.25.344.346.761.518 1.25.518.107 0 .16-.053.16-.16zm8.196-2.893c0 .349-.127.65-.381.905a1.236 1.236 0 01-.904.381h-4.5c0 .71-.252 1.316-.754 1.818a2.477 2.477 0 01-1.818.754c-.71 0-1.316-.251-1.818-.754a2.477 2.477 0 01-.753-1.818h-4.5c-.349 0-.65-.127-.904-.381A1.236 1.236 0 010 14.322c.335-.28.64-.575.914-.883.275-.308.56-.709.854-1.2a9.024 9.024 0 00.748-1.593c.204-.569.372-1.259.502-2.069.131-.81.196-1.68.196-2.612 0-1.017.392-1.963 1.176-2.837.783-.874 1.81-1.405 3.083-1.592a1 1 0 01-.08-.392.93.93 0 01.281-.683.93.93 0 01.683-.281.93.93 0 01.683.28.93.93 0 01.281.684 1 1 0 01-.08.392c1.272.187 2.3.718 3.084 1.592.783.874 1.175 1.82 1.175 2.837 0 .931.065 1.802.196 2.612.13.81.298 1.5.502 2.07.204.568.454 1.1.748 1.591.295.492.58.893.854 1.2.275.309.58.603.914.884z" fill="#A0B2CA" fill-rule="evenodd"/></svg>