<svg width="138" height="45" viewBox="0 0 138 45" fill="none" xmlns="http://www.w3.org/2000/svg">
<path d="M18.4003 4.02571C15.9992 2.65457 13.28 1.93812 10.515 1.94806C6.14702 1.94806 2.51522 4.28747 2.51522 8.1483C2.51522 12.3527 6.76868 14.2177 11.0221 15.6573C16.6334 17.555 22.3429 19.2727 22.3429 25.7511C22.163 31.3624 17.2224 33.7673 11.2021 33.9308C7.52234 34.0861 3.87584 33.1773 0.699313 31.3133C0.061293 30.9043 -0.249537 30.6262 0.241247 29.8246C0.362781 29.5135 0.623391 29.2777 0.944987 29.1876C1.26658 29.0976 1.6118 29.1638 1.8772 29.3666C4.76258 31.0259 8.05574 31.8421 11.3821 31.7223C16.1754 31.5914 19.8399 29.8246 19.9871 25.9311C20.1671 21.3177 15.8155 19.7308 11.0221 18.0949C5.45992 16.1972 0.257607 14.0214 0.257607 8.27918C0.257607 2.74967 5.16545 0.0994374 10.5804 0.00128054C13.8421 -0.0378947 17.0515 0.822477 19.8563 2.48792C20.347 2.79875 21.0341 3.25682 20.3471 4.12387C19.66 4.99092 19.071 4.4347 18.4003 4.02571Z" fill="white"/>
<path fill-rule="evenodd" clip-rule="evenodd" d="M45.275 32.0319V15.6724C45.3379 14.981 44.9576 14.3252 44.3262 14.0365C41.6261 12.3812 38.5281 11.488 35.3612 11.4517C32.4195 11.4449 29.6024 12.6388 27.5613 14.7571C25.5201 16.8754 24.4317 19.7349 24.5476 22.6743C24.5476 29.9215 29.21 33.946 34.5105 33.946C37.7747 33.854 40.8692 32.4715 43.1156 30.1015V32.0319C43.1156 32.7517 43.2955 33.1607 44.1953 33.1607C45.0951 33.1607 45.275 32.7517 45.275 32.0319ZM34.5432 31.9501C30.4206 31.8192 26.8052 28.6128 26.8052 22.7234C26.8052 17.0139 30.7478 13.4966 35.3612 13.4966C38.0556 13.5296 40.7051 14.1906 43.0992 15.427V27.5658C41.1155 30.315 37.9334 31.9456 34.5432 31.9501Z" fill="white"/>
<path fill-rule="evenodd" clip-rule="evenodd" d="M69.8143 32.0319V15.6724C69.8772 14.981 69.4969 14.3252 68.8655 14.0365C66.1511 12.3726 63.035 11.4791 59.8514 11.4517C56.9183 11.4583 54.114 12.6579 52.0836 14.7748C50.0532 16.8916 48.9713 19.7434 49.0869 22.6743C49.0869 29.9215 53.7493 33.9459 59.0498 33.9459C62.314 33.854 65.4085 32.4715 67.6549 30.1015V32.0319C67.6549 32.7517 67.8349 33.1607 68.7346 33.1607C69.6344 33.1607 69.8143 32.7517 69.8143 32.0319ZM59.0825 31.9501C54.9599 31.8192 51.3445 28.6128 51.3445 22.7233C51.3445 17.0139 55.2871 13.4966 59.8678 13.4966C62.5732 13.5245 65.2346 14.1856 67.6385 15.427V27.5658C65.6548 30.3149 62.4727 31.9456 59.0825 31.9501Z" fill="white"/>
<path fill-rule="evenodd" clip-rule="evenodd" d="M93.6645 12.3073L91.6686 13.9432C89.6917 12.2633 87.1616 11.3772 84.5686 11.4566C79.9245 11.4332 75.7761 14.3561 74.2354 18.7372C72.6946 23.1183 74.1003 27.9944 77.7367 30.8831C81.3731 33.7718 86.4409 34.0379 90.3599 31.546C91.9849 32.748 92.9049 34.68 92.8138 36.6992C92.6665 39.7748 90.049 42.7686 84.9776 42.7686C81.5272 42.8676 78.2784 41.1469 76.4216 38.237C75.9799 37.5663 75.5709 37.37 74.9329 37.6972C74.2948 38.0244 74.0658 38.2861 74.5239 39.1041C76.801 42.8581 80.9522 45.0625 85.3375 44.8463C91.505 44.8463 94.6624 40.8218 94.8914 36.7974C95.0518 34.2915 93.8357 31.8969 91.7177 30.5481C94.0996 28.4968 95.4727 25.5118 95.4804 22.3683C95.4783 19.8134 94.6006 17.3364 92.9937 15.3501L94.9405 13.845C95.5785 13.3379 95.6113 13.0271 95.1205 12.4381C94.9842 12.1753 94.7232 12.0001 94.4283 11.9736C94.1335 11.9471 93.8454 12.0729 93.6645 12.3073ZM93.2544 22.1945C93.278 26.9749 89.4348 30.8761 84.6545 30.9239C79.8743 30.9717 75.9537 27.1483 75.8817 22.3683C75.8987 17.5563 79.7573 13.6395 84.5686 13.5506C89.3491 13.5511 93.2307 17.4141 93.2544 22.1945Z" fill="white"/>
<path fill-rule="evenodd" clip-rule="evenodd" d="M101.516 3.43548C102.463 3.43251 103.228 2.66437 103.228 1.71782C103.228 1.2594 103.045 0.819988 102.719 0.497373C102.394 0.174759 101.953 -0.00428792 101.494 7.80119e-05C100.548 0.00909273 99.7869 0.782099 99.7929 1.72863C99.7989 2.67515 100.569 3.43846 101.516 3.43548ZM101.56 33.2916C102.509 33.2916 102.639 32.8826 102.639 32.1628V13.3821C102.639 12.6623 102.509 12.2533 101.56 12.2533C100.611 12.2533 100.48 12.6623 100.48 13.3821V32.1628C100.48 32.8826 100.611 33.2916 101.56 33.2916Z" fill="white"/>
<path fill-rule="evenodd" clip-rule="evenodd" d="M108.627 22.9528H121.862C129.371 22.9528 126.884 11.3703 116.97 11.4521C110.541 11.4521 106.337 16.4745 106.337 22.9037C106.337 33.9955 117.641 36.0404 124.332 32.0978C125.101 31.6397 125.363 31.198 124.872 30.56C124.381 29.9219 123.841 30.151 123.023 30.56C121.333 31.3905 119.475 31.8215 117.592 31.8196C112.979 31.8196 108.627 29.2512 108.627 22.9528ZM121.862 21.0551H108.774C109.103 16.7375 112.739 13.4239 117.068 13.497C124.038 13.3989 126.066 21.0551 121.862 21.0551Z" fill="white"/>
<path fill-rule="evenodd" clip-rule="evenodd" d="M137.125 15.4273C137.107 16.6904 136.076 17.7039 134.813 17.7007C133.55 17.6976 132.524 16.679 132.512 15.4158C132.5 14.1527 133.506 13.1149 134.769 13.0879C135.394 13.0791 135.996 13.3222 136.439 13.7623C136.882 14.2025 137.129 14.8026 137.125 15.4273ZM132.839 15.4273C132.875 16.5092 133.773 17.3616 134.855 17.3409C135.937 17.3202 136.802 16.434 136.797 15.3516C136.791 14.2691 135.917 13.3919 134.835 13.3823C134.29 13.3734 133.764 13.586 133.379 13.9714C132.993 14.3569 132.781 14.8822 132.79 15.4273H132.839ZM135.62 14.642V14.4784H135.571C135.212 14.2383 134.75 14.2142 134.367 14.4156C133.985 14.617 133.744 15.0116 133.739 15.4436C133.728 15.9243 134.004 16.3654 134.44 16.5676C134.876 16.7697 135.391 16.6946 135.751 16.3761V16.2289C135.732 16.2078 135.705 16.1957 135.677 16.1957C135.649 16.1957 135.622 16.2078 135.604 16.2289C135.324 16.5273 134.885 16.6134 134.514 16.4426C134.143 16.2718 133.923 15.8825 133.968 15.4764C133.951 14.5439 134.802 14.2658 135.489 14.7238C135.517 14.734 135.549 14.7307 135.574 14.7147C135.6 14.6988 135.617 14.672 135.62 14.642Z" fill="white"/>
</svg>
