<svg width="20" height="20" viewBox="0 0 20 20" xmlns="http://www.w3.org/2000/svg"><path d="M11.285 15.811v-1.908c0-.18-.141-.332-.322-.332H9.035c-.181 0-.322.151-.322.332v1.908c0 .181.14.332.322.332h1.928c.181 0 .322-.15.322-.332zm-.02-3.756l.18-4.61c0-.061-.03-.141-.1-.192-.06-.05-.15-.11-.241-.11h-2.21c-.09 0-.18.06-.241.11-.07.05-.1.151-.1.211l.17 4.59c0 .131.15.232.342.232h1.858c.18 0 .332-.1.342-.231zm-.141-9.382l7.714 14.143c.221.392.211.874-.02 1.265a1.286 1.286 0 01-1.105.633H2.285c-.452 0-.874-.24-1.105-.633a1.266 1.266 0 01-.02-1.265L8.874 2.673a1.278 1.278 0 012.25 0z" fill="#253C5B" fill-rule="evenodd"/></svg>