<svg width="20" height="20" viewBox="0 0 20 20" fill="none" xmlns="http://www.w3.org/2000/svg">
<path fill-rule="evenodd" clip-rule="evenodd" d="M17.7531 10.4074C17.9506 10.0782 17.9506 9.74897 17.7531 9.41975L14.2469 3.39506C14.0494 3.13169 13.786 3 13.4568 3H6.5432C6.21398 3 5.95061 3.13169 5.75308 3.39506L2.2469 9.41975C2.04937 9.74897 2.04937 10.0782 2.2469 10.4074L5.75308 16.4321C5.95061 16.6955 6.21398 16.8272 6.5432 16.8272H13.4568C13.786 16.8272 14.0494 16.6955 14.2469 16.4321L17.7531 10.4074Z" fill="url(#paint0_linear_0_826)"/>
<path fill-rule="evenodd" clip-rule="evenodd" d="M13.4508 16.8272C13.7801 16.8272 14.0434 16.6955 14.241 16.4321L17.1111 11.4998L12.0681 6.45679L10.0434 7.14815L8.01875 6.45679L9.25332 7.69135L7.32739 9.12345L8.01875 9.81481L7.47554 10.3086L7.96937 10.8025L7.32739 11.4444L9.10517 13.2222L8.01875 13.3704L11.4755 16.8272H13.4508Z" fill="black" fill-opacity="0.07"/>
<path fill-rule="evenodd" clip-rule="evenodd" d="M9.6543 11.9961V11.2963H10.4444V11.9961L12.0247 11.0988V10.7037H12.7654V11.4444L10.7427 12.6142L12.0741 13.3704L11.4321 13.8148L10.0494 13.0152L8.66665 13.8148L8.02467 13.3704L9.35603 12.6142L7.33331 11.4444V10.7037H8.07405V11.0988L9.6543 11.9961ZM9.6543 7.83101V8.53086H10.4444V7.83101L12.0247 8.72839V9.12346H12.7654V8.38271L10.7427 7.21294L12.0741 6.45679L11.4321 6.01234L10.0494 6.81195L8.66665 6.01234L8.02467 6.45679L9.35603 7.21294L7.33331 8.38271V9.12346H8.07405V8.72839L9.6543 7.83101Z" fill="white"/>
<circle cx="7.72838" cy="9.91358" r="0.444444" fill="white"/>
<circle cx="10.0494" cy="9.27161" r="0.444444" fill="white"/>
<circle cx="10.0494" cy="10.5556" r="0.444444" fill="white"/>
<circle cx="12.3703" cy="9.91358" r="0.444444" fill="white"/>
<path fill-rule="evenodd" clip-rule="evenodd" d="M17.6543 10.4074C17.8519 10.0782 17.8519 9.74897 17.6543 9.41975L14.1481 3.39506C13.9506 3.13169 13.6872 3 13.358 3H6.44444C6.11523 3 5.85185 3.13169 5.65432 3.39506L2.14815 9.41975C1.95062 9.74897 1.95062 10.0782 2.14815 10.4074L5.65432 16.4321C5.85185 16.6955 6.11523 16.8272 6.44444 16.8272H13.358C13.6872 16.8272 13.9506 16.6955 14.1481 16.4321L17.6543 10.4074Z" fill="url(#paint1_linear_0_826)"/>
<path fill-rule="evenodd" clip-rule="evenodd" d="M13.3521 16.8272C13.6813 16.8272 13.9447 16.6955 14.1422 16.4321L17.0123 11.4998L11.9694 6.45679L9.94469 7.14815L7.92 6.45679L9.15456 7.69135L7.22864 9.12345L7.92 9.81481L7.37679 10.3086L7.87061 10.8025L7.22864 11.4444L9.00642 13.2222L7.92 13.3704L11.3768 16.8272H13.3521Z" fill="black" fill-opacity="0.07"/>
<path fill-rule="evenodd" clip-rule="evenodd" d="M9.55555 11.9961V11.2963H10.3457V11.9961L11.9259 11.0988V10.7037H12.6667V11.4444L10.6439 12.6142L11.9753 13.3704L11.3333 13.8148L9.95061 13.0152L8.56789 13.8148L7.92592 13.3704L9.25727 12.6142L7.23456 11.4444V10.7037H7.9753V11.0988L9.55555 11.9961ZM9.55555 7.83101V8.53086H10.3457V7.83101L11.9259 8.72839V9.12346H12.6667V8.38271L10.6439 7.21294L11.9753 6.45679L11.3333 6.01234L9.95061 6.81195L8.56789 6.01234L7.92592 6.45679L9.25727 7.21294L7.23456 8.38271V9.12346H7.9753V8.72839L9.55555 7.83101Z" fill="white"/>
<circle cx="7.62963" cy="9.91358" r="0.444444" fill="white"/>
<circle cx="9.95061" cy="9.27161" r="0.444444" fill="white"/>
<circle cx="9.95061" cy="10.5556" r="0.444444" fill="white"/>
<circle cx="12.2716" cy="9.91358" r="0.444444" fill="white"/>
<defs>
<linearGradient id="paint0_linear_0_826" x1="2.09875" y1="3" x2="2.09875" y2="16.8272" gradientUnits="userSpaceOnUse">
<stop stop-color="#4387FD"/>
<stop offset="1" stop-color="#4683EA"/>
</linearGradient>
<linearGradient id="paint1_linear_0_826" x1="2" y1="3" x2="2" y2="16.8272" gradientUnits="userSpaceOnUse">
<stop stop-color="#4387FD"/>
<stop offset="1" stop-color="#4683EA"/>
</linearGradient>
</defs>
</svg>
