<svg width="20" height="20" viewBox="0 0 17 18" xmlns="http://www.w3.org/2000/svg"><path d="M1.97 15.972h13.362V6.253H1.969v9.719zm3.643-11.54V1.697a.296.296 0 00-.085-.218.296.296 0 00-.219-.086h-.607a.296.296 0 00-.218.086.296.296 0 00-.086.218V4.43c0 .089.029.161.086.218.057.057.13.086.218.086h.607a.296.296 0 00.219-.086.296.296 0 00.085-.218zm7.29 0V1.697a.295.295 0 00-.086-.218.296.296 0 00-.218-.086h-.607a.296.296 0 00-.219.086.295.295 0 00-.085.218V4.43c0 .089.028.161.085.218.057.057.13.086.219.086h.607a.296.296 0 00.218-.086.295.295 0 00.086-.218zm3.644-.608v12.148c0 .329-.12.614-.36.854-.241.24-.526.36-.855.36H1.97c-.33 0-.614-.12-.854-.36s-.361-.525-.361-.854V3.824c0-.329.12-.614.36-.854s.526-.36.855-.36h1.214v-.912c0-.417.15-.775.446-1.072A1.462 1.462 0 014.703.18h.607c.418 0 .775.148 1.073.446.297.297.446.655.446 1.072v.911h3.644V1.7c0-.418.149-.776.446-1.073A1.462 1.462 0 0111.992.18h.607c.418 0 .775.148 1.072.446.298.297.446.655.446 1.072v.911h1.215c.33 0 .614.12.854.36.24.241.361.526.361.855z" fill="#A0B2CA" fill-rule="evenodd"/></svg>