<svg width="20" height="20" viewBox="0 0 19 18" xmlns="http://www.w3.org/2000/svg"><path d="M4.473 14.09v1.543H0V14.09zm4.476-1.547c.219 0 .41.078.57.23.16.153.243.332.243.543v3.09c0 .211-.082.39-.242.543a.787.787 0 01-.57.23H5.694a.79.79 0 01-.574-.23.724.724 0 01-.242-.543v-3.09c0-.21.082-.39.242-.543a.806.806 0 01.574-.23zm2.031-4.637v1.547H0V7.906zm-8.132-6.18V3.27H0V1.727zM19.52 14.09v1.543h-9.352V14.09zM7.32.18c.223 0 .41.078.575.23a.72.72 0 01.238.543v3.09a.72.72 0 01-.238.543.813.813 0 01-.575.23H4.066a.803.803 0 01-.57-.23.724.724 0 01-.242-.543V.953c0-.21.082-.39.242-.543a.803.803 0 01.57-.23zm8.133 6.18c.223 0 .41.077.574.23.16.152.239.336.239.543v3.09c0 .21-.078.39-.239.547a.809.809 0 01-.574.226H12.2a.8.8 0 01-.57-.226.739.739 0 01-.242-.547v-3.09a.73.73 0 01.242-.543.803.803 0 01.57-.23zm4.07 1.546v1.547h-2.847V7.906zm-.003-6.18V3.27H8.54V1.727zm0 0" fill="#A0B2CA" fill-rule="evenodd"/></svg>