<svg width="20" height="20" viewBox="0 0 18 15" xmlns="http://www.w3.org/2000/svg"><g fill="#A0B2CA" fill-rule="evenodd"><path d="M2.678 13.29a2.573 2.573 0 001.82.754.643.643 0 100-1.287 1.287 1.287 0 01-1.287-1.286V9.934c0-.86-.43-1.664-1.145-2.142l-.27-.18.27-.18A2.573 2.573 0 003.211 5.29V3.753a1.287 1.287 0 011.286-1.287.643.643 0 100-1.286 2.572 2.572 0 00-2.572 2.573V5.29c0 .431-.214.835-.573 1.074l-1.068.714a.643.643 0 000 1.068l1.068.714c.359.24.574.642.573 1.074v1.537c0 .682.27 1.337.753 1.82zM16.075 9.934v1.537a2.572 2.572 0 01-2.572 2.573.643.643 0 010-1.287 1.287 1.287 0 001.286-1.286V9.934c0-.86.43-1.664 1.145-2.142l.27-.18-.27-.18a2.573 2.573 0 01-1.145-2.142V3.753a1.287 1.287 0 00-1.287-1.287.643.643 0 010-1.286 2.572 2.572 0 012.573 2.573V5.29c0 .431.214.835.573 1.074l1.068.714a.643.643 0 010 1.068l-1.068.714c-.359.24-.574.642-.573 1.074zM6.828 5.876c-.468.444-.432.636-.048 1.032l1.284 1.44-1.38 1.524c-.36.384-.42.588.048 1.032.48.468.756.42 1.08.012l1.32-1.572 1.308 1.572c.324.384.612.456 1.092-.012.468-.444.432-.636.048-1.044l-1.404-1.536 1.308-1.416c.396-.396.432-.588-.048-1.032-.492-.468-.768-.396-1.092-.012L9.096 7.328 7.92 5.864c-.312-.396-.6-.456-1.092.012z"/></g></svg>