<svg width="20" height="20" viewBox="0 0 19 17" xmlns="http://www.w3.org/2000/svg"><path fill="#253C5B" d="M9.257 15.302c0-.096-.049-.144-.145-.144a1.25 1.25 0 01-.916-.384 1.25 1.25 0 01-.383-.916c0-.096-.048-.144-.144-.144-.097 0-.145.048-.145.144 0 .44.155.814.465 1.124.31.31.684.464 1.123.464.096 0 .145-.048.145-.144zm-4.845-4.286l7.912-6.857c-.252-.529-.65-.97-1.195-1.321-.545-.352-1.217-.528-2.017-.528-.56 0-1.069.094-1.53.284-.46.19-.825.432-1.095.726-.27.295-.478.605-.623.93-.144.324-.216.64-.216.947 0 2.31-.412 4.25-1.236 5.82zm12.207 1.688c0 .312-.114.583-.343.811a1.11 1.11 0 01-.812.343h-4.042c0 .638-.226 1.182-.677 1.633a2.225 2.225 0 01-1.633.677c-.637 0-1.18-.224-1.628-.672a2.25 2.25 0 01-.681-1.629l1.344-1.164h6.83c-.999-1.124-1.681-2.505-2.048-4.14l1.001-.876c.367 2.141 1.263 3.814 2.689 5.016zm.776-12.56l.758.866c.048.06.07.131.067.213a.277.277 0 01-.094.203L1.236 16.06a.293.293 0 01-.212.063.262.262 0 01-.194-.1l-.758-.865a.31.31 0 01-.068-.213.248.248 0 01.095-.194L1.777 13.3a1.151 1.151 0 01-.171-.595c.3-.253.574-.518.82-.795.247-.276.503-.636.768-1.078.264-.442.488-.918.672-1.43.183-.511.334-1.13.45-1.858.118-.728.177-1.51.177-2.346 0-.914.352-1.764 1.055-2.549.704-.785 1.627-1.262 2.77-1.43a.899.899 0 01-.072-.352c0-.24.084-.445.253-.613A.835.835 0 019.112 0c.24 0 .445.084.614.253a.835.835 0 01.252.613c0 .12-.024.238-.072.352a4.656 4.656 0 011.976.744 4.26 4.26 0 011.335 1.421L16.99.108c.06-.048.13-.069.212-.063.081.006.146.04.194.1z" fill-rule="evenodd" clip-rule="evenodd"/></svg>