<svg width="20" height="20" viewBox="0 0 15 17" xmlns="http://www.w3.org/2000/svg"><path fill="#253C5B" d="M7.644 15.289c0-.097-.048-.145-.144-.145-.354 0-.66-.127-.915-.383a1.249 1.249 0 01-.383-.915c0-.096-.048-.144-.144-.144-.096 0-.144.048-.144.144 0 .439.154.813.464 1.123.31.309.684.464 1.122.464.096 0 .144-.048.144-.144zM1.64 12.694H13.36c-1.598-1.803-2.398-4.303-2.398-7.5 0-.306-.072-.622-.216-.947a3.447 3.447 0 00-.622-.928c-.27-.294-.636-.536-1.095-.726A3.977 3.977 0 007.5 2.31c-.56 0-1.069.095-1.528.284-.46.19-.825.432-1.096.726-.27.294-.477.604-.622.928-.144.325-.216.64-.216.947 0 3.197-.8 5.697-2.398 7.5zM15 12.692c0 .313-.114.583-.342.812a1.109 1.109 0 01-.812.342H9.808c0 .637-.226 1.181-.676 1.632-.451.45-.995.676-1.632.676-.637 0-1.18-.226-1.632-.676a2.224 2.224 0 01-.676-1.632H1.154c-.313 0-.583-.114-.811-.342A1.109 1.109 0 010 12.692c.3-.252.574-.517.82-.793.247-.276.502-.635.767-1.077.264-.442.488-.918.671-1.429.183-.51.334-1.13.45-1.857.118-.727.177-1.508.177-2.344 0-.913.351-1.762 1.054-2.546.703-.785 1.626-1.26 2.768-1.429a.898.898 0 01-.072-.352c0-.24.084-.444.252-.613A.835.835 0 017.5 0c.24 0 .445.084.613.252a.835.835 0 01.252.613c0 .12-.024.238-.072.352 1.142.168 2.065.644 2.768 1.429.703.784 1.054 1.633 1.054 2.546 0 .836.059 1.617.176 2.344.117.727.268 1.346.45 1.857.184.51.408.987.673 1.429.264.442.52.8.766 1.077.246.277.52.54.82.793z" fill-rule="evenodd" clip-rule="evenodd"/></svg>