<svg width="10" height="10" viewBox="0 0 154 154" fill="none" xmlns="http://www.w3.org/2000/svg"><path fill-rule="evenodd" clip-rule="evenodd" d="M89.6 41.6v44.8c0 .933-.3 1.7-.9 2.3-.6.6-1.367.9-2.3.9h-32c-.933 0-1.7-.3-2.3-.9-.6-.6-.9-1.367-.9-2.3V80c0-.933.3-1.7.9-2.3.6-.6 1.367-.9 2.3-.9h22.4V41.6c0-.933.3-1.7.9-2.3.6-.6 1.367-.9 2.3-.9h6.4c.933 0 1.7.3 2.3.9.6.6.9 1.367.9 2.3zm41.6 35.2c0-9.867-2.433-18.967-7.3-27.3-4.867-8.333-11.467-14.933-19.8-19.8-8.333-4.867-17.433-7.3-27.3-7.3s-18.967 2.433-27.3 7.3c-8.333 4.867-14.933 11.467-19.8 19.8-4.867 8.333-7.3 17.433-7.3 27.3s2.433 18.967 7.3 27.3c4.867 8.333 11.467 14.933 19.8 19.8 8.333 4.867 17.433 7.3 27.3 7.3s18.967-2.433 27.3-7.3c8.333-4.867 14.933-11.467 19.8-19.8 4.867-8.333 7.3-17.433 7.3-27.3zm22.4 0c0 13.933-3.433 26.783-10.3 38.55-6.867 11.767-16.183 21.083-27.95 27.95-11.767 6.867-24.617 10.3-38.55 10.3-13.933 0-26.783-3.433-38.55-10.3-11.767-6.867-21.083-16.183-27.95-27.95C3.433 103.583 0 90.733 0 76.8c0-13.933 3.433-26.783 10.3-38.55 6.867-11.767 16.183-21.083 27.95-27.95C50.017 3.433 62.867 0 76.8 0c13.933 0 26.783 3.433 38.55 10.3 11.767 6.867 21.083 16.183 27.95 27.95 6.867 11.767 10.3 24.617 10.3 38.55z" fill="#253C5B"/></svg>