<svg width="20" height="20" viewBox="0 0 20 10" fill="none" xmlns="http://www.w3.org/2000/svg"><path fill-rule="evenodd" clip-rule="evenodd" d="M10 9.064a5.6 5.6 0 110-6.929 5.6 5.6 0 110 6.929zM8.728 4.3a.39.39 0 01.113.288.382.382 0 01-.113.28L5.334 8.263a.392.392 0 01-.287.12.384.384 0 01-.281-.12L2.503 6a.382.382 0 01-.112-.281.39.39 0 01.112-.288l.569-.562a.384.384 0 01.281-.119c.109 0 .202.04.281.119L5.047 6.28l2.55-2.543a.384.384 0 01.281-.12c.109 0 .202.04.281.12l.57.562zm1.283 3.243c-.07.158-.15.314-.24.466a4.778 4.778 0 01-1.746 1.747 4.695 4.695 0 01-2.41.644c-.87 0-1.673-.215-2.409-.644A4.778 4.778 0 011.46 8.01 4.696 4.696 0 01.816 5.6c0-.87.214-1.674.643-2.41a4.778 4.778 0 011.747-1.746A4.695 4.695 0 015.616.8c.87 0 1.674.215 2.41.644A4.778 4.778 0 019.771 3.19c.087.148.165.3.234.453a4.766 4.766 0 011.979-2.202A4.683 4.683 0 0114.388.8c.868 0 1.67.214 2.403.642a4.766 4.766 0 011.742 1.742c.428.734.642 1.535.642 2.403 0 .87-.214 1.67-.642 2.404a4.766 4.766 0 01-1.742 1.742 4.683 4.683 0 01-2.403.642c-.869 0-1.67-.214-2.403-.642a4.766 4.766 0 01-1.743-1.742 4.79 4.79 0 01-.23-.448zm5.174-.154v1.184a.204.204 0 01-.056.147.182.182 0 01-.137.06h-1.197a.197.197 0 01-.143-.063.197.197 0 01-.063-.144V7.39c0-.054.021-.102.063-.143a.197.197 0 01.143-.063h1.197c.054 0 .1.02.137.06.038.04.056.088.056.146zm.1-4.831l-.112 3.871a.158.158 0 01-.065.11.23.23 0 01-.147.046h-1.153a.243.243 0 01-.15-.047c-.041-.03-.062-.067-.062-.109l-.106-3.871c0-.05.02-.087.062-.112a.232.232 0 01.15-.05h1.371c.059 0 .108.017.15.05a.122.122 0 01.062.112z" fill="#253C5B"/></svg>