<svg width="20" height="20" viewBox="0 0 20 20" xmlns="http://www.w3.org/2000/svg"><path d="M14.7 15.83c.289.62.889 1.037 1.571 1.091h-.017a.48.48 0 110 .96 2.482 2.482 0 01-1.571-.579c-.904.77-2.233.77-3.136 0-.903.77-2.232.77-3.135 0-.904.77-2.233.77-3.136 0-.441.37-.997.574-1.572.58a.48.48 0 010-.96 1.903 1.903 0 001.572-1.093c.29.62.89 1.038 1.572 1.092A1.903 1.903 0 008.42 15.83c.29.62.89 1.038 1.572 1.092a1.903 1.903 0 001.563-1.092l.073.14c.31.543.87.902 1.5.952a1.903 1.903 0 001.571-1.092zm.934-3.41a1.994 1.994 0 001.655 1.143l.008.016a.505.505 0 010 1.01 2.598 2.598 0 01-1.655-.605 2.482 2.482 0 01-3.218.05l.728-.728c.246.163.533.252.827.257a1.994 1.994 0 001.655-1.142zm-5.535-4.554l.072.009a.364.364 0 01.284.355v5.146l2.035-2.036a.372.372 0 01.513 0c.062.068.101.16.101.257s-.04.19-.11.256l-2.647 2.656-.107.075h-.281l-.108-.075-2.647-2.656a.356.356 0 010-.513.372.372 0 01.513 0l2.027 2.036V8.23c0-.198.157-.36.355-.364zM4.358 12.42a1.994 1.994 0 001.654 1.142c.295-.005.582-.094.828-.257l.728.728a2.482 2.482 0 01-3.194-.066 2.598 2.598 0 01-1.654.604h-.017a.505.505 0 010-1.01 1.994 1.994 0 001.655-1.141zm6.961-10.917a3.01 3.01 0 013.03 3.3v.206L14.258 5a2.42 2.42 0 01.486 4.581 5.781 5.781 0 01-2.844-.051.052.052 0 010-.052V7.865a1.748 1.748 0 00-2.069-1.83A1.82 1.82 0 008.29 8.02v1.572a4.282 4.282 0 01-2.835 0 2.42 2.42 0 01.6-4.602 1.53 1.53 0 011.448-1.78 1.51 1.51 0 011.034.363 2.782 2.782 0 012.782-2.069z" fill="#253C5B" fill-rule="evenodd"/></svg>