<svg width="20" height="20" viewBox="0 0 20 20" xmlns="http://www.w3.org/2000/svg"><path clip-rule="evenodd" d="M13.23 3.425c.168.168.312.396.433.685.12.288.18.552.18.793v10.382c0 .24-.084.444-.252.613a.834.834 0 01-.613.252H.865a.834.834 0 01-.613-.252.835.835 0 01-.252-.613V.865C0 .625.084.421.252.252A.834.834 0 01.865 0H8.94c.24 0 .505.06.793.18.289.12.517.265.685.433l2.812 2.812zm-4.001-2.2v3.389h3.389c-.06-.175-.127-.298-.199-.37L9.6 1.424c-.073-.073-.196-.139-.37-.2zm3.46 13.772V5.768H8.942a.834.834 0 01-.613-.252.834.834 0 01-.253-.613V1.154H1.154v13.843H12.69zM3.462 7.209a.28.28 0 01.08-.207.28.28 0 01.208-.08h6.345a.28.28 0 01.207.08.28.28 0 01.081.207v.577a.28.28 0 01-.081.208.28.28 0 01-.207.08H3.749a.28.28 0 01-.207-.08.28.28 0 01-.081-.208V7.21zm6.633 2.02a.28.28 0 01.207.081.28.28 0 01.081.207v.577a.28.28 0 01-.081.207.28.28 0 01-.207.082H3.749a.28.28 0 01-.207-.082.28.28 0 01-.081-.207v-.577a.28.28 0 01.08-.207.28.28 0 01.208-.081h6.345zm0 2.308a.28.28 0 01.207.081.28.28 0 01.081.207v.577a.28.28 0 01-.081.207.28.28 0 01-.207.081H3.749a.28.28 0 01-.207-.08.28.28 0 01-.081-.208v-.577a.28.28 0 01.08-.207.28.28 0 01.208-.081h6.345z" fill="#253C5B" fill-rule="evenodd"/></svg>