<svg width="20" height="20" viewBox="0 0 20 20" xmlns="http://www.w3.org/2000/svg"><path d="M8.183 2.732L10 4.55h7.268c1 0 1.817.818 1.817 1.817v9.085c0 1-.818 1.817-1.817 1.817H2.732c-1 0-1.817-.818-1.817-1.817l.01-10.902c0-1 .808-1.817 1.807-1.817h5.451zm5.358 4.553h-1.733a.21.21 0 00-.213.177l-.164 1.117a3.353 3.353 0 00-.733.413L9.62 8.571a.214.214 0 00-.264.093l-.867 1.458a.204.204 0 00.052.27l.915.695c-.018.135-.03.274-.03.413 0 .14.012.279.03.413l-.915.696a.209.209 0 00-.052.27l.867 1.458c.052.093.17.127.264.093l1.08-.422c.225.169.467.308.732.413l.164 1.117a.21.21 0 00.213.177h1.733a.21.21 0 00.212-.177l.165-1.117c.264-.105.507-.248.732-.413l1.08.422c.099.038.212 0 .264-.093l.866-1.458a.209.209 0 00-.052-.27l-.914-.696c.017-.134.03-.27.03-.413 0-.143-.013-.278-.03-.413l.914-.695a.209.209 0 00.052-.27l-.866-1.458a.22.22 0 00-.265-.093l-1.079.421a3.188 3.188 0 00-.732-.413l-.165-1.117a.21.21 0 00-.212-.177zm-.867 2.74c.837 0 1.517.662 1.517 1.475 0 .814-.68 1.476-1.517 1.476-.836 0-1.516-.662-1.516-1.476 0-.813.68-1.475 1.516-1.475z" fill="#253C5B" fill-rule="evenodd"/></svg>