<svg width="20" height="20" viewBox="0 0 20 20" xmlns="http://www.w3.org/2000/svg"><path d="M19.389.611a.801.801 0 00-1.135 0L16.686 2.18a4.014 4.014 0 00-2.24-.676c-1.08 0-2.097.42-2.863 1.186L9.29 4.983a.801.801 0 000 1.136l4.592 4.592c.491.444.982.15 1.136 0l2.294-2.294a4.058 4.058 0 00.51-5.103l1.568-1.568a.801.801 0 000-1.135zM8.138 8.358a.801.801 0 011.135 0 .801.801 0 010 1.135L7.8 10.966 9.03 12.2l1.477-1.473a.801.801 0 011.131 1.135l-1.473 1.473.546.546a.801.801 0 010 1.136L8.417 17.31a4.024 4.024 0 01-2.864 1.186c-.81 0-1.58-.236-2.24-.676L1.747 19.39a.801.801 0 01-1.135 0 .801.801 0 010-1.135l1.568-1.572a4.058 4.058 0 01.51-5.103l2.294-2.294a.81.81 0 011.136 0l.546.546zm6.309-5.248a2.444 2.444 0 011.728 4.172L14.447 9.01 10.99 5.553l1.728-1.728a2.424 2.424 0 011.729-.715z" fill="#253C5B" fill-rule="evenodd"/></svg>