<svg width="20" height="20" viewBox="0 0 20 20" xmlns="http://www.w3.org/2000/svg"><path d="M4.473 16.363v1.82H0v-1.82zm4.476-1.816c.219 0 .41.09.57.27.16.18.243.39.243.636v3.637c0 .246-.082.46-.242.64a.742.742 0 01-.57.27H5.694a.744.744 0 01-.574-.27.935.935 0 01-.242-.64v-3.637c0-.246.082-.457.242-.637.16-.18.352-.27.574-.27zM10.98 9.09v1.82H0V9.09zM2.848 1.816v1.82H0v-1.82zM19.52 16.363v1.82h-9.352v-1.82zM7.32 0c.223 0 .41.09.575.27.16.18.238.394.238.64v3.637a.922.922 0 01-.238.637.75.75 0 01-.575.27H4.066a.742.742 0 01-.57-.27.925.925 0 01-.242-.637V.91c0-.246.082-.46.242-.64.16-.18.352-.27.57-.27zm8.133 7.273c.223 0 .41.09.574.27.16.18.239.39.239.637v3.636c0 .246-.078.461-.239.641a.75.75 0 01-.574.27H12.2a.742.742 0 01-.57-.27.935.935 0 01-.242-.64V8.18c0-.246.082-.457.242-.637.16-.18.351-.27.57-.27zm4.07 1.817v1.82h-2.847V9.09zm-.003-7.274v1.82H8.54v-1.82zm0 0" fill="#A0B2CA" fill-rule="evenodd"/></svg>