<svg width="9.54" height="9.88" viewBox="0 0 167 173" fill="none" xmlns="http://www.w3.org/2000/svg"><path fill-rule="evenodd" clip-rule="evenodd" d="M46.2 139.4c0 3.533-1.25 6.55-3.75 9.05-2.5 2.5-5.517 3.75-9.05 3.75-3.467 0-6.467-1.267-9-3.8-2.533-2.533-3.8-5.533-3.8-9 0-3.533 1.25-6.55 3.75-9.05 2.5-2.5 5.517-3.75 9.05-3.75 3.533 0 6.55 1.25 9.05 3.75 2.5 2.5 3.75 5.517 3.75 9.05zM96 160c0 3.533-1.25 6.55-3.75 9.05-2.5 2.5-5.517 3.75-9.05 3.75-3.533 0-6.55-1.25-9.05-3.75-2.5-2.5-3.75-5.517-3.75-9.05 0-3.533 1.25-6.55 3.75-9.05 2.5-2.5 5.517-3.75 9.05-3.75 3.533 0 6.55 1.25 9.05 3.75 2.5 2.5 3.75 5.517 3.75 9.05zM25.6 89.6c0 3.533-1.25 6.55-3.75 9.05-2.5 2.5-5.517 3.75-9.05 3.75-3.533 0-6.55-1.25-9.05-3.75C1.25 96.15 0 93.133 0 89.6c0-3.533 1.25-6.55 3.75-9.05 2.5-2.5 5.517-3.75 9.05-3.75 3.533 0 6.55 1.25 9.05 3.75 2.5 2.5 3.75 5.517 3.75 9.05zm120.2 49.8c0 3.467-1.267 6.467-3.8 9-2.533 2.533-5.533 3.8-9 3.8-3.533 0-6.55-1.25-9.05-3.75-2.5-2.5-3.75-5.517-3.75-9.05 0-3.533 1.25-6.55 3.75-9.05 2.5-2.5 5.517-3.75 9.05-3.75 3.533 0 6.55 1.25 9.05 3.75 2.5 2.5 3.75 5.517 3.75 9.05zM49.4 39.8c0 4.4-1.567 8.167-4.7 11.3-3.133 3.133-6.9 4.7-11.3 4.7s-8.167-1.567-11.3-4.7c-3.133-3.133-4.7-6.9-4.7-11.3s1.567-8.167 4.7-11.3c3.133-3.133 6.9-4.7 11.3-4.7s8.167 1.567 11.3 4.7c3.133 3.133 4.7 6.9 4.7 11.3zm117 49.8c0 3.533-1.25 6.55-3.75 9.05-2.5 2.5-5.517 3.75-9.05 3.75-3.533 0-6.55-1.25-9.05-3.75-2.5-2.5-3.75-5.517-3.75-9.05 0-3.533 1.25-6.55 3.75-9.05 2.5-2.5 5.517-3.75 9.05-3.75 3.533 0 6.55 1.25 9.05 3.75 2.5 2.5 3.75 5.517 3.75 9.05zm-64-70.4c0 5.333-1.867 9.867-5.6 13.6-3.733 3.733-8.267 5.6-13.6 5.6s-9.867-1.867-13.6-5.6c-3.733-3.733-5.6-8.267-5.6-13.6s1.867-9.867 5.6-13.6C73.333 1.867 77.867 0 83.2 0s9.867 1.867 13.6 5.6c3.733 3.733 5.6 8.267 5.6 13.6zm53 20.6c0 6.2-2.2 11.483-6.6 15.85-4.4 4.367-9.667 6.55-15.8 6.55-6.2 0-11.483-2.183-15.85-6.55-4.367-4.367-6.55-9.65-6.55-15.85 0-6.133 2.183-11.4 6.55-15.8s9.65-6.6 15.85-6.6c6.133 0 11.4 2.2 15.8 6.6 4.4 4.4 6.6 9.667 6.6 15.8z" fill="#253C5B"/></svg>