<svg width="20" height="20" viewBox="0 0 20 20" xmlns="http://www.w3.org/2000/svg"><path d="M18.816 9.977a8.78 8.78 0 01-.714 3.5c-.48 1.113-1.122 2.074-1.93 2.878-.805.81-1.766 1.45-2.879 1.93a8.78 8.78 0 01-3.5.715 8.99 8.99 0 01-3.844-.852 8.831 8.831 0 01-3.101-2.402.423.423 0 01-.075-.266.34.34 0 01.098-.238l1.61-1.625a.432.432 0 01.296-.105c.125.015.215.062.27.14a5.942 5.942 0 004.746 2.34 5.86 5.86 0 002.332-.476 6.034 6.034 0 001.922-1.286c.539-.543.969-1.18 1.285-1.921.32-.739.477-1.52.477-2.332 0-.817-.157-1.594-.477-2.332a6.034 6.034 0 00-1.285-1.922 6.034 6.034 0 00-1.922-1.285 5.794 5.794 0 00-2.332-.477c-.766 0-1.504.137-2.207.418A5.862 5.862 0 005.703 5.57l1.61 1.621c.246.235.3.504.164.813-.133.312-.364.469-.692.469H1.52a.72.72 0 01-.528-.223.723.723 0 01-.222-.531V2.457c0-.328.156-.562.468-.695.305-.133.578-.078.813.164L3.578 3.44A9.129 9.129 0 016.45 1.605 8.804 8.804 0 019.793.953a8.78 8.78 0 013.5.715c1.113.48 2.074 1.121 2.879 1.93.808.804 1.45 1.765 1.93 2.879a8.78 8.78 0 01.714 3.5zm-7.52-3.383v5.261c0 .11-.034.2-.105.27a.365.365 0 01-.27.105h-3.76c-.11 0-.2-.035-.27-.105a.365.365 0 01-.106-.27v-.75c0-.109.035-.199.106-.273.07-.07.16-.105.27-.105h2.632V6.594c0-.11.035-.203.105-.274.07-.07.16-.105.27-.105h.754c.11 0 .2.035.27.105.07.07.105.164.105.274zm0 0" fill="#A0B2CA" fill-rule="evenodd"/></svg>