<svg width="20" height="20" viewBox="0 0 20 20" xmlns="http://www.w3.org/2000/svg" xmlns:xlink="http://www.w3.org/1999/xlink"><defs><path d="M17 12.508c0-.407-.165-.677-.497-.814l-3.366-1.559-1.418-.643c.308-.181.585-.414.833-.696a3.89 3.89 0 00.62-.966c.119-.27.22-.564.302-.88a3.851 3.851 0 00.088-1.51 4.291 4.291 0 00-.106-.525c-.212-.859-.632-1.56-1.26-2.1A3.227 3.227 0 0010.019 2c-.827 0-1.548.266-2.162.797a3.9 3.9 0 00-1.24 2.017c-.119.406-.178.79-.178 1.152 0 .679.154 1.333.46 1.966.356.679.84 1.209 1.455 1.592l-1.349.611-3.473 1.526c-.353.158-.531.44-.531.847v3.66a.9.9 0 00.23.627c.154.169.35.255.585.255h12.406a.717.717 0 00.548-.255.9.9 0 00.231-.628v-3.659z" id="qKBWYa"/></defs><use fill="#253C5B" xlink:href="#qKBWYa" fill-rule="evenodd"/></svg>