<svg width="20" height="20" viewBox="0 0 20 20" xmlns="http://www.w3.org/2000/svg"><path d="M3.535 12.639a1.724 1.724 0 01.92-1.533l2.063-.948a1.52 1.52 0 00.445-.39 4.292 4.292 0 01-.558-1.17 4.612 4.612 0 01-.194-1.337c0-.316.032-.619.098-.906.064-.288.142-.562.237-.822A1.866 1.866 0 005.43 5.17c-.632 0-1.166.26-1.602.78-.437.52-.655 1.142-.655 1.868 0 .519.11.988.335 1.407.222.418.519.738.89.96l-3.092 1.421c-.205.094-.307.279-.307.557v2.425c0 .167.047.31.14.43.093.122.214.183.361.183h2.034V12.64zm11.926 0c0-.335-.13-.557-.39-.67l-2.646-1.281-1.115-.53c.241-.148.46-.339.655-.57a3.28 3.28 0 00.488-.795c.093-.222.171-.464.236-.724a3.391 3.391 0 00-.013-1.672c-.168-.707-.498-1.282-.99-1.727A2.48 2.48 0 009.974 4c-.65 0-1.217.219-1.7.655a3.24 3.24 0 00-.975 1.659c-.094.333-.14.65-.14.947 0 .558.12 1.096.362 1.616.28.558.66.994 1.143 1.309l-1.06.502-2.729 1.254c-.28.13-.418.362-.418.697v3.008c0 .205.06.376.18.516.121.139.275.21.46.21h9.753c.167 0 .31-.071.432-.21a.76.76 0 00.18-.516v-3.008zM19 12.164c0-.26-.102-.446-.306-.557l-3.038-1.45c.354-.222.637-.537.851-.946.213-.409.32-.873.32-1.392 0-.726-.219-1.348-.655-1.868-.437-.52-.97-.78-1.602-.78-.223 0-.432.037-.627.111a2.785 2.785 0 00-.544.279c.205.557.307 1.123.307 1.7 0 .91-.242 1.737-.724 2.479.093.094.181.177.264.251.084.075.173.14.265.195l1.978.92a1.724 1.724 0 01.919 1.533v2.563h2.09a.44.44 0 00.363-.181.686.686 0 00.139-.432v-2.425z" fill="#253C5B" fill-rule="evenodd"/></svg>