<svg width="154" height="154" viewBox="0 0 154 154" fill="none" xmlns="http://www.w3.org/2000/svg"><path fill-rule="evenodd" clip-rule="evenodd" d="M109.408 54.657l27.564-27.564-10.066-10.066-27.564 27.564 10.066 10.066zm42.052-27.564c0 1.694-.564 3.105-1.693 4.234l-120.98 120.98c-1.13 1.129-2.54 1.693-4.233 1.693-1.694 0-3.105-.564-4.234-1.693L1.693 133.68C.564 132.551 0 131.14 0 129.447c0-1.694.564-3.105 1.693-4.234l120.98-120.98c1.129-1.129 2.54-1.693 4.234-1.693 1.693 0 3.104.564 4.233 1.693l18.627 18.627c1.129 1.129 1.693 2.54 1.693 4.233zM24.367 9.22l9.219 2.822-9.22 2.823-2.822 9.22-2.822-9.22-9.22-2.823 9.22-2.822L21.544 0l2.823 9.22zm32.926 15.24l18.438 5.645-18.438 5.644-5.645 18.439-5.644-18.439-18.439-5.644 18.439-5.645 5.644-18.438 5.645 18.438zm87.486 44.968l9.22 2.822-9.22 2.823-2.822 9.219-2.822-9.22-9.219-2.822 9.219-2.822 2.822-9.22 2.822 9.22zM84.573 9.22l9.22 2.822-9.22 2.823-2.822 9.22-2.823-9.22-9.219-2.823 9.22-2.822L81.75 0l2.822 9.22z" fill="#253C5B"/></svg>