<svg width="179" height="170" viewBox="0 0 179 170" fill="none" xmlns="http://www.w3.org/2000/svg"><path d="M124.352 31.916a18.389 18.389 0 00-2.349 22.847L71.426 105.34a35.237 35.237 0 00-12.753-6.43l8.052-55.015a18.36 18.36 0 0011.67-5.168 18.807 18.807 0 00-5.233-30.439 18.81 18.81 0 00-22.058 4.594 18.804 18.804 0 007.353 29.997l-8.012 54.759a35.663 35.663 0 1034.572 34.571l54.758-8.01a19.83 19.83 0 10-1.018-8.269l-55.014 8.048a35.223 35.223 0 00-6.432-12.753l50.576-50.577a18.393 18.393 0 0022.85-2.348 18.654 18.654 0 00-.014-26.37 18.656 18.656 0 00-26.37-.014z" fill="#253C5B"/></svg>