<?xml version="1.0" encoding="UTF-8"?><svg xmlns="http://www.w3.org/2000/svg" width="540" height="540" xmlns:xlink="http://www.w3.org/1999/xlink" viewBox="0 0 540 540"><defs><style>.cls-1{fill:#566e8e;}.cls-2{fill:#e6edf8;}.cls-3{fill:#1d2f46;mix-blend-mode:multiply;opacity:.2;}.cls-4{isolation:isolate;}.cls-5{fill:url(#_未命名的渐变_19);}.cls-6{fill:#233b59;}.cls-7{fill:#9dafc6;}</style><linearGradient id="_未命名的渐变_19" x1="405.44" y1="333.27" x2="126.05" y2="334.97" gradientUnits="userSpaceOnUse"><stop offset="0" stop-color="#233b59"/><stop offset="1" stop-color="#566e8e"/></linearGradient></defs><g class="cls-4"><g id="_图层_1"><path class="cls-6" d="m217.86,43.78c-12.92,0-23.39,10.47-23.39,23.39v168.24c0,12.92,10.47,23.39,23.39,23.39h106.09c12.92,0,23.39-10.47,23.39-23.39V105.47l-61.7-61.7h-67.78Z"/><rect class="cls-2" x="218.83" y="138.66" width="99.78" height="14.65" rx="7.33" ry="7.33"/><rect class="cls-2" x="218.83" y="164.07" width="99.78" height="14.65" rx="7.33" ry="7.33"/><rect class="cls-2" x="218.83" y="189.49" width="68.76" height="14.65" rx="7.33" ry="7.33"/><path class="cls-3" d="m347.34,235.4V105.47l-61.7-61.7h-14.74v215.01h53.05c12.92,0,23.39-10.47,23.39-23.39Z"/><path class="cls-1" d="m309.11,105.47h38.31l-61.7-61.7v38.31c0,12.92,10.47,23.39,23.39,23.39Z"/><circle class="cls-1" cx="271.91" cy="456.1" r="41.83"/><rect class="cls-7" x="73.4" y="411.1" width="80" height="80" rx="13.37" ry="13.37"/><path class="cls-6" d="m409.76,410.6h31.3c4.61,0,8.86,2.46,11.16,6.45l15.65,27.11c2.3,3.99,2.3,8.9,0,12.89l-15.65,27.11c-2.3,3.99-6.56,6.45-11.16,6.45h-31.3c-4.61,0-8.86-2.46-11.16-6.45l-15.65-27.11c-2.3-3.99-2.3-8.9,0-12.89l15.65-27.11c2.3-3.99,6.56-6.45,11.16-6.45Z"/><path class="cls-5" d="m409.98,363.25c-.19-2.1-2.75-3.03-4.24-1.53l-2.18,2.18c-.31-.45-.66-.89-1.06-1.29l-34.92-34.92c-1.16-1.16-2.57-1.94-4.05-2.33-.86-.27-1.77-.42-2.71-.42h-79.54v-35.82c0-4.98-4.04-9.01-9.01-9.01s-9.01,4.04-9.01,9.01v35.82h-79.54c-.06,0-.11,0-.17,0-2.61-.27-5.31.59-7.3,2.59l-34.92,34.92c-.45.45-.85.95-1.18,1.46l-2.14-2.14c-1.49-1.49-4.05-.57-4.24,1.53l-1.58,17.33c-.14,1.55,1.16,2.85,2.7,2.7l17.33-1.58c2.1-.19,3.03-2.75,1.53-4.24l-1.15-1.15c.52-.34,1.01-.73,1.46-1.18l32.23-32.23h76.95v25.82c0,.3.02.6.05.89h-2.53c-2.11,0-3.26,2.46-1.91,4.08l11.14,13.37c1,1.19,2.83,1.19,3.82,0l11.14-13.37c1.35-1.62.2-4.08-1.91-4.08h-1.82c.03-.29.05-.59.05-.89v-25.82h76.09l32.38,32.38c.4.4.84.75,1.29,1.06l-1.05,1.05c-1.49,1.49-.57,4.05,1.53,4.24l17.33,1.58c1.55.14,2.85-1.16,2.7-2.7l-1.58-17.33Z"/></g></g></svg>