<svg width="20" height="20" viewBox="0 0 20 20" fill="none" xmlns="http://www.w3.org/2000/svg"><path fill-rule="evenodd" clip-rule="evenodd" d="M7.89 4.699c1.497-1.683 3.98-2.178 6.018-1.203 2.71 1.29 3.696 4.578 2.22 7.112l-3.32 5.698a1.402 1.402 0 01-1.904.511l4.016-6.9a3.677 3.677 0 00-1.61-5.167c-1.471-.707-3.278-.356-4.362.857a3.666 3.666 0 00-.95 2.42 3.661 3.661 0 001.224 2.782l-2.343 4.036a1.408 1.408 0 01-.852.65 1.369 1.369 0 01-.542.032 1.418 1.418 0 01-.516-.17l2.545-4.382a5.142 5.142 0 01-.775-1.735l-1.558 2.69a1.41 1.41 0 01-.847.65 1.437 1.437 0 01-1.063-.14L7.307 5.5c.17-.284.361-.553.583-.8zm4.656 2.209a2.016 2.016 0 01.743 2.76l-3.866 6.638a1.38 1.38 0 01-.851.645 1.402 1.402 0 01-1.058-.134l3.592-6.183a2.052 2.052 0 01-.795-.356 1.994 1.994 0 01-.573-.656 2.004 2.004 0 01-.114-1.688 2.08 2.08 0 01.48-.727 2.062 2.062 0 011.61-.563c.295.026.579.119.832.264zm-1.41 1.249a.695.695 0 00-.16.185.62.62 0 00-.087.356.65.65 0 00.134.346c.072.098.18.176.3.212a.65.65 0 00.371.015.694.694 0 00.315-.196.623.623 0 00.15-.335.625.625 0 00-.31-.63.65.65 0 00-.238-.082.572.572 0 00-.247.02.616.616 0 00-.227.109z" fill="#615EFF"/></svg>