<svg width="20" height="20" viewBox="0 0 20 20" xmlns="http://www.w3.org/2000/svg"><defs><linearGradient x1="-20.715%" y1="120.711%" x2="120.707%" y2="-20.711%" id="RipSca"><stop stop-color="#C8511B" offset="0%"/><stop stop-color="#F90" offset="100%"/></linearGradient></defs><g fill-rule="nonzero" fill="none"><rect fill="url(#RipSca)" width="20" height="20" rx="4"/><g transform="translate(3.2 3.2)" fill="#FFF"><path d="M12.2 10.29V8.377a1.6 1.6 0 10-1.843-1.843H8.443a1.6 1.6 0 00-1.31-1.309V3.845a1.867 1.867 0 10-.533 0v1.379a1.6 1.6 0 00-1.31 1.31H3.513a1.733 1.733 0 10-1.979 1.978v1.779a1.6 1.6 0 10.534 0V8.512a1.739 1.739 0 001.445-1.445h1.779A1.6 1.6 0 006.6 8.376v1.645a1.733 1.733 0 10.533 0V8.376a1.6 1.6 0 001.31-1.31h1.914a1.6 1.6 0 001.31 1.31v1.915a1.6 1.6 0 10.533 0zm-9.333 1.577a1.067 1.067 0 11-2.134 0 1.067 1.067 0 012.134 0zM1.8 8a1.2 1.2 0 110-2.4 1.2 1.2 0 010 2.4zm3.733-6A1.333 1.333 0 118.2 2a1.333 1.333 0 01-2.667 0zm2.534 9.733a1.2 1.2 0 11-2.4 0 1.2 1.2 0 012.4 0zm-1.2-3.866a1.067 1.067 0 110-2.134 1.067 1.067 0 010 2.134zm4-1.067A1.067 1.067 0 1113 6.8a1.067 1.067 0 01-2.133 0zm1.066 6.133a1.067 1.067 0 110-2.133 1.067 1.067 0 010 2.133z"/><circle cx="1.8" cy="6.8" r="1"/><circle cx="6.867" cy="11.733" r="1"/></g></g></svg>