<svg width="20" height="20" viewBox="0 0 20 20" xmlns="http://www.w3.org/2000/svg"><defs><linearGradient x1="-20.707%" y1="120.707%" x2="120.707%" y2="-20.707%" id="bbhOMRa"><stop stop-color="#4D27A8" offset="0%"/><stop stop-color="#A166FF" offset="100%"/></linearGradient></defs><g fill-rule="nonzero" fill="none"><rect fill="url(#bbhOMRa)" width="20" height="20" rx="4"/><g fill="#FFF"><path d="M10.016 16.667a.267.267 0 01-.17-.062l-1.617-1.333A.267.267 0 018.4 14.8h.8V14h.533v1.067c0 .147-.12.266-.266.266H9.14l.872.72.856-.72h-.336a.267.267 0 01-.266-.266V14h.533v.8h.8a.267.267 0 01.17.47l-1.583 1.333a.267.267 0 01-.171.064zM12.392 6.667l-.064.533c.44.032.872.122 1.288.267-.472.205-1.803.4-3.616.4-1.867 0-3.2-.214-3.624-.4.384-.163 1.488-.382 3.357-.4v-.534c-3.629.038-4 .664-4 .934a.4.4 0 000 .053.299.299 0 00.032.093l.054.094c.011.02.026.04.042.058.027.027.057.051.088.072l2.984 4.654v.712c0 .111.07.211.174.25.291.11.6.169.912.171.302 0 .6-.06.88-.176.1-.04.167-.137.168-.245v-.715l2.97-4.648a.448.448 0 00.23-.373c0-.286-.222-.603-1.875-.8zm-1.816 5.6a.267.267 0 00-.043.144v.602c-.347.108-.719.108-1.066 0v-.602a.267.267 0 00-.043-.144L6.776 8.13c1.063.193 2.143.282 3.224.266a17.013 17.013 0 003.219-.266l-2.643 4.136z"/><path d="M11.6 7.333h-1.067a.267.267 0 01-.266-.266V6c0-.147.12-.267.266-.267H11.6c.147 0 .267.12.267.267v1.067c0 .147-.12.266-.267.266zm-.8-.533h.533v-.533H10.8V6.8zM11.067 4.933H10a.267.267 0 01-.267-.266V3.6c0-.147.12-.267.267-.267h1.067c.147 0 .266.12.266.267v1.067c0 .147-.12.266-.266.266zm-.8-.533h.533v-.533h-.533V4.4zM8.933 6.267H7.867A.267.267 0 017.6 6V4.933c0-.147.12-.266.267-.266h1.066c.148 0 .267.12.267.266V6c0 .147-.12.267-.267.267zm-.8-.534h.534V5.2h-.534v.533z"/></g></g></svg>