<svg width="20" height="20" viewBox="0 0 20 20" xmlns="http://www.w3.org/2000/svg" xmlns:xlink="http://www.w3.org/1999/xlink"><defs><path d="M14.5 4.65a2 2 0 012 2v6.706a2 2 0 01-2 2h-9a2 2 0 01-2-2V6.65a2 2 0 012-2h9zm-1.436 6.049h-2.451a.613.613 0 100 1.225h2.45a.613.613 0 100-1.225zM6.589 8.083l-.096.017a.547.547 0 00-.241.922l.884.884a.137.137 0 010 .194l-.884.884a.547.547 0 10.773.773l1.368-1.367a.547.547 0 000-.774L7.025 8.25a.547.547 0 00-.532-.15z" id="bnPqpna"/></defs><use fill="#0E1F36" fill-rule="nonzero" xlink:href="#bnPqpna"/></svg>