<svg width="20" height="20" viewBox="0 0 20 20" xmlns="http://www.w3.org/2000/svg"><g transform="translate(2 2)" fill="#00AFAA" fill-rule="nonzero"><circle cx="10.909" cy="4.425" r="1"/><path d="M8.004.018a7.988 7.988 0 00-7.99 7.99 7.99 7.99 0 007.99 7.988 7.99 7.99 0 007.989-7.989A7.988 7.988 0 008.003.018zm4.501 10.538h-3.96V9.92h3.957v.636h.003zm-.629-6.069s-.287.418-.138 1.408c.28 1.858-.694 3.509-2.425 3.509H8.036v.509H7.015c-.251 0-.753-.04-.979.178-2.272 2.174-2.752 2.8-2.912 2.887-.102.055-.128-.065-.128-.065l6.575-8.106c0-1.462 1.596-1.85 2.233-.767l.847-.295-.775.742z"/></g></svg>