<svg width="20" height="20" viewBox="0 0 20 20" xmlns="http://www.w3.org/2000/svg"><g fill="none" fill-rule="evenodd"><path d="M5.128 0h9.744c1.783 0 2.43.186 3.082.534.652.349 1.163.86 1.512 1.512.348.652.534 1.299.534 3.082v9.744c0 1.783-.186 2.43-.534 3.082a3.635 3.635 0 01-1.512 1.512c-.652.348-1.299.534-3.082.534H5.128c-1.783 0-2.43-.186-3.082-.534a3.635 3.635 0 01-1.512-1.512C.186 17.302 0 16.655 0 14.872V5.128c0-1.783.186-2.43.534-3.082A3.635 3.635 0 012.046.534C2.698.186 3.345 0 5.128 0z" fill="#E7EEF8"/><path d="M10 4.4c.101 0 .202.02.296.054l4.739 1.723a.86.86 0 01.565.808v5.169a.856.856 0 01-.451.754l-4.738 2.584A.814.814 0 0110 15.6a.814.814 0 01-.41-.108L4.85 12.908a.856.856 0 01-.451-.754v-5.17a.86.86 0 01.565-.807l4.739-1.723A.887.887 0 0110 4.4zm4.738 3.473l-4.307 1.568v5.062l4.307-2.35v-4.28zM10 5.262l-4.698 1.71L10 8.68l4.698-1.71L10 5.261z" fill="#263D5C"/></g></svg>