<svg width="20" height="20" viewBox="0 0 20 20" xmlns="http://www.w3.org/2000/svg"><g fill="none" fill-rule="evenodd"><path d="M5.128 0h9.744c1.783 0 2.43.186 3.082.534.652.349 1.163.86 1.512 1.512.348.652.534 1.299.534 3.082v9.744c0 1.783-.186 2.43-.534 3.082a3.635 3.635 0 01-1.512 1.512c-.652.348-1.299.534-3.082.534H5.128c-1.783 0-2.43-.186-3.082-.534a3.635 3.635 0 01-1.512-1.512C.186 17.302 0 16.655 0 14.872V5.128c0-1.783.186-2.43.534-3.082A3.635 3.635 0 012.046.534C2.698.186 3.345 0 5.128 0z" fill="#E7EEF8"/><path d="M15.5 9.452L13 9.447c-.275 0-.5.222-.5.494v4.447c0 .272.225.494.5.494h2.5c.275 0 .5-.222.5-.494V9.941a.494.494 0 00-.5-.489zm0 4.442H13v-3.459h2.5v3.46zM14 5H5a.99.99 0 00-1 .988v5.93c0 .543.445.988 1 .988h3.5v.988h-1v.988h4v-.988h-1v-.988h1v-.988H5v-5.93h9v2.47h1v-2.47A.994.994 0 0014 5zM9.985 8.459L9.5 6.976 9.015 8.46H7.5l1.235.87-.47 1.437 1.235-.89 1.235.89-.47-1.438 1.235-.87H9.985z" fill="#263D5C"/></g></svg>