<svg width="20" height="20" viewBox="0 0 20 20" xmlns="http://www.w3.org/2000/svg"><g fill="#0091E2" fill-rule="nonzero"><path d="M13.725 14.24a.08.08 0 00.067-.082c0-.034-.009-.058-.033-.075a.265.265 0 00-.117-.025c-.041 0-.09 0-.132.008v.34h.074v-.132h.034c.041 0 .066.016.074.05l.025.082h.083a.16.16 0 01-.025-.082c.008-.034-.016-.067-.05-.083m-.1-.025h-.04v-.1h.04c.05 0 .075.025.075.05.009.033-.033.058-.074.05"/><path d="M14.916 6.98l.2.117c.032.026.852.503.994 1.49a3.61 3.61 0 01.587-.052c.748 0 1.097.265 1.135.297l.136.097-.058.168a1.718 1.718 0 01-.413.606c-.271.271-.762.587-1.555.587h-.13c-.315.813-.747 1.73-1.477 2.549-.432.49-.941.91-1.51 1.238a7.003 7.003 0 01-2.219.807 9.38 9.38 0 01-1.696.155c-1.258 0-2.375-.239-3.058-.658-.607-.375-1.078-.987-1.394-1.813a6.528 6.528 0 01-.4-2.355c0-.239.194-.432.432-.432h9.162c.116-.007.67-.052 1.013-.246-.284-.451-.368-.98-.233-1.541.071-.29.194-.575.355-.826l.13-.187zm-1.228 6.949c.191 0 .349.15.349.348 0 .183-.15.34-.34.34a.343.343 0 11-.008-.688zm-.024.075a.27.27 0 10.025.54v-.001c.149 0 .265-.125.257-.266v-.016a.27.27 0 00-.282-.257zM6.568 8.2l.044.009a.11.11 0 01.065.1v1.097l-.009.045a.11.11 0 01-.1.065H5.342c-.058 0-.103-.045-.11-.11V8.31l.01-.045a.11.11 0 01.1-.065h1.226zm1.69 0l.044.009a.11.11 0 01.066.1v1.097l-.01.045a.11.11 0 01-.1.065H7.032c-.058 0-.103-.045-.11-.11V8.31c0-.065.052-.11.11-.11h1.226zm1.723 0l.044.009a.11.11 0 01.065.1v1.097l-.009.045a.11.11 0 01-.1.065H8.755a.105.105 0 01-.11-.11V8.31l.01-.045a.11.11 0 01.1-.065H9.98zm1.696 0l.045.009a.11.11 0 01.065.1v1.097c0 .065-.052.11-.11.11h-1.225a.109.109 0 01-.11-.11V8.31l.009-.045a.11.11 0 01.1-.065h1.226zM8.258 6.632l.044.01a.11.11 0 01.066.1v1.097c0 .058-.052.11-.11.11H7.032c-.058 0-.103-.052-.11-.11V6.742c0-.065.052-.11.11-.11h1.226zm1.723 0l.044.01a.11.11 0 01.065.1v1.097c0 .058-.051.11-.11.11H8.756a.109.109 0 01-.11-.11V6.742l.01-.044a.11.11 0 01.1-.066H9.98zm1.696 0c.058 0 .11.052.11.11v1.097c0 .058-.052.11-.11.11h-1.225a.113.113 0 01-.11-.11V6.742l.009-.044a.11.11 0 01.1-.066zm1.71 1.568l.044.009a.11.11 0 01.066.1v1.097c0 .065-.052.11-.11.11h-1.226c-.058 0-.103-.045-.11-.11V8.31l.01-.045a.11.11 0 01.1-.065h1.226zm-1.71-3.142c.058 0 .11.052.11.11v1.097c0 .064-.052.11-.11.11h-1.225a.113.113 0 01-.11-.11V5.168l.009-.045a.11.11 0 01.1-.065z"/></g></svg>