<svg width="20" height="20" viewBox="0 0 20 20" xmlns="http://www.w3.org/2000/svg"><path d="M13.784 15.264h-.462v-.063a48.594 48.594 0 00-.161-.987l.399-1.764h-.756c-.075-.35-.154-.69-.238-1.022L13 10h-.826a25.656 25.656 0 00-.35-1.141l.406-.854h-.7c-.168-.49-.343-.945-.504-1.365l.308-.875-.637.035c-.21-.483-.399-.896-.574-1.246l.336-.938h-.833a10.81 10.81 0 00-.231-.392l-2.8 1.267.266.609L8.1 4.4 7.099 5.681v.056l-.161.952h.574l.252.588L9.017 6.5 8.016 7.858l.014.042-.168 1.008h.63l.182.378 1.274-.574L9.024 10 8.8 11.099h.756l.224.399 1.12-.644-.847 1.064-.147.966.791.091.294.455.616-.343-.371.7v.042l-.126.91h.756l.301.406.476-.343-.294.588c.343.448.7.91 1.099 1.4a48.977 48.977 0 00-.119-.959l.455-.567z" fill="#7D7D7E" fill-rule="nonzero"/></svg>