<svg width="20" height="20" viewBox="0 0 20 20" xmlns="http://www.w3.org/2000/svg"><g fill="none" fill-rule="evenodd"><rect fill="#263D5C" width="20" height="20" rx="4"/><path d="M15.5 9.452L13 9.447c-.275 0-.5.222-.5.494v4.447c0 .272.225.494.5.494h2.5c.275 0 .5-.222.5-.494V9.941a.494.494 0 00-.5-.489zm0 4.442H13v-3.459h2.5v3.46zM14 5H5a.99.99 0 00-1 .988v5.93c0 .543.445.988 1 .988h3.5v.988h-1v.988h4v-.988h-1v-.988h1v-.988H5v-5.93h9v2.47h1v-2.47A.994.994 0 0014 5zM9.985 8.459L9.5 6.976 9.015 8.46H7.5l1.235.87-.47 1.437 1.235-.89 1.235.89-.47-1.438 1.235-.87H9.985z" fill="#FFF"/></g></svg>