<svg width="20" height="20" viewBox="0 0 20 20" xmlns="http://www.w3.org/2000/svg"><g fill="none" fill-rule="evenodd"><rect fill="#263D5C" width="20" height="20" rx="4"/><path d="M10 4.4c.101 0 .202.02.296.054l4.739 1.723a.86.86 0 01.565.808v5.169a.856.856 0 01-.451.754l-4.738 2.584A.814.814 0 0110 15.6a.814.814 0 01-.41-.108L4.85 12.908a.856.856 0 01-.451-.754v-5.17a.86.86 0 01.565-.807l4.739-1.723A.887.887 0 0110 4.4zm4.738 3.473l-4.307 1.568v5.062l4.307-2.35v-4.28zM10 5.262l-4.698 1.71L10 8.68l4.698-1.71L10 5.261z" fill="#FFF"/></g></svg>