<svg width="20" height="20" viewBox="0 0 20 20" xmlns="http://www.w3.org/2000/svg"><path d="M16.764 10.56c-.154-.259-.28-.385-.4-.385-.144.04-.285.095-.42.161-.142.08-.3.13-.461.147.04-.196.04-.399 0-.595-.105-.231-.231-.469-.343-.7l-.098-.189a.7.7 0 01-.035-.091 1.344 1.344 0 00-.26-.49l-.223-.203a.259.259 0 010-.042 1.582 1.582 0 010-.182V7.9c.07-.393.18-.778.329-1.148l.042-.112.049-.098A.315.315 0 0015 6.374a.973.973 0 00-.154-.413l-.07-.14a5.691 5.691 0 00-.364-.644 2.842 2.842 0 00-1.176-1.127 2.758 2.758 0 00-.96-.091c-.223.033-.439.107-.636.217a2.863 2.863 0 00-.378.308c-.1.097-.208.186-.322.266a6.3 6.3 0 01-.777-.455l-.056-.035a16.65 16.65 0 00-1.12-.56A6.538 6.538 0 006.404 3a3.556 3.556 0 00-.61.511c-.118.119-.216.238-.314.35-.163.205-.348.39-.553.553a.882.882 0 01-.47.154h-.07c-.1.013-.2.013-.3 0-.187-.098-.371-.037-.553.182a4.718 4.718 0 00-.511 1.078 2.191 2.191 0 00.798 2.023c.347.294.635.653.847 1.057.08.161.15.327.21.497a5.5 5.5 0 00.126.329c.035.07.049.077.147.098.178.032.358.05.539.056h.833c.196-.03.39-.075.58-.133.14-.036.279-.08.414-.133a.539.539 0 00-.133.126 3.577 3.577 0 00-.63 2.597v.07c.054.48.17.95.343 1.4.107.28.245.548.413.798l.14.175c.407.471.898.863 1.449 1.155.46.25.952.437 1.463.553h.266c.196 0 .391-.027.58-.077.7-.224 2.234-.749 2.248-.756-.647.056-1.297.073-1.946.049h-.063a.546.546 0 01-.315-.105.336.336 0 01-.042-.091h.077c.133-.05.271-.085.413-.105a.035.035 0 000-.035c-.476-.049-.476-.049-.504-.126a5.737 5.737 0 00-.203-.455c.44 0 .7 0 .84-.14a.035.035 0 000-.056c-.18.018-.36.018-.54 0a1.575 1.575 0 01-.265-.077l-.126-.042h-.084l-.042-.098a1.743 1.743 0 01-.07-.168 1.631 1.631 0 01-.077-.448 1.4 1.4 0 00.609.399c.194.082.409.104.616.063h.056a.035.035 0 000-.056.546.546 0 01-.21 0 1.323 1.323 0 01-.644-.462l-.042-.049-.217-.329c.056-.105.084-.105.16-.112h.113c.148.026.3.026.448 0l.063.147a.91.91 0 00.35.49c.868.259 1.092-.063 1.295-.35.707.54 1.687.54 2.394 0a4.851 4.851 0 001.064-2.947zm-2.317-1.967v-.098a.154.154 0 010 .056c.078.241.177.475.294.7h-.161a.035.035 0 000 .042l.23.063c.127.259.246.476.26.497.07.138.1.294.084.448v.077c-.042-.175-.245-.175-.406-.175h-.168a.035.035 0 000 .042.238.238 0 00.077.042h.056a.259.259 0 00-.133.224v.042h-.056a.035.035 0 000 .035l.112.042.343.133h.035l-.05.133h-.055v-.056c-.2-.072-.412-.1-.623-.084-.11.116-.21.242-.294.378l-.112.077a.035.035 0 00.049 0l.133-.119a.7.7 0 01.308-.21h.126a3.318 3.318 0 00-.28.427l-.12.203a1.82 1.82 0 00.155-.196c.096-.148.226-.273.378-.364a.63.63 0 01.245 0c-.028.077-.061.151-.098.224l-.042.091a1.869 1.869 0 01-.21.343l-.12.168c.094-.12.195-.235.302-.343.035-.035.077-.077.175-.196.09-.21.182-.448.28-.7a.035.035 0 000 .042.546.546 0 00.427.217h.16a.875.875 0 00.449-.245l.07-.07-.315.154c-.378.119-.483.07-.595 0l-.091-.042h.378a.819.819 0 00.315-.133.483.483 0 01.266-.098.091.091 0 01.077 0c.059.087.09.189.09.294-.045.425-.156.84-.328 1.232-.357.7-.777 1.351-1.358 1.442a1.722 1.722 0 01-1.281-.28l-.19-.105a3.584 3.584 0 01-.79-.798 1.526 1.526 0 01-.357.651l-.091.119c-.05.077-.05.168.09.371a.868.868 0 01-.3-.42l-.084-.161a3.78 3.78 0 00-.203-.357.945.945 0 01-.217-1.4c-.434-.112-.973-.336-1.043-.609a3.843 3.843 0 01.063-1.771h-.063c-.57.11-1.134.252-1.687.427a6.111 6.111 0 00-.868.322l-.357.112c-.217.07-.448.14-.7.21-.14.018-.281.018-.42 0a5.082 5.082 0 00-.61 0h-.356a2.261 2.261 0 01-.245-.581 2.163 2.163 0 00-.217-.574 3.234 3.234 0 00-.336-.371l-.056-.056a3.297 3.297 0 01-1.008-1.4V6.57a1.575 1.575 0 01-.042-.623c.1-.389.297-.745.574-1.036.29.003.58.029.868.077h.049c.19.026.378.07.56.133.63.231 1.47.623 1.477.63a.035.035 0 000-.049l-.434-.245a5.831 5.831 0 00-1.302-.651.112.112 0 01-.084-.042c.325-.204.602-.477.812-.798.117-.162.248-.315.392-.455h.077a1.05 1.05 0 01.357-.112A8.82 8.82 0 019.75 4.498l.294.161.413.217.483.252c.445.23.844.541 1.176.917.209.465.384.945.525 1.435.042.24.108.474.196.7a.042.042 0 00.042 0 .035.035 0 000-.042 4.2 4.2 0 01-.05-.427c.12.045.245.071.372.077-.112-.056-.4-.231-.441-.371-.084-.301-.175-.7-.238-.994a2.8 2.8 0 00-.147-.581 5.264 5.264 0 00-1.008-.777 1.267 1.267 0 01-.168-.154l.049-.049c.087-.095.18-.184.28-.266l.063-.049c.089-.08.19-.143.3-.189.306-.147.661-.147.967 0 .098.042.168.07.217 0a.035.035 0 000-.049l-.05-.056h.113l.119.035a6.216 6.216 0 011.323 1.708.7.7 0 01.084.504 3.78 3.78 0 01-.126.49 7 7 0 00-.294.882c-.014.296.04.59.16.861.05-.063.05-.105.05-.14h-.007zm-1.953 4.9l-.098-.07a.7.7 0 00.315 0 .224.224 0 00.147-.126c.03-.08.08-.15.147-.203l.09.119c-.161.17-.376.278-.608.308a.035.035 0 00-.007-.014l.014-.014zm-2.1 0a1.862 1.862 0 00-.105.581c-1.89-.406-2.443-.896-2.968-1.4-.112-.105-.238-.203-.364-.308a4.249 4.249 0 010-1.26 4.662 4.662 0 003.423 2.401l.014-.014zm-1.52-1.4a3.094 3.094 0 01-1.217-2.331l.049-.042c.266-.179.562-.307.875-.378.33 1.088.8 2.128 1.4 3.094l.09.119c.128.194.304.35.512.455l-.063.147a12.131 12.131 0 01-1.673-1.085l.028.021zm1.59 2.702h.063c.084.147.189.308.315.504a4.9 4.9 0 01-2.99-.518l-.07-.07a3.78 3.78 0 01-.49-.903c.956.569 2.034.9 3.144.966l.028.021zm.616.938l.058.097.068.092c.105.14.14.245.098.315-.042.07-.623.133-.91.084a3.451 3.451 0 01-1.022-.371l.168.021a3.843 3.843 0 001.54-.238zm1.358-5.53c.34-.27.79-.353 1.204-.224a.035.035 0 110 .07l-.147.042a.84.84 0 01.056.287l.266.133h-.273a2.016 2.016 0 00-.917.217l-.01-.016a.035.035 0 01.01-.033l.154-.126a.994.994 0 01-.042-.308h-.266a.042.042 0 01-.035 0 .035.035 0 010-.042zm.35-1.15c.174-.015.35-.008.525.023a.035.035 0 010 .035.966.966 0 00-.833.385l.02-.049v-.098a.7.7 0 01.113-.273zm-3.784-2.83l.018.004h.49a5.67 5.67 0 011.519.147c.272.312.469.684.574 1.085.056.161.112.315.175.448.009.012.009.03 0 .042h-.063a1.568 1.568 0 01-.287-.392 1.337 1.337 0 00-.497-.567l-.266-.042a1.337 1.337 0 00-.602 0l.147-.077c.104-.062.214-.114.329-.154a.7.7 0 01.273 0h.056a3.577 3.577 0 00-1.148-.28 7.462 7.462 0 01-.742-.126.042.042 0 01.007-.084.035.035 0 01.035 0zm4.036-1.445l.17.178c.218.245.396.522.53.823.02.126.049.259.02.322.045.182.078.367.099.553a.035.035 0 010 .035l-.062-.209c-.08-.266-.154-.487-.232-.694a1.883 1.883 0 00-.357-.525 1.309 1.309 0 01-.168-.483z" fill="#414042" fill-rule="nonzero"/></svg>