<svg width="20" height="20" viewBox="0 0 20 20" xmlns="http://www.w3.org/2000/svg"><g fill-rule="nonzero" fill="none"><path d="M7.802 14.8H5.45a.133.133 0 01-.105-.042 5.817 5.817 0 01-1.155-1.659 5.257 5.257 0 01-.441-1.4 4.97 4.97 0 01-.063-.7v-.203c.006-.315.036-.628.091-.938a5.362 5.362 0 011.246-2.576A6.3 6.3 0 016.584 5.98c.35-.208.718-.383 1.099-.525a.07.07 0 01.056 0 6.391 6.391 0 00-1.596 2.863.063.063 0 00.049 0H10v-.063-1.4-1.757c0-.084 0-.07.07-.07h.476c.235.002.469.023.7.063.312.046.621.114.924.203v9.373c0 .077 0 .07-.07.07H10c-.077 0-.07 0-.07-.07v-2.835c0-.077 0-.07-.07-.07H6.143c.132.574.346 1.126.637 1.638.282.509.628.98 1.029 1.4h-.007z" fill="#2C88C5"/><path d="M12.954 5.574l.266.126a5.873 5.873 0 012.317 2.205 5.495 5.495 0 01.714 1.995c0 .147.042.294.056.448.017.247.017.495 0 .742-.011.247-.04.492-.084.735a5.789 5.789 0 01-1.239 2.688l-.21.245a.056.056 0 01-.049 0H13.5a.091.091 0 01-.049 0c.223-.21.393-.468.497-.756.087-.226.148-.46.182-.7v-.287-.294a3.773 3.773 0 00-.063-.609 3.136 3.136 0 00-.175-.616 1.981 1.981 0 00-.385-.623 1.008 1.008 0 00-.497-.308h-.084v-.042-4.809a.147.147 0 01.028-.14zm1.085 2.618l-.042.042a.266.266 0 01-.364 0 .329.329 0 01-.133-.301.259.259 0 01.105-.133c0 .07 0 .133.091.154a.105.105 0 00.126 0 .154.154 0 000-.21c.077.003.15.036.203.091a.371.371 0 00-.105-.14.413.413 0 00-.609.042.525.525 0 00-.119.357c0 .144.06.282.168.378.08.073.186.111.294.105a.413.413 0 00.266-.119.469.469 0 00.119-.273v.007z" fill="#AE90C0"/></g></svg>