<svg width="20" height="20" viewBox="0 0 20 20" xmlns="http://www.w3.org/2000/svg" xmlns:xlink="http://www.w3.org/1999/xlink"><defs><path d="M10.005 2.5L3 14.4h14L10.005 2.5zM8.403 12.977V8.44l.142-.627 4.005 2.269.486.438-4.004 2.268-.629.19zm.203-5.432l.193-.856 2.858 2.587-3.05-1.731zm-.466 5.512l-.852.258.852-3.72v3.462zm5.11-2.358l.658.587-3.72 1.144 3.061-1.731zM8.93 6.36l.274-.717 3.244 3.89L8.93 6.362zm-1.986 7.024l-.77.13 1.814-4.717-1.044 4.587zm7.197-1.83l.487.586-5.059.816 4.572-1.403zM9.316 5.166l.284-.578 3.467 5.075-3.751-4.497zm-3.62 8.487l-.648.04L7.795 8.21l-2.098 5.443zm9.297-1.174l.365.527-6.215.408 5.85-.935zm-1.5-3.005L9.74 3.983l.264-.448 3.487 5.94zM7.41 7.943l-2.97 5.94h-.528l3.498-5.94zm1.683 5.94l6.731-.448.264.448H9.093z" id="iTrWJla"/></defs><use fill="#FFD800" fill-rule="nonzero" xlink:href="#iTrWJla"/></svg>