<svg width="20" height="20" viewBox="0 0 20 20" xmlns="http://www.w3.org/2000/svg"><g fill-rule="nonzero" fill="none"><path d="M10.182 14.187a1.59 1.59 0 01-.306.637c.261.311.166 1.336.217 1.495.05.16.324.146.324.146.01-.583.087-1.164.23-1.73a1.196 1.196 0 01-.465-.548z" fill="#A2A17D"/><path d="M9.654 14.607c.264-.388.392-.854.362-1.323 0-.637.039-2.603.039-4.684 0-1.91-.039-3.595-.064-5.09a8.954 8.954 0 00-2.304 3.245 6.796 6.796 0 001.91 7.846s.031 0 .057.006z" fill="#45AA4B"/><path d="M12.727 7.187c-.77-2.227-1.642-2.462-2.386-3.633h-.038c0 1.024.044 3.035.05 4.982v4.996c-.043.425.19.83.58 1.005a5.2 5.2 0 001.52-1.909 6.364 6.364 0 00.274-5.44z" fill="#228C44"/></g></svg>