<svg width="20" height="20" viewBox="0 0 20 20" xmlns="http://www.w3.org/2000/svg"><g fill="none" fill-rule="evenodd" stroke-linecap="round" stroke-linejoin="round"><path d="M9.745 16.495a4.637 4.637 0 01-4.639-4.64c0-2.204 1.728-4.32 2.91-5.864a17.281 17.281 0 001.681-2.645.054.054 0 01.096 0c.48.93 1.043 1.816 1.682 2.645 1.181 1.543 2.91 3.656 2.91 5.863h-2.831a.11.11 0 00-.11.109v1.59h-1.59a.11.11 0 00-.109.11v2.832zm1.817-1.126v-1.513h-1.406a.11.11 0 00-.109.109v1.405l1.515-.001zm-1.52 1.509a4.518 4.518 0 001.516-.292v-.763H10.15a.11.11 0 00-.109.109v.946zm3.215-3.21v-1.514h-1.405a.11.11 0 00-.11.109v1.405h1.515zm.182 1.883l.002-.001a.316.316 0 00.09-.225v-1.197h-1.515v1.514h1.197a.318.318 0 00.226-.09zm-1.32 1.344a4.552 4.552 0 001.12-.69h-1.12v.69zm2.36-3.226c.182-.485.282-.997.295-1.515h-1.056v1.515h.76zm-.386 1.682c.283-.338.514-.715.688-1.12h-.688v1.12z" fill="#728E9B"/><path d="M8.724 5.565l-.256.36-.838 1.107c.112.016.223.033.33.051l.696-1.177.186-.335c.049-.087-.065-.08-.118-.004v-.002zM7.618 7.666l.125-.216-.382-.068c-.397.532-.76 1.089-1.086 1.667-.583 1.057-.988 2.239-.802 3.459a4.328 4.328 0 001.972 2.997c.024.015.055.01.073-.013a.056.056 0 00-.005-.074 4.65 4.65 0 01-1.255-2.116c-.346-1.28-.06-2.592.436-3.793.267-.634.574-1.25.919-1.846l.005.003z" fill="#B9C6CD"/><g><path d="M9.638 16.388A4.637 4.637 0 015 11.75c0-2.205 1.728-4.32 2.91-5.865A17.281 17.281 0 009.591 3.24a.054.054 0 01.096 0c.48.93 1.043 1.816 1.682 2.645 1.181 1.543 2.91 3.656 2.91 5.863h-2.831a.11.11 0 00-.11.109v1.59h-1.59a.11.11 0 00-.109.11v2.832zm1.818-1.125V13.75H10.05a.11.11 0 00-.109.109v1.405l1.515-.001zm-1.52 1.509a4.518 4.518 0 001.515-.292v-.763h-1.406a.11.11 0 00-.109.109v.946zm3.215-3.21v-1.514h-1.406a.11.11 0 00-.109.109v1.405h1.515zm.182 1.883l.001-.002a.316.316 0 00.091-.224v-1.197H11.91v1.514h1.197a.318.318 0 00.226-.09zm-1.32 1.344a4.552 4.552 0 001.12-.69h-1.12v.69zm2.36-3.226c.182-.485.282-.997.295-1.515h-1.056v1.515h.76zm-.386 1.682c.282-.338.514-.715.688-1.12h-.688v1.12z" fill="#728E9B"/><path d="M8.618 5.458l-.257.361-.837 1.107c.112.016.222.033.33.051L8.55 5.8l.186-.335c.049-.088-.065-.08-.118-.004v-.003zM7.512 7.56l.125-.216-.382-.068c-.397.532-.76 1.089-1.086 1.667-.584 1.057-.988 2.239-.802 3.459a4.328 4.328 0 001.972 2.997c.024.015.055.01.073-.013a.056.056 0 00-.005-.074 4.65 4.65 0 01-1.255-2.116c-.346-1.28-.06-2.593.436-3.793.267-.634.574-1.25.919-1.846l.005.003z" fill="#B9C6CD"/></g></g></svg>