<svg width="20" height="20" viewBox="0 0 14 14" xmlns="http://www.w3.org/2000/svg"><g fill-rule="evenodd" clip-rule="evenodd"><path fill="#CCC" d="M2.644 1.535a3.884 3.884 0 00.045.852c.007.051.015.101.033.19a52.113 52.113 0 01.031.157l.014.059a4.042 4.042 0 00.08.303l.02.068a5.479 5.479 0 00.175.49 2.416 2.416 0 00.079.188c0 .003.014.032.083.177a6.067 6.067 0 00.27.509 8.186 8.186 0 00.244.385.328.328 0 00.039.053 2.168 2.168 0 00.124.178c.01.014.023.006.04-.029a.463.463 0 01.04-.07.42.42 0 01.033-.054 2.83 2.83 0 01.252-.347 3.187 3.187 0 01.49-.474c0-.002.005-.005.01-.005.004 0 .008-.002.008-.004s.01-.01.024-.019c.012-.008.023-.016.023-.019 0-.002.004-.004.008-.004.005 0 .01-.002.01-.005a.247.247 0 01.037-.027.248.248 0 00.037-.028c.001-.003.005-.005.008-.005s.02-.01.04-.023a.185.185 0 01.04-.023c.004 0 .006-.003.006-.006s.003-.006.006-.006.022-.01.043-.022l.064-.036c.04-.021.039-.022-.088-.076a4.686 4.686 0 01-.588-.304 4.193 4.193 0 01-.283-.194.125.125 0 00-.034-.022c-.003 0-.006-.003-.006-.006s-.009-.01-.02-.017a.275.275 0 01-.034-.026 1.482 1.482 0 01-.124-.102l-.055-.048a4.535 4.535 0 01-.718-.803 10.01 10.01 0 01-.158-.24.166.166 0 01-.015-.027c-.002-.006-.006-.01-.009-.01-.002 0-.005-.003-.005-.006A.418.418 0 002.933 2a1.499 1.499 0 01-.067-.119 5.09 5.09 0 01-.171-.357.048.048 0 00-.005-.015.256.256 0 01-.024-.063c0-.005-.004-.009-.008-.009-.006 0-.01.025-.014.098zm9.466 1.11l-.117.007a2.672 2.672 0 00-.248.024 3.242 3.242 0 00-.303.047 2.856 2.856 0 00-.257.055 1.671 1.671 0 00-.148.038 1.852 1.852 0 00-.172.05 2.806 2.806 0 00-.123.038 8.305 8.305 0 01-.246.086.423.423 0 01-.034.015 1.363 1.363 0 00-.141.056.2.2 0 00-.042.015l-.088.04a5.964 5.964 0 00-.534.264 6.476 6.476 0 00-.5.303l-.188.13a.934.934 0 00-.113.083.476.476 0 00.107.068 3.05 3.05 0 01.667.538c.08.085.097.104.152.172a163.644 163.644 0 00.097.125 1.732 1.732 0 01.13.199c.007.01.015.023.018.03a1.126 1.126 0 01.05.09c.014.024.021.022.034-.01a2.31 2.31 0 01.047-.116l.015-.035c.023-.054.112-.236.146-.298.01-.02.026-.047.034-.061a4.64 4.64 0 01.409-.602.584.584 0 00.027-.032.815.815 0 01.055-.066 4.581 4.581 0 011.706-1.226c.037-.012.02-.017-.08-.024a3.947 3.947 0 00-.36-.004zm-2.033 6.25l-.04.073a4.077 4.077 0 01-.145.213 3.57 3.57 0 01-.182.228 2.91 2.91 0 01-.808.652c-.03.017-.035.026-.017.031a4.046 4.046 0 01.62.302.825.825 0 00.085.05c0 .003.01.01.022.016a.185.185 0 01.025.015c.001.002.029.02.06.042.076.05.105.07.108.076 0 .003.006.005.01.005.005 0 .008.002.008.004 0 .003.008.01.018.015l.024.017a.918.918 0 00.043.034c.02.014.036.028.037.03 0 .003.006.005.01.005.005 0 .008.002.008.005 0 .002.012.013.026.023.015.01.03.022.034.026a1.602 1.602 0 00.084.072l.03.025a4.487 4.487 0 01.726.817c.05.072.084.124.147.224l.031.05.013.023a.588.588 0 00.02.035.53.53 0 01.024.04l.026.047a7.475 7.475 0 01.163.332l.036.087c.033.085.035.076.039-.205a3.43 3.43 0 00-.037-.62l-.014-.102a3.327 3.327 0 00-.032-.181l-.015-.076a5.6 5.6 0 00-.344-1.08.812.812 0 00-.025-.062l-.025-.056a8.554 8.554 0 00-.27-.534 10.376 10.376 0 00-.17-.287l-.061-.098a1.055 1.055 0 00-.044-.065 5.973 5.973 0 01-.176-.253.425.425 0 01-.022-.031c-.014-.022-.02-.017-.05.037zm-6.191.016a2.367 2.367 0 01-.044.104 3.983 3.983 0 01-.273.525 3.102 3.102 0 01-.168.252c0 .005-.064.093-.076.105a1.079 1.079 0 00-.029.038.682.682 0 01-.058.073 4.626 4.626 0 01-.797.76c-.005 0-.009.002-.009.005s-.007.01-.016.014a4.507 4.507 0 01-.286.193.1.1 0 01-.026.018 4.986 4.986 0 01-.6.31.32.32 0 01-.041.015c-.052.014-.034.02.09.028a4.104 4.104 0 001.01-.076 2.98 2.98 0 00.22-.047l.087-.021.096-.025c.06-.016.132-.036.21-.06a7.662 7.662 0 00.414-.147l.152-.061.04-.018.104-.046a6.741 6.741 0 001.142-.66l.072-.051c.054-.036.056-.041.014-.063a.71.71 0 01-.13-.077 2.233 2.233 0 01-.229-.162c0-.002-.005-.005-.01-.005-.004 0-.008-.002-.01-.004a.19.19 0 00-.028-.025.363.363 0 01-.029-.024 2.14 2.14 0 01-.14-.121 2.608 2.608 0 00-.07-.065 4.257 4.257 0 01-.287-.32 2.983 2.983 0 01-.247-.38c-.022-.04-.026-.039-.048.018z"/><path fill="#F4643B" d="M7.857.005c0 .003-.01.013-.024.023a1.323 1.323 0 00-.197.193.837.837 0 00-.146.146 2.982 2.982 0 01-.037.04c-.01.01-.015.021-.013.025.002.003 0 .006-.004.006a.189.189 0 00-.046.045.699.699 0 01-.044.054c.002 0-.005.01-.016.022a.099.099 0 00-.02.026 2.354 2.354 0 00-.172.238c-.016.016-.02.028-.009.02.004-.002.005-.001.003.003a.016.016 0 01-.013.007.009.009 0 00-.008.009c0 .005-.003.008-.005.008a.198.198 0 00-.034.046 1.198 1.198 0 01-.054.086c0 .003-.004.009-.009.014a.05.05 0 00-.01.018.055.055 0 01-.012.019c-.006.006-.009.014-.007.017.003.004.002.005-.002.003-.006-.004-.017.017-.014.028.001.003 0 .004-.002.002-.006-.006-.027.03-.022.037.002.004 0 .005-.002.003-.006-.003-.018.015-.018.028a.992.992 0 00-.076.127c-.01.018-.017.034-.015.036.002.002.001.004-.002.004a.211.211 0 00-.043.079c0 .004-.002.009-.005.009s-.008.007-.012.016a.178.178 0 01-.012.024.216.216 0 00-.031.078c.002.003 0 .004-.003.002-.006-.004-.008 0-.006.012a.332.332 0 00-.042.084.025.025 0 01-.006.011c-.009.007-.029.06-.025.066.002.004.001.005-.003.002-.003-.002-.007-.001-.007.002-.002.012-.003.015-.011.03a.323.323 0 00-.026.063c0 .004-.004.01-.008.014s-.007.01-.007.013c0 .003-.007.02-.014.035a.18.18 0 00-.015.036.293.293 0 01-.018.046.245.245 0 00-.018.056c-.001.009-.003.015-.005.014-.006-.003-.025.048-.02.055.001.003 0 .006-.003.008a.185.185 0 00-.024.051c-.026.073-.029.083-.025.09.002.003 0 .004-.003.001-.005-.003-.017.033-.014.045.001.002 0 .004-.003.004-.005 0-.013.023-.022.058l-.026.077a.528.528 0 00-.029.102c-.003.002-.004.007-.002.012s0 .008-.003.008c-.004 0-.007.006-.007.012a.057.057 0 01-.005.023.11.11 0 00-.009.026 2.362 2.362 0 00-.06.231l-.003.027c0 .006-.004.013-.007.015-.002.002-.005.011-.006.02 0 .01-.005.029-.008.042a.128.128 0 00-.006.032.057.057 0 01-.005.023.314.314 0 00-.013.047 6.112 6.112 0 01-.02.097c-.01.044-.012.066-.007.066.004 0 .005 0 0 .004-.009.006-.022.063-.018.078.001.006 0 .012-.002.014-.003.002-.004.01-.003.017 0 .008 0 .013-.004.012-.002-.002-.005.003-.006.011a.364.364 0 01-.01.077c-.015.064-.01.115.008.086.001-.003.01-.005.021-.006.01-.001.022-.004.025-.006a.056.056 0 01.019-.005.341.341 0 00.038-.01.401.401 0 01.05-.013.219.219 0 00.037-.01.175.175 0 01.04-.007c.015-.001.028-.004.029-.007 0-.003.007-.005.015-.003a.1.1 0 00.036-.004.355.355 0 01.052-.01 3.61 3.61 0 01.668-.037c.024.003.071.006.105.008a1.05 1.05 0 01.219.026.917.917 0 01.122.024l.057.012c.012.004.025.004.029.002s.005-.001.002.003c-.002.004 0 .006.01.006.007 0 .023.004.036.009.042.014.12.034.123.03a.48.48 0 00-.03-.08 2.298 2.298 0 01-.07-.18 1.122 1.122 0 00-.035-.096c-.001-.007-.005-.014-.008-.015-.003 0-.004-.004-.002-.007a.257.257 0 00-.025-.087.302.302 0 01-.011-.04c-.002-.01-.006-.018-.008-.018s-.004-.009-.004-.019-.003-.02-.006-.022c-.003-.002-.006-.012-.007-.023a.223.223 0 00-.01-.043.152.152 0 01-.009-.031.093.093 0 00-.006-.024.144.144 0 01-.008-.031.289.289 0 00-.022-.088c-.003 0-.004-.002-.002-.005s0-.014-.003-.025a.324.324 0 01-.008-.04 1.722 1.722 0 00-.017-.1 2.847 2.847 0 01-.045-.318 4.973 4.973 0 01.012-.999c.019-.123.025-.162.033-.201a.681.681 0 00.01-.066c0-.013.003-.024.005-.026.003-.001.005-.01.005-.02s.004-.032.009-.05a.138.138 0 00.007-.046C7.62.795 7.622.79 7.624.792a.431.431 0 00.027-.103l.01-.042L7.68.58c.018-.07.021-.081.03-.106.005-.013.007-.028.005-.033-.001-.004 0-.009.003-.01a.16.16 0 00.02-.048 2.752 2.752 0 01.097-.27.311.311 0 01.032-.079C7.881.017 7.882 0 7.87 0c-.007 0-.013.002-.013.005zm2.649 6.113c0 .015.012.051.017.051.003 0 .005.006.003.012a.088.088 0 00.006.035.29.29 0 01.01.04 3.345 3.345 0 00.034.159l.01.043a.104.104 0 01.004.026l.006.05a2.519 2.519 0 01.033.34c.006.1.004.251-.006.341a.847.847 0 00-.006.083.152.152 0 01-.003.04 1.046 1.046 0 00-.017.136c0 .008-.001.016-.004.016-.002 0-.005.012-.007.027a.915.915 0 01-.016.084.58.58 0 00-.014.074c0 .01-.002.02-.005.02a.243.243 0 00-.018.074c0 .004-.002.007-.005.007s-.005.007-.003.015c.001.008 0 .014-.002.014-.003 0-.005.002-.004.005a.094.094 0 01-.007.026c-.004.012-.006.024-.004.026.006.006.068-.023.064-.03-.002-.003-.001-.004.003-.001a.365.365 0 00.087-.028l.093-.036c.007-.002.013-.006.013-.009 0-.003.005-.003.01-.001.006.002.008.001.006-.003-.002-.003 0-.006.006-.005.017 0 .06-.014.06-.02 0-.004.002-.005.005-.003a.202.202 0 00.057-.013 3.961 3.961 0 01.301-.086c.012-.002.022-.005.022-.008 0-.002.01-.004.024-.005.013 0 .026-.003.028-.005.002-.003.015-.006.03-.007a.232.232 0 00.048-.01.152.152 0 01.041-.009c.01 0 .028-.003.039-.006.02-.006.063-.013.134-.023l.053-.008.075-.01a.648.648 0 00.076-.01.068.068 0 01.026-.004h.016a.79.79 0 01.084-.006 2.002 2.002 0 01.243-.01.668.668 0 00.161-.006c.006-.005.008-.005.005 0-.003.004.016.006.069.006.04 0 .075.002.077.003a4.36 4.36 0 01.772.11l.046.009a1.672 1.672 0 01.135.035c0-.002.01 0 .024.005.013.005.025.008.027.006.001-.001.012.002.024.007a.526.526 0 00.113.033c.005 0 .01.002.01.004s.007.005.016.007c.009.002.05.015.092.03a1.808 1.808 0 00.104.037c.009.007.075.031.082.03a.46.46 0 00.089.041c.006 0 0-.021-.008-.03a.778.778 0 01-.04-.043.573.573 0 00-.11-.114c.004-.006-.047-.059-.052-.054-.002.002-.004.001-.004-.002 0-.008-.013-.022-.061-.066a3.908 3.908 0 00-.2-.176c-.007-.006-.013-.009-.013-.007a.253.253 0 00-.048-.043 2.031 2.031 0 00-.225-.164c-.008-.013-.044-.036-.05-.033-.003.002-.004.001-.002-.002.004-.005-.049-.042-.06-.042-.002 0-.006-.004-.008-.01-.002-.004-.007-.008-.012-.008-.004 0-.01-.002-.01-.004a.19.19 0 00-.034-.025 9.742 9.742 0 01-.08-.051.34.34 0 00-.054-.03c-.003 0-.006-.003-.006-.006s-.005-.007-.01-.009a.164.164 0 01-.028-.015.924.924 0 00-.299-.16c-.005-.008-.019-.016-.064-.038a44.81 44.81 0 01-.082-.04.235.235 0 00-.048-.022c0 .002-.008-.002-.017-.009a.078.078 0 00-.021-.012.69.69 0 01-.08-.035c-.006-.003-.014-.004-.018-.002-.004.002-.005.002-.003 0 .006-.006-.04-.028-.048-.024-.003.002-.005.001-.005-.001a.221.221 0 00-.07-.032.04.04 0 01-.017-.01.032.032 0 00-.019-.007c-.006 0-.012-.002-.014-.005-.002-.004-.032-.012-.042-.011a.198.198 0 00-.072-.034.477.477 0 01-.044-.017 5.238 5.238 0 00-.435-.146c0-.002 0-.003-.003-.001-.002.002-.017-.002-.033-.007a.886.886 0 00-.054-.017 3.78 3.78 0 01-.119-.034.186.186 0 00-.044-.008c-.01 0-.02-.002-.023-.005a.401.401 0 00-.102-.026c-.012 0-.022-.003-.024-.005a.085.085 0 00-.03-.01 27.68 27.68 0 01-.11-.024.61.61 0 00-.157-.028c0-.002-.006-.005-.013-.006a.818.818 0 01-.057-.01c-.152-.03-.21-.036-.21-.025zM0 6.14c0 .003.008.014.017.023l.017.019c-.01.011.31.33.323.322.004-.003.005-.002.003.002-.004.005.053.06.067.065a.168.168 0 01.03.025c.011.013.024.021.027.02.004-.003.006-.002.005 0-.003.008.06.06.07.06a.526.526 0 00.087.071l.095.072c.02.015.063.045.066.045.002 0 .01.006.019.014s.019.015.023.015.008.002.01.004c.002.005.037.03.042.03a.935.935 0 00.064.042l.077.05c.017.011.033.02.037.02.003 0 .006.002.006.004 0 .003.005.007.011.01a12.73 12.73 0 01.233.133c.001.003.007.005.013.005a3.41 3.41 0 00.338.166l.06.029c.032.015.06.025.063.024.003-.002.005-.001.005.002a.18.18 0 00.078.03c.002 0 .004.002.004.005 0 .007.035.02.042.014.004-.002.005 0 .002.003-.002.004 0 .007.003.007.004 0 .015.004.025.008.03.013.055.023.06.022.003 0 .01.004.018.008.007.005.02.01.028.01s.014.003.014.006c0 .004.039.016.05.016l.008.004c.002.003.02.011.042.018l.113.039a1.043 1.043 0 00.108.033c.003.003.053.02.111.036l.044.014.085.023c.033.008.073.02.087.024a.247.247 0 00.044.01c.01 0 .019.002.02.005.005.006.061.018.086.019.01 0 .02.002.02.005s.004.004.01.002c.007-.001.015.001.019.005.004.005.013.009.021.009.008 0 .028.003.045.008a.42.42 0 00.053.011.645.645 0 01.067.015.507.507 0 00.073.013c.016.001.03.004.032.007a.515.515 0 00.112.019c.011 0 .023.002.026.004a.257.257 0 00.066.013.95.95 0 01.048.006c.032.005.032.006.016-.045a.287.287 0 01-.011-.047c0-.006-.003-.01-.007-.01-.003 0-.004-.003-.002-.005.001-.003 0-.013-.002-.022a3.565 3.565 0 00-.028-.119.31.31 0 01-.01-.049.226.226 0 00-.006-.04.719.719 0 01-.012-.071.184.184 0 00-.01-.045.556.556 0 00-.017-.14.236.236 0 01-.003-.057 5.23 5.23 0 00-.005-.159 3.161 3.161 0 01.035-.554c.001-.017.005-.036.029-.141a.997.997 0 00.016-.076l.013-.047.019-.066c.004-.015.006-.03.004-.033-.002-.003 0-.006.003-.006s.006-.004.006-.009c0-.005-.003-.009-.008-.009-.01 0-.063.027-.06.03a.337.337 0 00-.108.04c-.001.004-.005.007-.007.007-.017-.002-.029 0-.038.01-.006.007-.013.01-.014.009-.004-.004-.047.01-.051.017-.002.003-.006.005-.008.005-.015-.002-.021 0-.018.006.003.004.002.005-.002.003-.007-.005-.037.001-.034.007.002.002-.005.004-.015.005-.01 0-.02.003-.022.006-.001.002-.01.005-.018.006a.037.037 0 00-.02.01c-.004.005-.008.007-.01.004-.002-.005-.069.014-.075.022-.001.002-.008.003-.016.003-.007 0-.013.001-.013.004s-.002.004-.005.003a.148.148 0 00-.045.008 3.724 3.724 0 01-.515.11l-.094.012a5.12 5.12 0 00-.073.009 1.49 1.49 0 01-.145.012.695.695 0 00-.074.006.58.58 0 01-.069.003.251.251 0 00-.068.006c-.002.003-.008.005-.013.005-.008 0-.008-.001.002-.006a.857.857 0 00-.155-.006c-.22-.001-.244-.002-.242-.006a.148.148 0 00-.045-.004.41.41 0 01-.102-.009.283.283 0 00-.052-.007 1.516 1.516 0 01-.095-.011 2.657 2.657 0 01-.28-.047 1.782 1.782 0 01-.178-.038.763.763 0 00-.099-.022c-.004-.004-.005-.004-.036-.01a.167.167 0 01-.029-.008.506.506 0 00-.073-.021.649.649 0 01-.122-.04.146.146 0 00-.032-.008.057.057 0 01-.023-.007.268.268 0 00-.074-.026c-.006 0-.011-.003-.011-.005S.21 6.215.203 6.213a1.625 1.625 0 01-.153-.061C.015 6.136 0 6.133 0 6.14zm6.125 4.362c0 .006.002.013.005.016.003.003.011.02.018.038l.019.047.03.071a.12.12 0 01.01.03c0 .005.004.011.008.015.005.004.008.01.006.013-.002.002 0 .012.006.022.005.01.009.023.009.03 0 .006.002.011.006.011.003 0 .005.002.005.005-.002.01.008.042.013.042.003 0 .004.002.004.005-.003.009.019.07.026.073.005.002.005.003 0 .004-.004 0-.002.013.007.04a.514.514 0 01.018.06c.002.01.005.02.007.022.002.002.005.009.006.015.001.013.016.07.025.1.003.01.005.023.005.03 0 .006.002.013.004.015.005.005.005.005.013.053a.125.125 0 00.01.038c.003.002.006.015.008.03a.079.079 0 00.005.03c.002 0 .005.007.005.014a.609.609 0 00.014.085c.003.01.005.029.005.04 0 .01.003.017.006.015.003-.001.004.002.002.007a.106.106 0 00.004.037.217.217 0 01.007.04c0 .009.002.031.005.05.007.046.01.077.011.104 0 .013.002.021.005.02.002-.002.004.01.004.024 0 .04.009.17.013.191.005.028.006.443.001.462-.002.01-.007.062-.01.117a3.482 3.482 0 01-.01.117c-.005.037-.005.046 0 .054.002.004.001.007-.003.007s-.006.001-.004.003 0 .015-.003.03a.538.538 0 00-.007.061.653.653 0 01-.01.076c-.015.07-.025.13-.025.148 0 .01-.002.02-.004.02a.242.242 0 00-.013.078c0 .008-.002.014-.005.013-.004-.003-.01.023-.012.054 0 .01-.003.02-.005.02-.003 0-.005.005-.005.013a.174.174 0 01-.01.041.109.109 0 00-.006.042c.002.008 0 .013-.001.011-.003-.001-.008.01-.012.025a1.955 1.955 0 01-.02.078c-.002.01-.013.05-.028.095a.108.108 0 00-.008.039.32.32 0 00-.034.113c.003.003.001.004-.002.001-.007-.003-.008-.001-.01.022 0 .004-.002.008-.003.01a.186.186 0 00-.014.032.575.575 0 01-.023.062.127.127 0 01-.01.026c-.006.01-.009.02-.007.025.001.004 0 .007-.004.007a.006.006 0 00-.006.006.124.124 0 01-.01.028.096.096 0 00-.013.044c0 .005-.003.009-.006.007-.004-.002-.006-.001-.006.002l-.004.015c-.005.013.013.011.022-.002a.894.894 0 00.178-.168 2.055 2.055 0 00.259-.272.396.396 0 00.05-.06.381.381 0 01.033-.04.118.118 0 00.022-.029c0-.003.006-.011.014-.018.008-.008.015-.017.015-.02 0-.004.002-.007.004-.008a.241.241 0 00.04-.052l.015-.018c.01-.01.017-.022.017-.026 0-.005.002-.008.005-.008a.114.114 0 00.026-.031 6.948 6.948 0 00.209-.323c0-.003.006-.01.01-.016a.21.21 0 00.023-.035l.03-.054a.538.538 0 00.025-.045c.004-.01.009-.016.011-.016.003 0 .005-.003.005-.006s.009-.02.02-.04c.01-.02.018-.037.016-.039-.001-.002 0-.003.004-.003s.007-.003.007-.006.006-.016.013-.028a.199.199 0 00.019-.036.73.73 0 00.067-.137c.002 0 .009-.01.014-.023a7.28 7.28 0 01.023-.05.113.113 0 00.01-.031c0-.002.002-.004.005-.004.004 0 .006-.003.006-.007a.17.17 0 01.015-.036c.008-.016.013-.033.012-.038-.002-.004-.001-.006.002-.005.005.004.024-.035.028-.058 0-.006.004-.012.007-.013.004-.001.006-.005.006-.009 0-.003.005-.017.011-.03a1.305 1.305 0 00.065-.164.214.214 0 00.024-.073c-.002 0 0-.002.003-.004a.172.172 0 00.027-.069c.001-.006.003-.013.006-.015.002-.002.006-.009.007-.015a.103.103 0 01.009-.025c.003-.007.004-.015.002-.019s-.001-.005.002-.003c.004.003.007 0 .006-.006 0-.015.003-.026.012-.036a.021.021 0 00.004-.019c-.002-.006 0-.01.003-.01.004 0 .006-.005.004-.01-.002-.004-.001-.008.002-.008s.006-.005.006-.011c0-.007.003-.02.008-.028a2.326 2.326 0 00.076-.26c-.002-.002 0-.005.002-.005.003 0 .007-.007.008-.016a.915.915 0 01.017-.063.427.427 0 00.014-.061c0-.008.002-.016.004-.018a.267.267 0 00.018-.077c0-.006.002-.01.005-.01s.005-.007.005-.015.003-.02.006-.028a.236.236 0 00.009-.04.237.237 0 01.009-.039c.003-.008.004-.016.003-.017-.001-.002.001-.015.006-.03a.46.46 0 00.011-.05.552.552 0 01.013-.055.135.135 0 00.006-.045c-.002-.008 0-.015.002-.016.003 0 .007-.016.009-.035a.232.232 0 01.008-.054.25.25 0 00.011-.055l.011-.062c.014-.067.014-.09.001-.09-.006 0-.011.002-.011.004 0 .003-.009.005-.019.006a.076.076 0 00-.025.006c-.006.004-.013.006-.038.01a.187.187 0 00-.031.008.107.107 0 01-.031.007c-.008 0-.013.002-.011.005.002.004 0 .005-.006.002-.005-.001-.013 0-.017.004-.005.004-.01.005-.01.003 0-.003-.002-.002-.006.001a.015.015 0 01-.014.004.095.095 0 00-.036.004.496.496 0 01-.054.01.163.163 0 00-.035.007.126.126 0 01-.032.005.78.78 0 00-.07.01.755.755 0 01-.074.01c-.016 0-.028.002-.028.004s-.01.004-.022.004l-.127.006a3.226 3.226 0 01-.632-.024c-.003.002-.007 0-.01-.003-.002-.003-.011-.006-.02-.006a.28.28 0 01-.054-.009.144.144 0 00-.049-.006c-.008.002-.014.001-.014-.002s-.016-.008-.036-.012a.321.321 0 01-.057-.013 3.363 3.363 0 01-.125-.034c-.05-.014-.05-.014-.05 0z"/></g></svg>