<svg width="20" height="20" viewBox="0 0 20 20" xmlns="http://www.w3.org/2000/svg" xmlns:xlink="http://www.w3.org/1999/xlink"><defs><path d="M9.985 3v2.04l-.385.386-2.708 2.708-.16.166c-1.545 1.692-1.492 4.317.16 5.97 1.682 1.706 4.428 1.706 6.135 0 1.707-1.682 1.707-4.429 0-6.136l1.04-1.04a5.798 5.798 0 01.013 8.202c-2.233 2.272-5.904 2.272-8.176 0a5.802 5.802 0 010-8.214L9.985 3zm2.041 2.336a.757.757 0 110 1.515.757.757 0 010-1.515z" id="byqCwoa"/></defs><use fill="#EE4C2C" fill-rule="nonzero" xlink:href="#byqCwoa"/></svg>