<svg width="20" height="20" viewBox="0 0 20 20" xmlns="http://www.w3.org/2000/svg"><path d="M7.818 7.91v6.545c0 .204-.159.363-.363.363h-.728a.359.359 0 01-.363-.363V7.909c0-.204.159-.364.363-.364h.728c.204 0 .363.16.363.364zm2.91 0v6.545c0 .204-.16.363-.364.363h-.728a.359.359 0 01-.363-.363V7.909c0-.204.159-.364.363-.364h.728c.204 0 .363.16.363.364zm2.908 0v6.545c0 .204-.159.363-.363.363h-.728a.359.359 0 01-.363-.363V7.909c0-.204.159-.364.363-.364h.728c.204 0 .363.16.363.364zm1.455 8.226V5.364H4.909v10.772c0 .546.307.864.364.864h9.454c.057 0 .364-.318.364-.864zM7.455 3.91h5.09L12 2.58a.438.438 0 00-.193-.124H8.205a.383.383 0 00-.194.125l-.556 1.33zM18 4.273V5c0 .205-.16.364-.364.364h-1.09v10.772c0 1.25-.819 2.319-1.819 2.319H5.273c-1 0-1.818-1.023-1.818-2.273V5.364H2.364A.359.359 0 012 5v-.727c0-.205.16-.364.364-.364h3.511l.795-1.898C6.898 1.455 7.58 1 8.182 1h3.636c.602 0 1.284.455 1.512 1.011l.795 1.898h3.511c.205 0 .364.16.364.364z" fill="#253C5B" fill-rule="evenodd"/></svg>