<svg width="20" height="20" viewBox="0 0 20 20" xmlns="http://www.w3.org/2000/svg"><path d="M12.364 14.727c0-.602-.489-1.09-1.091-1.09H9.09c-.602 0-1.091.488-1.091 1.09v2.182C8 17.511 8.489 18 9.09 18h2.183c.602 0 1.09-.489 1.09-1.09v-2.183zm0-5.818c0-.602-.489-1.09-1.091-1.09H9.09C8.489 7.818 8 8.306 8 8.908v2.182c0 .602.489 1.09 1.09 1.09h2.183c.602 0 1.09-.488 1.09-1.09V8.909zm0-5.818c0-.602-.489-1.091-1.091-1.091H9.09C8.489 2 8 2.489 8 3.09v2.183c0 .602.489 1.09 1.09 1.09h2.183c.602 0 1.09-.488 1.09-1.09V3.09z" fill="#253C5B" fill-rule="evenodd"/></svg>