<svg width="20" height="20" viewBox="0 0 20 20" xmlns="http://www.w3.org/2000/svg"><path d="M16.857 9.857c-.905-1.405-2.039-2.455-3.402-3.152.363.62.545 1.289.545 2.01 0 1.1-.391 2.042-1.174 2.825-.783.783-1.725 1.174-2.826 1.174s-2.043-.391-2.826-1.174C6.391 10.757 6 9.815 6 8.714c0-.72.182-1.39.545-2.009-1.363.697-2.497 1.747-3.402 3.152.792 1.22 1.784 2.192 2.978 2.915A7.35 7.35 0 0010 13.857a7.35 7.35 0 003.88-1.085c1.193-.723 2.185-1.695 2.977-2.915zM10.43 6.43a.413.413 0 00-.125-.304A.413.413 0 0010 6c-.744 0-1.382.266-1.915.8a2.613 2.613 0 00-.8 1.914c0 .12.042.22.126.304a.413.413 0 00.303.125c.12 0 .22-.042.304-.125a.413.413 0 00.125-.304c0-.512.181-.95.544-1.312.364-.363.801-.545 1.313-.545.119 0 .22-.042.304-.125a.413.413 0 00.125-.303zM18 9.857c0 .203-.06.408-.179.616a9.472 9.472 0 01-3.361 3.29C13.052 14.588 11.565 15 10 15s-3.052-.414-4.46-1.241a9.534 9.534 0 01-3.361-3.286A1.236 1.236 0 012 9.857c0-.202.06-.408.179-.616A9.534 9.534 0 015.54 5.955c1.408-.827 2.895-1.24 4.46-1.24s3.052.413 4.46 1.24a9.534 9.534 0 013.361 3.286c.12.208.179.414.179.616z" fill="#253C5B" fill-rule="evenodd"/></svg>