<svg width="20" height="20" viewBox="0 0 20 20" xmlns="http://www.w3.org/2000/svg"><path d="M13.176 8.83A4.351 4.351 0 008.83 4.484 4.351 4.351 0 004.484 8.83a4.351 4.351 0 004.346 4.346 4.351 4.351 0 004.346-4.346zm4.967 8.071a1.25 1.25 0 01-1.242 1.242c-.33 0-.65-.136-.873-.369L12.7 14.456a6.814 6.814 0 01-3.87 1.203A6.827 6.827 0 012 8.83 6.827 6.827 0 018.83 2a6.827 6.827 0 016.83 6.83 6.814 6.814 0 01-1.204 3.87l3.328 3.328c.223.223.359.543.359.873z" fill="#253C5B" fill-rule="evenodd"/></svg>