<svg width="20" height="20" viewBox="0 0 20 20" xmlns="http://www.w3.org/2000/svg" xmlns:xlink="http://www.w3.org/1999/xlink"><defs><path d="M17 17h-4a1 1 0 000 2h5a1 1 0 001-1v-4a1 1 0 00-2 0v3zM2 13a1 1 0 011 1v3h4a1 1 0 010 2H2a1 1 0 01-1-1v-4a1 1 0 011-1zm13-8v3.5a.5.5 0 11-1 0V7l-7 7h1.5a.5.5 0 110 1H5v-3.5a.5.5 0 111 0V13l7-7h-1.5a.5.5 0 110-1H15zm3-4a1 1 0 011 1v4a1 1 0 01-2 0V3h-4a1 1 0 010-2zM7 1a1 1 0 110 2H3v3a1 1 0 11-2 0V2a1 1 0 011-1h5z" id="gEYCSGa"/></defs><use fill="#253C5B" xlink:href="#gEYCSGa" fill-rule="evenodd"/></svg>