<svg width="20" height="20" viewBox="0 0 20 20" xmlns="http://www.w3.org/2000/svg"><path d="M18 3.902a2 2 0 012 2v8.196a2 2 0 01-2 2H2a2 2 0 01-2-2V5.902a2 2 0 012-2h16zM3.439 7.016H2.035l1.773 5.868h1.593l1.764-5.868h-1.35l-.693 2.736c-.084.324-.162.638-.234.94-.072.304-.153.617-.243.941h-.036c-.084-.324-.16-.637-.23-.94a20.648 20.648 0 00-.238-.94l-.702-2.737zm7.353 0H9.208l-1.827 5.868h1.35l.36-1.395h1.773l.351 1.395h1.404l-1.827-5.868zm4.617 0H13.33v5.868h1.323V10.77h.693l1.125 2.115h1.485l-1.323-2.349c.312-.138.564-.346.756-.625.192-.28.288-.635.288-1.067 0-.348-.06-.639-.18-.873a1.489 1.489 0 00-.49-.562 2.044 2.044 0 00-.72-.302 4.083 4.083 0 00-.878-.09zM9.991 8.024c.078.306.156.624.234.954.078.33.156.642.234.936l.135.54H9.361l.135-.54c.078-.294.156-.604.234-.931.078-.327.153-.647.225-.959zm5.31.045c.354 0 .621.057.801.171.18.114.27.315.27.603 0 .582-.357.873-1.071.873h-.648V8.07z" fill="#253C5B" fill-rule="evenodd"/></svg>