<svg width="20" height="20" viewBox="0 0 20 20" xmlns="http://www.w3.org/2000/svg"><path d="M11.857 14.807a2.06 2.06 0 01-4.12 0c0-.859.537-1.642 1.373-1.942V8.627h1.374v4.238a2.064 2.064 0 011.373 1.942zm1.373 0a3.424 3.424 0 00-1.373-2.747V3.82a2.06 2.06 0 00-4.12 0v8.24a3.424 3.424 0 00-1.373 2.747 3.43 3.43 0 003.433 3.433 3.43 3.43 0 003.433-3.433zm1.374 0a4.812 4.812 0 01-4.807 4.806 4.812 4.812 0 01-4.807-4.806 4.79 4.79 0 011.374-3.359V3.82A3.43 3.43 0 019.797.387 3.43 3.43 0 0113.23 3.82v7.628a4.79 4.79 0 011.374 3.359zm1.373-6.18V10h-2.06V8.627h2.06zm0-2.747v1.373h-2.06V5.88h2.06zm0-2.747v1.374h-2.06V3.133h2.06z" fill="#253C5B" fill-rule="evenodd"/></svg>