<svg width="20" height="20" viewBox="0 0 20 20" xmlns="http://www.w3.org/2000/svg"><path d="M10.036.115l.088.02 8.315 2.92c.196.06.318.26.286.466l-1.903 11.443a.42.42 0 01-.171.272l-6.432 4.574a.402.402 0 01-.475 0L3.35 15.236a.41.41 0 01-.171-.272L1.276 3.521a.42.42 0 01.267-.467L9.858.135a.4.4 0 01.266 0zm-.169 1.704L3.255 4.154a.4.4 0 00-.257.447l1.57 9.439a.4.4 0 00.162.262l5.033 3.6c.067.046.147.07.228.069a.384.384 0 00.228-.069l5.033-3.6a.4.4 0 00.162-.262l1.58-9.41a.4.4 0 00-.267-.476l-6.603-2.335a.382.382 0 00-.257 0zm.124.827l6.165 2.18-1.494 8.912-4.671 3.337-4.671-3.337-1.485-8.932 6.156-2.16zm-1.743 8.126H5.904v1.173h2.344v-1.173zm5.863 0h-2.345v1.172l2.345.001v-1.172zm-2.932 0H8.834v1.172h2.345v-1.172zM8.248 9.013l-2.344.001v1.172h2.344V9.013zm5.863.001h-2.345v1.172h2.345V9.014zm-2.932 0H8.834v1.172h2.345V9.013zM5.904 7.254v1.173h2.344V7.254H5.905zm8.207 0h-2.345v1.172h2.345V7.256zM8.834 8.427h2.345l.001-1.172H8.835l-.001 1.172z" fill="#253C5B" fill-rule="evenodd"/></svg>