<svg width="20" height="20" viewBox="0 0 20 20" xmlns="http://www.w3.org/2000/svg"><path d="M13.875 12.36a3.444 3.444 0 110 6.889 3.444 3.444 0 010-6.889zM9.205 2.065a4.708 4.708 0 00-.487 1.811 6.46 6.46 0 00.143 12.69c.174.677.496 1.295.928 1.82l.211.002a8.18 8.18 0 01-.989-16.302zm8.976 8.142a8.16 8.16 0 01-.55 2.952 4.76 4.76 0 00-1.324-1.559c.1-.447.151-.914.151-1.393a6.45 6.45 0 00-.352-2.11c.521-.354.968-.81 1.312-1.34a8.132 8.132 0 01.763 3.45zM6.556 7.193a2.153 2.153 0 110 4.306 2.153 2.153 0 010-4.306zM13.444.751a3.428 3.428 0 110 6.857 3.428 3.428 0 010-6.857z" fill="#253C5B" fill-rule="evenodd"/></svg>