<?xml version="1.0" encoding="UTF-8" standalone="no"?>
<!-- Generator: Adobe Illustrator 15.0.0, SVG Export Plug-In . SVG Version: 6.00 Build 0)  -->

<svg
   xmlns:dc="http://purl.org/dc/elements/1.1/"
   xmlns:cc="http://creativecommons.org/ns#"
   xmlns:rdf="http://www.w3.org/1999/02/22-rdf-syntax-ns#"
   xmlns:svg="http://www.w3.org/2000/svg"
   xmlns="http://www.w3.org/2000/svg"
   xmlns:sodipodi="http://sodipodi.sourceforge.net/DTD/sodipodi-0.dtd"
   xmlns:inkscape="http://www.inkscape.org/namespaces/inkscape"
   version="1.1"
   id="Calque_1"
   x="0px"
   y="0px"
   width="18.493277"
   height="37.176651"
   viewBox="0 0 18.493276 37.176651"
   enable-background="new 0 0 150 150"
   xml:space="preserve"
   inkscape:version="0.48.4 r9939"
   sodipodi:docname="caret.svg"><metadata
     id="metadata2993"><rdf:RDF><cc:Work
         rdf:about=""><dc:format>image/svg+xml</dc:format><dc:type
           rdf:resource="http://purl.org/dc/dcmitype/StillImage" /><dc:title /></cc:Work></rdf:RDF></metadata><defs
     id="defs2991" /><sodipodi:namedview
     pagecolor="#ffffff"
     bordercolor="#666666"
     borderopacity="1"
     objecttolerance="10"
     gridtolerance="10"
     guidetolerance="10"
     inkscape:pageopacity="0"
     inkscape:pageshadow="2"
     inkscape:window-width="1366"
     inkscape:window-height="702"
     id="namedview2989"
     showgrid="false"
     fit-margin-top="0"
     fit-margin-left="0"
     fit-margin-right="0"
     fit-margin-bottom="0"
     inkscape:zoom="25.173333"
     inkscape:cx="4.3903143"
     inkscape:cy="17.722814"
     inkscape:window-x="0"
     inkscape:window-y="339"
     inkscape:window-maximized="1"
     inkscape:current-layer="Calque_1" /><path
     d="m 15.741277,19.498839 -15.10400047,15.81 -0.271,0.268 c -0.312,0.306 -0.312,0.306 -0.344,0.447 -0.03,0.139 -0.057,0.413 0.121,0.69 0.234,0.367 0.763,0.563 1.15299997,0.411 l 16.5970005,-17.592 0.172,-0.179 c 0.264,-0.166 0.428,-0.465 0.428,-0.776 0,-0.318 -0.16,-0.609 -0.428,-0.78 l -0.163,-0.186 L 1.3082765,0.02383867 c -0.124,-0.047 -0.29,-0.01 -0.37399997,-0.01 -0.326,0 -0.621,0.159 -0.791,0.425 -0.178,0.277 -0.152,0.552 -0.121,0.69100003 0.031,0.139 0.153,0.244 0.422,0.508 l 0.192,0.206 L 15.740277,17.652839 c 0.924684,0.896824 0.94787,0.932335 10e-4,1.846 z"
     id="path2987"
     inkscape:connector-curvature="0"
     style="fill:#4c4c4c"
     sodipodi:nodetypes="ccccccccscccscscccc" /></svg>