<svg id="Calque_1" data-name="Calque 1" xmlns="http://www.w3.org/2000/svg" viewBox="0 0 410.04 375.17">
  <title>Plan de travail 2</title>
  <path d="M296.24,187.6H182.3V70.37c0-25.9-20.4-46.9-45.57-46.9H45.57C20.4,23.47,0,44.47,0,70.37V257.94c0,25.89,20.4,46.89,45.57,46.89H68.36v23.45c0,25.89,20.41,46.89,45.58,46.89h182.3c25.17,0,45.58-21,45.58-46.89V234.49C341.82,208.59,321.41,187.6,296.24,187.6ZM45.57,281.38c-12.57,0-22.77-10.5-22.78-23.44V70.37c0-13,10.21-23.44,22.78-23.45h91.16c12.58,0,22.77,10.5,22.79,23.45V187.6H113.94c-25.17,0-45.58,21-45.58,46.89v46.89Zm114-70.34v46.9c0,12.94-10.21,23.43-22.79,23.44H91.15V234.49c0-12.94,10.21-23.43,22.79-23.45ZM319,328.28c0,12.94-10.21,23.43-22.79,23.44H113.94c-12.58,0-22.77-10.5-22.79-23.44V304.83h45.58c25.17,0,45.57-21,45.57-46.89V211H296.24c12.58,0,22.78,10.51,22.79,23.45Zm87.81-214.46-45.57,46.9a11.18,11.18,0,0,1-16.09,0l-47.25-48.26a12,12,0,0,1-.05-16.59A11.17,11.17,0,0,1,314,95.84l27.3,27.9c-2.67-58.06-50.58-102.9-107-100.15a99.14,99.14,0,0,0-16,2.09,11.39,11.39,0,0,1-13.49-9.06,11.7,11.7,0,0,1,8.8-13.87h0C281.35-11.79,347.7,32.92,361.82,102.6a132.56,132.56,0,0,1,2.56,21.75l26.35-27.1a11.16,11.16,0,0,1,16.11.29,12,12,0,0,1,0,16.28Z"/>
</svg>
