<?xml version="1.0" encoding="UTF-8" standalone="no"?>
<!-- Generator: Adobe Illustrator 15.0.0, SVG Export Plug-In . SVG Version: 6.00 Build 0)  -->

<svg
   xmlns:dc="http://purl.org/dc/elements/1.1/"
   xmlns:cc="http://creativecommons.org/ns#"
   xmlns:rdf="http://www.w3.org/1999/02/22-rdf-syntax-ns#"
   xmlns:svg="http://www.w3.org/2000/svg"
   xmlns="http://www.w3.org/2000/svg"
   xmlns:sodipodi="http://sodipodi.sourceforge.net/DTD/sodipodi-0.dtd"
   xmlns:inkscape="http://www.inkscape.org/namespaces/inkscape"
   version="1.1"
   id="Calque_1"
   x="0px"
   y="0px"
   width="45.667"
   height="45.667"
   viewBox="0 0 45.667 45.666998"
   enable-background="new 0 0 150 150"
   xml:space="preserve"
   inkscape:version="0.91 r13725"
   sodipodi:docname="settings-action-required.svg"><metadata
     id="metadata13"><rdf:RDF><cc:Work
         rdf:about=""><dc:format>image/svg+xml</dc:format><dc:type
           rdf:resource="http://purl.org/dc/dcmitype/StillImage" /><dc:title></dc:title></cc:Work></rdf:RDF></metadata><defs
     id="defs11" /><sodipodi:namedview
     pagecolor="#ffffff"
     bordercolor="#666666"
     borderopacity="1"
     objecttolerance="10"
     gridtolerance="10"
     guidetolerance="10"
     inkscape:pageopacity="0"
     inkscape:pageshadow="2"
     inkscape:window-width="3840"
     inkscape:window-height="2031"
     id="namedview9"
     showgrid="false"
     fit-margin-top="0"
     fit-margin-left="0"
     fit-margin-right="0"
     fit-margin-bottom="0"
     inkscape:zoom="35.600469"
     inkscape:cx="15.117648"
     inkscape:cy="23.436512"
     inkscape:window-x="0"
     inkscape:window-y="55"
     inkscape:window-maximized="1"
     inkscape:current-layer="g5" /><g
     id="g3"
     transform="matrix(0,1,-1,0,97.5115,-51.95)"><g
       id="g5"><path
         style="clip-rule:evenodd;fill:#4c4c4c;fill-rule:evenodd"
         d="m 92.199,69.26 c -2.991,0 -5.418,2.427 -5.418,5.418 0,2.991 2.427,5.418 5.418,5.418 2.992,0 5.418,-2.427 5.418,-5.418 0,-2.991 -2.426,-5.418 -5.418,-5.418 z"
         id="path3340" /><path
         style="clip-rule:evenodd;fill:#4c4c4c;fill-rule:evenodd"
         d="m 51.95,74.677516 c 0,2.991 2.37079,5.249431 5.36179,5.249431 5.817046,-0.0043 10.963477,0.225156 17.518764,0.127358 3.895131,-0.05811 5.373173,-3.630917 5.368799,-5.411875 -0.01033,-4.204199 -4.016637,-5.371514 -5.363012,-5.358102 -17.412193,0.0033 -14.477372,-0.02478 -17.468372,-0.02478 -2.991,0 -5.417969,2.426969 -5.417969,5.417969 z"
         id="path3354" /></g></g></svg>