<?xml version="1.0" encoding="utf-8"?>
<!-- Generator: Adobe Illustrator 23.0.1, SVG Export Plug-In . SVG Version: 6.00 Build 0)  -->
<svg version="1.1"
	 id="Calque_1" xmlns:cc="http://creativecommons.org/ns#" xmlns:dc="http://purl.org/dc/elements/1.1/" xmlns:inkscape="http://www.inkscape.org/namespaces/inkscape" xmlns:rdf="http://www.w3.org/1999/02/22-rdf-syntax-ns#" xmlns:sodipodi="http://sodipodi.sourceforge.net/DTD/sodipodi-0.dtd" xmlns:svg="http://www.w3.org/2000/svg"
	 xmlns="http://www.w3.org/2000/svg" xmlns:xlink="http://www.w3.org/1999/xlink" x="0px" y="0px" viewBox="0 0 144.2 125"
	 style="enable-background:new 0 0 144.2 125;" xml:space="preserve">
<style type="text/css">
	.st0{fill:#F3C600;}
</style>
<g>
	<path class="st0" d="M81.6,43.5c-2-0.2-2.7-0.1-2.7-0.1c-14.1,0.7-25.4,12.3-25.3,26.2L53.7,83l0,0v2.8v1.5l0,0v8.4
		C67.8,95,79.1,83.4,79.1,69.5v-1.3h2.7h5.8l0,0h18.6C105.5,55,95.1,44.5,81.6,43.5z M68.5,75.3l2.9-10.8h-7.5l11.3-16.4l-2.9,10.8
		h7.5L68.5,75.3z"/>
	<path class="st0" d="M73.5,12C44.5,12,21,35.5,21,64.5S44.5,117,73.5,117S126,93.5,126,64.5S102.5,12,73.5,12z M65.2,29.8
		c0.8-1.3,2.4-2,4-1.8c1.6,0.3,3,1.5,3.3,3.1c0.3,1.3-0.1,2.5-1,3.5c-1.2,1.5-2.4,2.9-3.6,4.4c-0.3,0.3-0.9,0.2-1-0.2
		c-0.7-1.8-1.3-3.6-2-5.4C64.5,32.3,64.5,31,65.2,29.8z M52.5,33.3c1.3-1,3.1-1.2,4.5-0.3c1.1,0.7,1.7,1.8,1.9,3
		c0.3,1.9,0.5,3.7,0.8,5.6c0.1,0.4-0.4,0.8-0.8,0.6c-1.8-0.7-3.5-1.4-5.3-2.1c-1.2-0.5-2.2-1.4-2.5-2.7
		C50.6,35.9,51.2,34.3,52.5,33.3z M44,51c-1.2-1-1.7-2.7-1.2-4.2c0.5-1.6,1.9-2.7,3.6-2.8c1.3-0.1,2.4,0.5,3.3,1.4
		c1.3,1.4,2.6,2.8,3.9,4.2c0.3,0.3,0.1,0.9-0.3,1c-1.9,0.4-3.7,0.8-5.6,1.3C46.3,52.1,45,51.9,44,51z M108.8,70.8l-27.1,0.1
		C81.4,78.2,78.3,85,73,90.2c-5.5,5.3-12.8,8.3-20.6,8.3h-1.3L51,84l-0.1-14.3c-0.1-15.4,12.5-28.3,28.2-28.9c0.3,0,0.9,0,0.9,0l0,0
		h0.1c0.2,0,1.3,0.1,1.3,0.1c7.3,0.5,14.1,3.6,19.1,8.8c5.2,5.3,8,12.4,8.1,19.9L108.8,70.8z"/>
</g>
</svg>
