<svg xmlns="http://www.w3.org/2000/svg" width="80" height="72" viewBox="0 0 80 72">
  <metadata><?xpacket begin="﻿" id="W5M0MpCehiHzreSzNTczkc9d"?>
<x:xmpmeta xmlns:x="adobe:ns:meta/" x:xmptk="Adobe XMP Core 5.6-c140 79.160451, 2017/05/06-01:08:21        ">
   <rdf:RDF xmlns:rdf="http://www.w3.org/1999/02/22-rdf-syntax-ns#">
      <rdf:Description rdf:about=""/>
   </rdf:RDF>
</x:xmpmeta>
                                                                                                    
                                                                                                    
                                                                                                    
                                                                                                    
                                                                                                    
                                                                                                    
                                                                                                    
                                                                                                    
                                                                                                    
                                                                                                    
                                                                                                    
                                                                                                    
                                                                                                    
                                                                                                    
                                                                                                    
                                                                                                    
                                                                                                    
                                                                                                    
                                                                                                    
                                                                                                    
                           
<?xpacket end="w"?></metadata>
<defs>
    <style>
      .cls-1 {
        fill: #7ba49a;
        fill-rule: evenodd;
      }
    </style>
  </defs>
  <path id="Picto_Collaborate" data-name="Picto Collaborate" class="cls-1" d="M923.641,147.775c-0.174-.1-0.36-0.144-0.536-0.232,0.075-.867.125-1.737,0.125-2.6A30.993,30.993,0,0,0,902.7,116.008a12.738,12.738,0,0,0-25.446.274c0,0.194.05,0.374,0.06,0.565a30.88,30.88,0,0,0-18.506,28.094c0,0.59.083,1.176,0.117,1.767a12.9,12.9,0,0,0-2.578,1.067,12.06,12.06,0,0,0-4.663,16.778,12.6,12.6,0,0,0,7.734,5.724,13.271,13.271,0,0,0,3.317.424,13.033,13.033,0,0,0,6.348-1.65c0.328-.183.6-0.421,0.9-0.626a32.993,32.993,0,0,0,41.147.736,13.018,13.018,0,0,0,6.116,1.54,13.291,13.291,0,0,0,3.318-.424,12.606,12.606,0,0,0,7.734-5.724A12.061,12.061,0,0,0,923.641,147.775ZM890,108.8a7.487,7.487,0,1,1-7.76,7.482A7.632,7.632,0,0,1,890,108.8Zm-23.4,56.093a7.928,7.928,0,0,1-10.6-2.74,7.346,7.346,0,0,1,2.84-10.22,7.935,7.935,0,0,1,3.866-1,7.821,7.821,0,0,1,6.733,3.739A7.345,7.345,0,0,1,866.6,164.893Zm6.829,0.064a11.876,11.876,0,0,0,.324-12.685,12.765,12.765,0,0,0-9.877-6.063c-0.021-.424-0.085-0.844-0.085-1.268a26.069,26.069,0,0,1,14.773-23.348,12.872,12.872,0,0,0,23.242-.762,26.157,26.157,0,0,1,16.448,24.11c0,0.422-.069.844-0.09,1.268a12.852,12.852,0,0,0-11.922,6.063A11.933,11.933,0,0,0,907.283,166,27.97,27.97,0,0,1,873.427,164.957Zm50.565-2.8a7.929,7.929,0,0,1-10.6,2.74,7.346,7.346,0,0,1-2.842-10.221,7.822,7.822,0,0,1,6.734-3.739,7.938,7.938,0,0,1,3.866,1A7.346,7.346,0,0,1,923.992,162.153Z" transform="translate(-850 -104)"/>
</svg>
