<svg xmlns="http://www.w3.org/2000/svg" xmlns:xlink="http://www.w3.org/1999/xlink" preserveAspectRatio="xMidYMid" width="38" height="34" viewBox="0 0 38 34">
  <defs>
    <style>
      .cls-1 {
        fill: #fff;
        fill-rule: evenodd;
      }
    </style>
  </defs>
  <path d="M37.933,32.594 L36.043,28.107 C36.844,26.760 37.265,25.268 37.265,23.759 C37.265,21.264 36.100,18.867 34.065,17.072 C34.314,16.105 34.454,15.104 34.454,14.075 C34.454,6.316 26.980,0.004 17.794,0.004 C8.608,0.004 1.135,6.316 1.135,14.075 C1.135,16.343 1.792,18.588 3.041,20.599 L0.087,27.610 C-0.073,27.990 0.018,28.424 0.319,28.713 C0.521,28.908 0.792,29.011 1.067,29.011 C1.201,29.011 1.335,28.987 1.464,28.937 L8.963,26.009 C11.014,27.094 13.303,27.776 15.692,28.030 C17.603,31.315 21.512,33.422 25.875,33.422 C27.958,33.422 29.976,32.946 31.746,32.042 L36.556,33.920 C36.685,33.970 36.819,33.995 36.953,33.995 C37.228,33.995 37.499,33.891 37.701,33.696 C38.002,33.407 38.094,32.973 37.933,32.594 ZM16.415,26.050 C16.415,26.050 16.414,26.050 16.414,26.050 C13.964,25.859 11.623,25.165 9.578,24.003 C9.296,23.843 8.950,23.817 8.643,23.937 L2.987,26.145 L5.203,20.883 C5.334,20.574 5.298,20.223 5.109,19.944 C3.893,18.151 3.250,16.121 3.250,14.075 C3.250,7.439 9.775,2.040 17.794,2.040 C25.814,2.040 32.339,7.439 32.339,14.075 C32.339,15.127 32.158,16.142 31.850,17.115 C31.747,17.442 31.628,17.762 31.495,18.077 C31.492,18.084 31.488,18.091 31.485,18.098 C30.984,19.268 30.270,20.341 29.397,21.302 C29.309,21.398 29.227,21.497 29.136,21.591 C28.988,21.744 28.829,21.890 28.673,22.036 C28.539,22.161 28.406,22.286 28.267,22.406 C28.116,22.536 27.960,22.662 27.802,22.786 C27.643,22.911 27.480,23.034 27.314,23.153 C27.157,23.266 26.998,23.378 26.835,23.486 C26.654,23.606 26.465,23.719 26.277,23.832 C26.116,23.928 25.957,24.026 25.792,24.117 C25.559,24.244 25.318,24.361 25.076,24.477 C24.856,24.583 24.634,24.685 24.407,24.781 C24.133,24.898 23.857,25.012 23.573,25.114 C23.398,25.177 23.217,25.231 23.039,25.288 C22.808,25.362 22.577,25.435 22.341,25.500 C22.154,25.551 21.965,25.596 21.776,25.641 C21.532,25.698 21.286,25.751 21.037,25.798 C20.854,25.833 20.671,25.867 20.486,25.895 C20.204,25.939 19.918,25.974 19.630,26.004 C19.473,26.020 19.317,26.041 19.159,26.053 C18.709,26.088 18.255,26.111 17.794,26.111 C17.328,26.111 16.869,26.086 16.415,26.050 ZM33.883,28.397 L35.033,31.128 L32.070,29.972 C31.762,29.852 31.417,29.877 31.134,30.038 C29.583,30.920 27.764,31.386 25.875,31.386 C22.798,31.386 19.996,30.153 18.285,28.141 C18.649,28.132 19.010,28.108 19.370,28.079 C19.419,28.075 19.469,28.075 19.519,28.071 C20.005,28.028 20.484,27.963 20.958,27.885 C21.133,27.856 21.306,27.821 21.479,27.788 C21.787,27.729 22.092,27.663 22.394,27.589 C22.580,27.543 22.767,27.499 22.951,27.449 C23.297,27.353 23.638,27.246 23.975,27.131 C24.194,27.057 24.410,26.978 24.625,26.896 C24.922,26.782 25.217,26.665 25.505,26.537 C25.691,26.454 25.872,26.367 26.054,26.278 C26.295,26.162 26.532,26.040 26.765,25.913 C26.936,25.821 27.107,25.730 27.274,25.632 C27.587,25.448 27.892,25.254 28.190,25.053 C28.343,24.949 28.492,24.841 28.641,24.733 C28.899,24.546 29.151,24.354 29.395,24.154 C29.538,24.037 29.675,23.915 29.813,23.793 C30.007,23.622 30.196,23.447 30.380,23.267 C30.515,23.135 30.651,23.004 30.780,22.868 C30.971,22.667 31.151,22.459 31.329,22.249 C31.535,22.006 31.730,21.756 31.918,21.502 C32.042,21.334 32.168,21.167 32.284,20.994 C32.424,20.785 32.553,20.571 32.681,20.356 C32.754,20.231 32.826,20.106 32.896,19.979 C33.031,19.734 33.160,19.488 33.278,19.236 C33.284,19.223 33.291,19.211 33.297,19.198 C34.500,20.509 35.150,22.089 35.150,23.759 C35.150,25.047 34.744,26.326 33.977,27.458 C33.788,27.738 33.753,28.088 33.883,28.397 Z" class="cls-1"/>
</svg>
