<svg xmlns="http://www.w3.org/2000/svg" xmlns:xlink="http://www.w3.org/1999/xlink" preserveAspectRatio="xMidYMid" width="28" height="36" viewBox="0 0 28 36">
  <defs>
    <style>
      .cls-1 {
        fill: #fff;
        fill-rule: evenodd;
      }
    </style>
  </defs>
  <path d="M25.603,0.006 L11.058,0.006 C9.733,0.006 8.655,1.082 8.655,2.405 L8.655,4.865 L2.136,4.865 C0.955,4.865 -0.006,5.823 -0.006,7.002 L-0.006,33.850 C-0.006,35.028 0.955,35.987 2.136,35.987 L20.533,35.987 C21.714,35.987 22.675,35.028 22.675,33.850 L22.675,26.427 L25.603,26.427 C26.928,26.427 28.006,25.352 28.006,24.029 L28.006,2.405 C28.006,1.082 26.928,0.006 25.603,0.006 ZM9.726,7.002 L20.272,7.002 C20.414,7.002 20.533,7.121 20.533,7.263 L20.533,11.150 L7.610,11.150 L7.610,7.002 L9.726,7.002 ZM2.136,18.046 L6.539,18.046 L6.539,22.805 L2.136,22.805 L2.136,18.046 ZM7.610,18.046 L20.532,18.046 L20.532,22.805 L7.610,22.805 L7.610,18.046 ZM22.675,11.310 L25.864,11.310 L25.864,15.124 L22.675,15.124 L22.675,11.310 ZM25.864,10.241 L22.675,10.241 L22.675,7.263 L22.675,7.002 C22.675,6.802 22.639,6.611 22.587,6.427 L25.864,6.427 L25.864,10.241 ZM20.533,12.219 L20.532,16.978 L7.610,16.978 L7.610,12.219 L20.533,12.219 ZM6.539,16.978 L2.136,16.978 L2.136,12.219 L6.539,12.219 L6.539,16.978 ZM2.136,23.874 L6.539,23.874 L6.539,28.633 L2.136,28.633 L2.136,23.874 ZM7.610,23.874 L20.531,23.874 L20.531,28.633 L7.610,28.633 L7.610,23.874 ZM22.675,16.192 L25.864,16.192 L25.864,20.006 L22.675,20.006 L22.675,16.192 ZM25.864,2.405 L25.864,5.359 L21.886,5.359 C21.516,5.055 21.049,4.865 20.533,4.865 L20.272,4.865 L15.297,4.865 L15.297,2.143 L25.603,2.143 C25.745,2.143 25.864,2.263 25.864,2.405 ZM10.797,2.405 C10.797,2.263 10.916,2.143 11.058,2.143 L14.226,2.143 L14.226,4.865 L10.797,4.865 L10.797,2.405 ZM6.539,7.002 L6.539,11.150 L2.136,11.150 L2.136,7.002 L6.539,7.002 ZM2.136,29.702 L6.539,29.702 L6.539,33.850 L2.136,33.850 L2.136,29.702 ZM7.610,33.850 L7.610,29.702 L20.531,29.702 L20.530,33.850 L7.610,33.850 ZM25.603,24.290 L22.675,24.290 L22.675,21.075 L25.864,21.075 L25.864,24.029 C25.864,24.171 25.745,24.290 25.603,24.290 Z" class="cls-1"/>
</svg>
