<svg xmlns="http://www.w3.org/2000/svg" xmlns:xlink="http://www.w3.org/1999/xlink" preserveAspectRatio="xMidYMid" width="28" height="36" viewBox="0 0 28 36">
  <defs>
    <style>
      .cls-1 {
        fill: #fff;
        fill-rule: evenodd;
      }
    </style>
  </defs>
  <path d="M25.850,35.988 L3.927,35.988 C2.742,35.988 1.777,35.029 1.777,33.851 L1.777,30.862 L0.802,30.862 C0.357,30.862 -0.004,30.503 -0.004,30.061 C-0.004,29.618 0.357,29.260 0.802,29.260 L1.777,29.260 L1.777,24.831 L0.802,24.831 C0.357,24.831 -0.004,24.472 -0.004,24.030 C-0.004,23.587 0.357,23.228 0.802,23.228 L1.777,23.228 L1.777,18.799 L0.802,18.799 C0.357,18.799 -0.004,18.440 -0.004,17.998 C-0.004,17.555 0.357,17.196 0.802,17.196 L1.777,17.196 L1.777,12.768 L0.802,12.768 C0.357,12.768 -0.004,12.409 -0.004,11.966 C-0.004,11.524 0.357,11.165 0.802,11.165 L1.777,11.165 L1.777,6.736 L0.802,6.736 C0.357,6.736 -0.004,6.377 -0.004,5.934 C-0.004,5.492 0.357,5.133 0.802,5.133 L1.777,5.133 L1.777,2.144 C1.777,0.966 2.742,0.007 3.927,0.007 L25.850,0.007 C27.035,0.007 28.000,0.966 28.000,2.144 L28.000,33.851 C28.000,35.029 27.035,35.988 25.850,35.988 ZM3.927,2.144 L3.927,5.133 L4.774,5.133 C5.219,5.133 5.580,5.492 5.580,5.934 C5.580,6.377 5.219,6.736 4.774,6.736 L3.927,6.736 L3.927,11.165 L4.774,11.165 C5.219,11.165 5.580,11.524 5.580,11.966 C5.580,12.409 5.219,12.768 4.774,12.768 L3.927,12.768 L3.927,17.196 L4.774,17.196 C5.219,17.196 5.580,17.555 5.580,17.998 C5.580,18.440 5.219,18.799 4.774,18.799 L3.927,18.799 L3.927,23.228 L4.774,23.228 C5.219,23.228 5.580,23.587 5.580,24.030 C5.580,24.472 5.219,24.831 4.774,24.831 L3.927,24.831 L3.927,29.260 L4.774,29.260 C5.219,29.260 5.580,29.618 5.580,30.061 C5.580,30.503 5.219,30.862 4.774,30.862 L3.927,30.862 L3.927,33.851 L25.847,33.851 L25.850,2.144 L3.927,2.144 ZM17.362,14.085 L13.407,14.085 L12.531,16.110 L10.291,16.110 L14.366,6.733 L16.403,6.733 L20.479,16.110 L18.239,16.110 L17.362,14.085 ZM15.391,9.524 L14.204,12.246 L16.566,12.246 L15.391,9.524 ZM11.572,21.676 L11.572,19.865 L19.224,19.865 L19.224,21.313 L14.299,27.417 L19.305,27.417 L19.305,29.242 L11.410,29.242 L11.410,27.806 L16.350,21.676 L11.572,21.676 Z" class="cls-1"/>
</svg>
