<svg xmlns="http://www.w3.org/2000/svg" xmlns:xlink="http://www.w3.org/1999/xlink" preserveAspectRatio="xMidYMid" width="26.031" height="36.031" viewBox="0 0 26.031 36.031">
  <defs>
    <style>
      .cls-1 {
        fill: #fff;
        fill-rule: evenodd;
      }
    </style>
  </defs>
  <path d="M23.538,36.030 L2.522,36.030 C1.139,36.030 0.014,34.901 0.014,33.515 L0.014,14.735 C0.014,13.348 1.139,12.220 2.522,12.220 L8.150,12.220 L8.150,14.360 L2.522,14.360 C2.320,14.360 2.149,14.532 2.149,14.735 L2.149,33.515 C2.149,33.718 2.320,33.890 2.522,33.890 L23.538,33.890 C23.741,33.890 23.912,33.718 23.912,33.515 L23.912,14.735 C23.912,14.532 23.741,14.360 23.538,14.360 L17.910,14.360 L17.910,12.220 L23.538,12.220 C24.921,12.220 26.046,13.348 26.046,14.735 L26.046,33.515 C26.046,34.901 24.921,36.030 23.538,36.030 ZM19.264,8.395 C18.991,8.395 18.718,8.290 18.509,8.081 L14.097,3.659 L14.097,21.920 C14.097,22.510 13.620,22.989 13.030,22.989 C12.440,22.989 11.963,22.510 11.963,21.920 L11.963,3.659 L7.551,8.081 C7.134,8.499 6.458,8.499 6.041,8.081 C5.624,7.664 5.624,6.987 6.041,6.569 L12.274,0.321 C12.373,0.222 12.491,0.144 12.622,0.089 C12.883,-0.019 13.177,-0.019 13.438,0.089 C13.569,0.144 13.687,0.222 13.785,0.321 L20.019,6.569 C20.436,6.987 20.436,7.664 20.019,8.081 C19.810,8.290 19.537,8.395 19.264,8.395 Z" class="cls-1"/>
</svg>
