<svg width="20" height="20" viewBox="0 0 20 20" xmlns="http://www.w3.org/2000/svg"><defs><linearGradient x1="-20.707%" y1="120.707%" x2="120.707%" y2="-20.707%" id="hQKWxma"><stop stop-color="#055F4E" offset="0%"/><stop stop-color="#56C0A7" offset="100%"/></linearGradient></defs><g fill-rule="nonzero" fill="none"><rect fill="url(#hQKWxma)" width="20" height="20" rx="4"/><path d="M11.664 16.736a.267.267 0 01-.136-.037L10 15.784l-1.528.915a.267.267 0 01-.267 0l-3.138-1.915a.267.267 0 01-.126-.227v-1.92l-1.474-.829a.267.267 0 01-.136-.232V8.424c0-.096.052-.185.136-.232l1.466-.83v-1.92a.267.267 0 01.126-.229l3.136-1.912a.267.267 0 01.266 0l1.528.915 1.528-.915a.267.267 0 01.267 0l3.15 1.915c.078.048.127.134.127.227v1.92l1.472.829a.267.267 0 01.136.232v3.152a.267.267 0 01-.136.232l-1.466.83v1.92c0 .093-.048.18-.128.229l-3.136 1.912a.285.285 0 01-.139.037zm-1.4-1.413l1.4.834 2.87-1.757v-1.917c0-.097.051-.185.135-.232l1.182-.672-.992-.547a.765.765 0 11.266-.579.8.8 0 010 .112l1.019.56V8.58l-1.477-.83a.267.267 0 01-.136-.232V6.8h-.736a.768.768 0 110-.533h.738V5.6l-2.872-1.757-1.394.834v2.934l1.482.858a.763.763 0 11-.288.451L9.867 8a.267.267 0 01-.134-.23V4.678l-1.397-.834-1.272.773v1.883h-.533V4.94L5.467 5.6v1.77l1.333.755 1.333-.754V6h.534v1.517a.267.267 0 01-.136.232l-1.467.83v1.269l1.47.96a.267.267 0 01.122.224v.896l1.067-.63v-1.13l-1.4-.835.266-.458 1.544.909c.08.049.129.136.128.23v3.466h1.224a.763.763 0 011.478.267.773.773 0 01-1.478.266H10.26l.005 1.31zm-3.043.144l1.115.68 1.4-.835v-3.395l-2.981 1.755-.267-.461 1.645-.971v-1.067L6.8 10.301l-1.493.838-.267-.467 1.499-.84V8.579l-1.334-.755-1.333.755v.97l1.141-.669.267.459-1.413.829v1.25l1.333.755 1.35-.8.266.459-1.35.8V14.4l1.2.744 1.393-.819.016.024.064-.037.266.459-1.184.696zm4.984-1.976a.232.232 0 10.23.232.23.23 0 00-.23-.222v-.01zm2.155-3.28a.232.232 0 10.232.232.232.232 0 00-.232-.222v-.01zm-2.155-1.374a.232.232 0 10.23.232.23.23 0 00-.23-.221v-.01zm.862-2.536a.232.232 0 100 .464.232.232 0 000-.464z" fill="#FFF"/></g></svg>