<svg width="20" height="20" viewBox="0 0 20 20" xmlns="http://www.w3.org/2000/svg"><defs><linearGradient x1="-20.707%" y1="120.707%" x2="120.707%" y2="-20.707%" id="hgpOxea"><stop stop-color="#B0084D" offset="0%"/><stop stop-color="#FF4F8B" offset="100%"/></linearGradient></defs><g fill-rule="nonzero" fill="none"><rect fill="url(#hgpOxea)" width="20" height="20" rx="4"/><g fill="#FFF"><path d="M14.267 8.4V6.8A.267.267 0 0014 6.533h-3.733v-.56a1.333 1.333 0 10-.534 0v.56H6a.267.267 0 00-.267.267v1.067H3.6a.267.267 0 00-.267.266v1.334c0 .147.12.266.267.266h2.133v.534H3.6a.267.267 0 00-.267.266v1.334c0 .147.12.266.267.266h2.133V13.2c0 .147.12.267.267.267h3.733v.56a1.333 1.333 0 10.534 0v-.56H14c.147 0 .267-.12.267-.267v-1.333h-.534v1.066H6.267v-.8H8.4c.147 0 .267-.12.267-.266v-1.334a.267.267 0 00-.267-.266H6.267v-.534H8.4c.147 0 .267-.12.267-.266V8.133a.267.267 0 00-.267-.266H6.267v-.8h7.466V8.4h.534zM10.8 15.333a.8.8 0 11-1.6 0 .8.8 0 011.6 0zM8.133 10.8v.8H3.867v-.8h4.266zm0-2.4v.8H3.867v-.8h4.266zM9.2 4.667a.8.8 0 111.6 0 .8.8 0 01-1.6 0z"/><path d="M16.4 8.933h-5.333a.267.267 0 00-.267.267v1.867c0 .147.12.266.267.266H16.4c.147 0 .267-.12.267-.266V9.2a.267.267 0 00-.267-.267zm-.267 1.867h-4.8V9.467h4.8V10.8z"/></g></g></svg>