<svg width="20" height="20" viewBox="0 0 20 20" xmlns="http://www.w3.org/2000/svg"><defs><linearGradient x1="-20.711%" y1="120.707%" x2="120.711%" y2="-20.715%" id="ekfovRa"><stop stop-color="#4D27A8" offset="0%"/><stop stop-color="#A166FF" offset="100%"/></linearGradient></defs><g fill-rule="nonzero" fill="none"><rect fill="url(#ekfovRa)" width="20" height="20" rx="4"/><path d="M15.099 11.037c-.218 0-.433.048-.63.142l-.602-1.16.746-1.408a1.467 1.467 0 10-.938-1.056l-.947.293-1.053-1.981.018-.019a1.467 1.467 0 10-2.218-.168L8.333 7.253a3.227 3.227 0 100 5.51l1.136 1.576a1.467 1.467 0 102.216-.166l-.016-.016 1.035-1.954.92.29v.022a1.467 1.467 0 101.467-1.467l.008-.01zm-.659-4.466a.957.957 0 011.333 0 .933.933 0 11-1.333 0zm-.557 1.477c.052.079.111.152.178.219l.086.077-.584 1.104-.59-1.117.91-.283zM9.995 4.141a.937.937 0 111.333 1.318.955.955 0 01-1.333 0 .933.933 0 010-1.318zm-.128 1.896c.238.153.516.233.8.23.195 0 .388-.04.568-.115l.976 1.867-2.552.8a3.123 3.123 0 00-.723-1.086 3.193 3.193 0 00-.17-.16l1.1-1.536zm-5.118 5.867a2.693 2.693 0 113.808 0 2.699 2.699 0 01-3.805 0h-.003zm6.568 3.955a.955.955 0 01-1.333 0 .933.933 0 111.333 0zm-.085-2.008a1.467 1.467 0 00-1.363.112l-1.098-1.528a3.157 3.157 0 00.87-1.221l2.554.8-.963 1.837zm1.216-2.299L9.8 10.715a3.245 3.245 0 000-1.406l2.648-.818.8 1.53-.8 1.531zm1.29.405l-.773-.242.592-1.123.478.907c-.13.13-.23.287-.296.458zm2.022 1.206a.957.957 0 01-1.333 0 .933.933 0 111.333 0zM8 9.733v.534H6.933v1.066H6.4v-1.066H5.333v-.534H6.4V8.667h.533v1.066H8z" fill="#FFF"/></g></svg>