<svg width="20" height="20" viewBox="0 0 20 20" xmlns="http://www.w3.org/2000/svg"><defs><linearGradient x1="-20.711%" y1="120.707%" x2="120.711%" y2="-20.715%" id="ctOMYPa"><stop stop-color="#C8511B" offset="0%"/><stop stop-color="#F90" offset="100%"/></linearGradient></defs><g fill-rule="nonzero" fill="none"><rect fill="url(#ctOMYPa)" width="20" height="20" rx="4"/><g fill="#FFF"><path d="M16.133 16.667h-3.285a.267.267 0 01-.24-.152L7.963 6.8H5.997a.267.267 0 01-.266-.267V3.6c0-.147.12-.267.266-.267h4.107c.103 0 .196.06.24.152l4.624 9.715h1.165c.148 0 .267.12.267.267V16.4c0 .147-.12.267-.267.267zm-3.117-.534h2.85v-2.4H14.8a.267.267 0 01-.24-.152L9.936 3.867h-3.67v2.4h1.867c.103 0 .196.06.24.152l4.643 9.714z"/><path d="M7.328 16.667H3.861a.267.267 0 01-.226-.126.267.267 0 01-.014-.266l3.627-7.576a.267.267 0 01.48-.003l1.736 3.57a.267.267 0 010 .233l-1.893 4a.267.267 0 01-.243.168zm-3.04-.534H7.16L8.928 12.4 7.491 9.427l-3.203 6.706z"/></g></g></svg>