<svg width="20" height="20" viewBox="0 0 20 20" xmlns="http://www.w3.org/2000/svg"><g fill="none" fill-rule="evenodd" stroke-linecap="round" stroke-linejoin="round"><path d="M16.806 10.048c.126-.126.104-.366 0-.497l-.668-.667-2.972-2.886c-.126-.126-.322-.126-.474 0-.126.126-.175.367 0 .497l3.123 3.06a.374.374 0 010 .497l-3.187 3.164a.374.374 0 000 .496c.126.126.366.105.474 0l2.972-2.946.732-.718zm-13.612 0c-.126-.126-.104-.366 0-.497l.668-.667 2.972-2.886c.126-.126.322-.126.474 0 .126.126.175.367 0 .497L4.249 9.554a.374.374 0 000 .497l3.123 3.163a.374.374 0 010 .497c-.126.126-.366.105-.474 0l-3.036-2.9-.668-.763z" fill="#3999C6"/><path fill="#FCD116" d="M10.556 7.897l2.8-4.29h-4.2L6.899 9.984l2.757.021L7.5 16.316l5.946-8.418z"/><path fill="#FF8C00" opacity=".3" d="M13.447 7.897h-2.89l2.799-4.29h-2.198L8.837 8.906l2.757.02L7.5 16.314z"/><g><path d="M16.698 9.94c.126-.126.105-.366 0-.497l-.667-.667-2.973-2.885c-.126-.126-.322-.126-.473 0-.126.126-.175.366 0 .497l3.123 3.06a.374.374 0 010 .497l-3.188 3.163a.374.374 0 000 .497c.126.126.366.105.474 0l2.972-2.947.732-.718zm-13.611 0c-.126-.126-.105-.366 0-.497l.667-.667 2.972-2.885c.126-.126.322-.126.474 0 .126.126.175.366 0 .497L4.142 9.446a.374.374 0 000 .497l3.123 3.163a.374.374 0 010 .497c-.126.126-.367.105-.474 0l-3.037-2.9-.667-.763z" fill="#3999C6"/><path fill="#FCD116" d="M10.449 7.79l2.799-4.29H9.049L6.791 9.875l2.757.021-2.156 6.313 5.946-8.419z"/><path fill="#FF8C00" opacity=".3" d="M13.339 7.79h-2.89l2.799-4.29H11.05L8.73 8.797l2.756.021-4.094 7.388z"/></g></g></svg>