<svg width="20" height="20" viewBox="0 0 20 20" xmlns="http://www.w3.org/2000/svg"><g fill="none" fill-rule="evenodd" stroke-linecap="round" stroke-linejoin="round"><path fill="#DB1905" d="M3.108 11.184v2.221l6.665 3.487 6.665-3.486v-2.222l-2.351-1.2 2.351-1.233V6.53l-.016.016-6.649-3.438L3.124 6.53h-.016V8.75l2.351 1.233-2.351 1.2"/><path d="M3.108 11.184l6.665 3.487 6.665-3.487-2.351-1.2-4.314 2.256-4.314-2.256-2.351 1.2zm13.33-4.638l-6.665 3.486-6.665-3.486 6.665-3.438 6.665 3.438z" fill="#FF5224"/><g><path fill="#DB1905" d="M3 11.076v2.222l6.665 3.487 6.666-3.487v-2.222l-2.352-1.2 2.352-1.232V6.422l-.017.016L9.665 3 3.016 6.422H3v2.222l2.352 1.232L3 11.076"/><path d="M3 11.076l6.665 3.487 6.666-3.487-2.352-1.2-4.314 2.256-4.313-2.256L3 11.076zm13.33-4.638L9.666 9.925 3 6.438 9.665 3l6.666 3.438z" fill="#FF5224"/></g></g></svg>