<svg width="20" height="20" viewBox="0 0 20 20" xmlns="http://www.w3.org/2000/svg"><path d="M16.364 3H3.636A.636.636 0 003 3.636v12.728c0 .351.285.636.636.636h12.728a.636.636 0 00.636-.636V3.636A.636.636 0 0016.364 3z" fill="#119DFF"/><path d="M11.273 9.364a.636.636 0 100-1.273.636.636 0 000 1.273zM13.818 6.818a.636.636 0 100-1.273.636.636 0 000 1.273zM11.273 6.818a.636.636 0 100-1.273.636.636 0 000 1.273zM8.727 6.818a.636.636 0 100-1.273.636.636 0 000 1.273zM6.182 6.818a.636.636 0 100-1.273.636.636 0 000 1.273zM6.182 9.364a.636.636 0 100-1.273.636.636 0 000 1.273z" fill="#25FEFD"/><path d="M6.182 10.636a.636.636 0 00-.637.637v2.545a.636.636 0 001.273 0v-2.545a.636.636 0 00-.636-.637zM11.273 10.636a.636.636 0 00-.637.637v2.545a.636.636 0 101.273 0v-2.545a.636.636 0 00-.636-.637zM8.727 8.09a.636.636 0 00-.636.637v5.091a.636.636 0 001.273 0v-5.09a.636.636 0 00-.637-.637zM13.818 8.09a.636.636 0 00-.636.637v5.091a.637.637 0 001.272 0v-5.09a.636.636 0 00-.636-.637z" fill="#fff"/></svg>