<svg width="20" height="20" viewBox="0 0 20 20" xmlns="http://www.w3.org/2000/svg"><path d="M16.405 3.582c.33.317.544.734.595 1.19 0 .19-.05.317-.165.557-.114.24-1.519 2.671-1.936 3.342a2.55 2.55 0 000 2.633c.418.67 1.822 3.114 1.936 3.354.114.24.165.355.165.545-.05.455-.253.873-.582 1.177-.317.329-.734.544-1.177.582-.19 0-.317-.05-.545-.165-.228-.114-2.709-1.48-3.38-1.898-.05-.026-.1-.064-.164-.089l-3.317-1.962a2.82 2.82 0 00.81 1.684c.09.088.178.164.279.24-.076.038-.165.076-.24.127-.671.418-3.114 1.822-3.355 1.936-.24.114-.354.165-.557.165a1.873 1.873 0 01-1.177-.582A1.953 1.953 0 013 15.228c.013-.19.063-.38.165-.544.113-.241 1.519-2.684 1.936-3.355.24-.392.367-.848.367-1.316 0-.469-.126-.924-.367-1.317C4.684 8 3.266 5.557 3.165 5.316A1.187 1.187 0 013 4.772c.05-.456.253-.873.582-1.19.317-.329.734-.531 1.19-.582.19.013.38.063.557.165.203.088 1.987 1.126 2.937 1.683l.215.127c.076.05.14.088.19.114l.101.063 3.38 2a2.786 2.786 0 00-1.076-1.924c.076-.038.165-.076.24-.127.671-.417 3.114-1.835 3.355-1.936.164-.102.354-.152.557-.165.443.05.86.253 1.177.582zM10.177 10.9l.722-.722a.245.245 0 000-.354l-.722-.722a.245.245 0 00-.354 0l-.722.722a.245.245 0 000 .354l.722.722c.088.088.253.088.354 0z" fill="#FF694A"/></svg>