<svg width="20" height="20" viewBox="0 0 20 20" xmlns="http://www.w3.org/2000/svg"><defs><linearGradient x1="50%" y1="0%" x2="50%" y2="100%" id="cHYdsza"><stop stop-color="#4387FD" offset="0%"/><stop stop-color="#4683EA" offset="100%"/></linearGradient></defs><g fill="none" fill-rule="evenodd" stroke-linecap="round" stroke-linejoin="round"><g transform="translate(2.099 3)"><path d="M15.654 7.407a.897.897 0 000-.987L12.148.395a.939.939 0 00-.79-.395H4.444a.939.939 0 00-.79.395L.148 6.42a.897.897 0 000 .987l3.506 6.025c.198.263.461.395.79.395h6.914c.33 0 .593-.132.79-.395l3.506-6.025z" fill="url(#cHYdsza)"/><path d="M11.352 13.827c.33 0 .593-.132.79-.395l2.87-4.932L9.97 3.457l-2.024.691-2.025-.691L7.155 4.69 5.229 6.123l.691.692-.543.494.494.493-.642.642 1.777 1.778-1.086.148 3.457 3.457h1.975z" fill-opacity=".07" fill="#000"/><path d="M7.556 8.996v-.7h.79v.7l1.58-.897v-.395h.74v.74l-2.022 1.17 1.331.756-.642.445-1.382-.8-1.383.8-.642-.445 1.331-.756-2.022-1.17v-.74h.74v.395l1.58.897zm0-4.165v.7h.79v-.7l1.58.897v.395h.74v-.74l-2.022-1.17 1.331-.756-.642-.445-1.382.8-1.383-.8-.642.445 1.331.756-2.022 1.17v.74h.74v-.395l1.58-.897z" fill="#FFF"/><circle fill="#FFF" cx="5.63" cy="6.914" r="1"/><circle fill="#FFF" cx="7.951" cy="6.272" r="1"/><circle fill="#FFF" cx="7.951" cy="7.556" r="1"/><circle fill="#FFF" cx="10.272" cy="6.914" r="1"/></g><g transform="translate(2 3)"><path d="M15.654 7.407a.897.897 0 000-.987L12.148.395a.939.939 0 00-.79-.395H4.444a.939.939 0 00-.79.395L.148 6.42a.897.897 0 000 .987l3.506 6.025c.198.263.461.395.79.395h6.914c.33 0 .593-.132.79-.395l3.506-6.025z" fill="url(#cHYdsza)"/><path d="M11.352 13.827c.33 0 .593-.132.79-.395l2.87-4.932L9.97 3.457l-2.024.691-2.025-.691L7.155 4.69 5.229 6.123l.691.692-.543.494.494.493-.642.642 1.777 1.778-1.086.148 3.457 3.457h1.975z" fill-opacity=".07" fill="#000"/><path d="M7.556 8.996v-.7h.79v.7l1.58-.897v-.395h.74v.74l-2.022 1.17 1.331.756-.642.445-1.382-.8-1.383.8-.642-.445 1.331-.756-2.022-1.17v-.74h.74v.395l1.58.897zm0-4.165v.7h.79v-.7l1.58.897v.395h.74v-.74l-2.022-1.17 1.331-.756-.642-.445-1.382.8-1.383-.8-.642.445 1.331.756-2.022 1.17v.74h.74v-.395l1.58-.897z" fill="#FFF"/><circle fill="#FFF" cx="5.63" cy="6.914" r="1"/><circle fill="#FFF" cx="7.951" cy="6.272" r="1"/><circle fill="#FFF" cx="7.951" cy="7.556" r="1"/><circle fill="#FFF" cx="10.272" cy="6.914" r="1"/></g></g></svg>