<svg width="20" height="20" viewBox="0 0 20 20" xmlns="http://www.w3.org/2000/svg"><defs><linearGradient x1="50%" y1="0%" x2="50%" y2="100%" id="bQbXeFa"><stop stop-color="#4387FD" offset="0%"/><stop stop-color="#4683EA" offset="100%"/></linearGradient></defs><g fill="none" fill-rule="evenodd" stroke-linecap="round" stroke-linejoin="round"><path d="M15.654 7.407a.897.897 0 000-.987L12.148.395a.939.939 0 00-.79-.395H4.444a.939.939 0 00-.79.395L.148 6.42a.897.897 0 000 .987l3.506 6.025c.198.263.461.395.79.395h6.914c.33 0 .593-.132.79-.395l3.506-6.025z" fill="url(#bQbXeFa)" transform="translate(2.099 3.099)"/><path d="M17.154 11.536l-5.08-5.08-1.284.593v.494L9.704 6.457l-1.185.345-1.482 1.136.988.988-.988.099-.84 1.58.84.84.889 2.123 3.358 3.358h2.173c.329 0 .592-.132.79-.395l2.907-4.995z" fill-opacity=".07" fill="#000"/><path d="M6.79 8.432h1.432l.445-.74h.395v-.494H8.42l-.445.74h-.938l.889-1.481h1.778V8.53h-.741l-.296.494h1.037v.987h-.988l-.395-.691H7.185l-.247.444h1.136l.445.741h1.185v1.827H8.173l.346.494h1.185v.74H7.926L6.444 11.1h.939l.345.592h1.334v-.444H7.975l-.395-.642H6.198l-.396-.593.988-1.58zm6.42 0h-1.432l-.445-.74h-.395v-.494h.642l.445.74h.938l-.889-1.481h-1.778V8.53h.741l.296.494h-1.037v.987h.988l.395-.691h1.136l.247.444h-1.136l-.445.741h-1.185v1.827h1.531l-.346.494h-1.185v.74h1.778l1.482-2.468h-.939l-.345.592h-1.334v-.444h1.087l.395-.642h1.382l.396-.593-.988-1.58z" fill="#FFF"/><g><path d="M15.654 7.407a.897.897 0 000-.987L12.148.395a.939.939 0 00-.79-.395H4.444a.939.939 0 00-.79.395L.148 6.42a.897.897 0 000 .987l3.506 6.025c.198.263.461.395.79.395h6.914c.33 0 .593-.132.79-.395l3.506-6.025z" fill="url(#bQbXeFa)" transform="translate(2 3)"/><path d="M17.055 11.438l-5.08-5.08-1.284.593v.493L9.605 6.358l-1.185.346L6.938 7.84l.988.987-.988.099-.84 1.58.84.84.89 2.123 3.357 3.358h2.173c.33 0 .593-.132.79-.395l2.907-4.994z" fill-opacity=".07" fill="#000"/><path d="M6.691 8.333h1.432l.445-.74h.395v-.494h-.642l-.444.74h-.939l.89-1.481h1.777v2.074h-.74l-.297.494h1.037v.988h-.988l-.395-.692H7.086l-.246.445h1.135l.445.74h1.185v1.828h-1.53l.345.493h1.185v.741H7.827L6.346 11h.938l.346.593h1.333v-.445H7.877l-.396-.642H6.1l-.395-.592.987-1.58zm6.42 0H11.68l-.444-.74h-.395v-.494h.641l.445.74h.938l-.889-1.481h-1.777v2.074h.74l.297.494h-1.037v.988h.987l.395-.692h1.136l.247.445h-1.136l-.444.74h-1.185v1.828h1.53l-.345.493h-1.185v.741h1.777L13.457 11h-.938l-.346.593H10.84v-.445h1.086l.395-.642h1.383l.395-.592-.988-1.58z" fill="#FFF"/></g></g></svg>