<svg width="20" height="20" viewBox="0 0 20 20" xmlns="http://www.w3.org/2000/svg"><defs><linearGradient x1="50%" y1="0%" x2="50%" y2="100%" id="eRIeqxa"><stop stop-color="#4387FD" offset="0%"/><stop stop-color="#4683EA" offset="100%"/></linearGradient></defs><g fill="none" fill-rule="evenodd" stroke-linecap="round" stroke-linejoin="round"><path d="M15.654 7.407a.897.897 0 000-.987L12.148.395a.939.939 0 00-.79-.395H4.444a.939.939 0 00-.79.395L.148 6.42a.897.897 0 000 .987l3.506 6.025c.198.263.461.395.79.395h6.914c.33 0 .593-.132.79-.395l3.506-6.025z" fill="url(#eRIeqxa)" transform="translate(2.099 3)"/><path d="M16.716 12.218l-2.452 4.214a.939.939 0 01-.79.395h-.741l-4.544-4.543.05-.74-1.136-1.137-.099-.543.148-.345h.84l1.876 1.876v-.494l-.543-.543.05-.79-1.136-1.136-.099-.592.296-.346.692.05.79.79.395-2.075 1.284 1.284.346-.099 4.773 4.774z" fill-opacity=".07" fill="#000"/><path d="M7.975 11.84a.64.64 0 01.642-.642.64.64 0 01.642.642.64.64 0 01-.642.641.64.64 0 01-.642-.641zm.297 0a.345.345 0 11.691 0 .345.345 0 01-.346.345.345.345 0 01-.345-.345zM6.84 9.914a.64.64 0 01.641-.642.64.64 0 01.642.642.64.64 0 01-.642.642.64.64 0 01-.641-.642zm.296 0a.345.345 0 11.691 0 .345.345 0 01-.346.345.345.345 0 01-.345-.345zm.84-1.976a.64.64 0 01.641-.642.64.64 0 01.642.642.64.64 0 01-.642.642.64.64 0 01-.642-.642zm.296 0a.345.345 0 11.691 0 .345.345 0 01-.346.346.345.345 0 01-.345-.346zM9.704 9.37c-.356 0-.593.198-.593.593 0 .296.237.593.593.593v3.11h.592v-1.185h.84c.099 0 .148-.049.148-.148v-.889c0-.098-.05-.148-.148-.148h-.84v-.74h3.062c.099 0 .148-.05.148-.149V9.52c0-.1-.05-.149-.148-.149h-3.062v-.74h1.482c.099 0 .148-.05.148-.149v-.987c0-.099-.05-.148-.148-.148h-1.482V6.259h-.592V9.37zm0 .89a.288.288 0 01-.297-.297c0-.247.105-.296.297-.296v.592z" fill="#FFF"/><g><path d="M15.654 7.407a.897.897 0 000-.987L12.148.395a.939.939 0 00-.79-.395H4.444a.939.939 0 00-.79.395L.148 6.42a.897.897 0 000 .987l3.506 6.025c.198.263.461.395.79.395h6.914c.33 0 .593-.132.79-.395l3.506-6.025z" fill="url(#eRIeqxa)" transform="translate(2 3)"/><path d="M16.617 12.218l-2.452 4.214a.939.939 0 01-.79.395h-.741L8.09 12.284l.049-.74-1.136-1.137-.099-.543.149-.345h.84l1.876 1.876v-.494l-.544-.543.05-.79L8.14 8.432l-.099-.592.297-.346.69.05.791.79.395-2.075 1.284 1.284.346-.099 4.773 4.774z" fill-opacity=".07" fill="#000"/><path d="M7.877 11.84a.64.64 0 01.642-.642.64.64 0 01.641.642.64.64 0 01-.641.641.64.64 0 01-.642-.641zm.296 0c0-.192.154-.346.346-.346.191 0 .345.154.345.346a.345.345 0 01-.345.345.345.345 0 01-.346-.345zM6.74 9.914a.64.64 0 01.642-.642.64.64 0 01.642.642.64.64 0 01-.642.642.64.64 0 01-.642-.642zm.296 0c0-.192.154-.346.346-.346.191 0 .345.154.345.346a.345.345 0 01-.345.345.345.345 0 01-.346-.345zm.84-1.976a.64.64 0 01.642-.642.64.64 0 01.641.642.64.64 0 01-.641.642.64.64 0 01-.642-.642zm.296 0c0-.191.154-.345.346-.345a.345.345 0 110 .691.345.345 0 01-.346-.346zM9.605 9.37c-.356 0-.593.198-.593.593 0 .296.237.593.593.593v3.11h.593v-1.185h.839c.099 0 .148-.049.148-.148v-.889c0-.098-.05-.148-.148-.148h-.84v-.74h3.062c.099 0 .148-.05.148-.149V9.52c0-.1-.049-.149-.148-.149h-3.061v-.74h1.481c.099 0 .148-.05.148-.149v-.987c0-.099-.05-.148-.148-.148h-1.481V6.259h-.593V9.37zm0 .89a.288.288 0 01-.296-.297c0-.247.104-.296.296-.296v.592z" fill="#FFF"/></g></g></svg>