<svg width="20" height="20" viewBox="0 0 20 20" xmlns="http://www.w3.org/2000/svg"><defs><linearGradient x1="50%" y1="0%" x2="50%" y2="100%" id="jHlJVoa"><stop stop-color="#4387FD" offset="0%"/><stop stop-color="#4683EA" offset="100%"/></linearGradient></defs><g fill="none" fill-rule="evenodd" stroke-linecap="round" stroke-linejoin="round"><g transform="translate(2.099 3)"><path d="M15.654 7.407a.897.897 0 000-.987L12.148.395a.939.939 0 00-.79-.395H4.444a.939.939 0 00-.79.395L.148 6.42a.897.897 0 000 .987l3.506 6.025c.198.263.461.395.79.395h6.914c.33 0 .593-.132.79-.395l3.506-6.025z" fill="url(#jHlJVoa)"/><path d="M15.037 8.469l-3.383-3.383-.691 2.865L9.63 6.617l-.741.593-2.716-2.716-1.63.642v3.26l.938 1.629 3.803 3.802h2.074c.33 0 .593-.132.79-.395l2.889-4.963z" fill-opacity=".07" fill="#000"/><path fill="#FFF" d="M6.173 9.333l-.692.692L4.148 8.69V5.086l1.284-1.333.74.74-.987.94v2.913z"/><circle fill="#FFF" cx="6.519" cy="6.914" r="1"/><circle fill="#FFF" cx="7.901" cy="6.914" r="1"/><circle fill="#FFF" cx="9.284" cy="6.914" r="1"/><path fill="#FFF" d="M9.63 9.333l.642.692 1.382-1.334V5.086l-1.333-1.333-.691.74.987.94v2.913z"/></g><g transform="translate(2 3)"><path d="M15.654 7.407a.897.897 0 000-.987L12.148.395a.939.939 0 00-.79-.395H4.444a.939.939 0 00-.79.395L.148 6.42a.897.897 0 000 .987l3.506 6.025c.198.263.461.395.79.395h6.914c.33 0 .593-.132.79-.395l3.506-6.025z" fill="url(#jHlJVoa)"/><path d="M15.037 8.469l-3.383-3.383-.691 2.865L9.63 6.617l-.741.593-2.716-2.716-1.63.642v3.26l.938 1.629 3.803 3.802h2.074c.33 0 .593-.132.79-.395l2.889-4.963z" fill-opacity=".07" fill="#000"/><path fill="#FFF" d="M6.173 9.333l-.692.692L4.148 8.69V5.086l1.284-1.333.74.74-.987.94v2.913z"/><circle fill="#FFF" cx="6.519" cy="6.914" r="1"/><circle fill="#FFF" cx="7.901" cy="6.914" r="1"/><circle fill="#FFF" cx="9.284" cy="6.914" r="1"/><path fill="#FFF" d="M9.63 9.333l.642.692 1.382-1.334V5.086l-1.333-1.333-.691.74.987.94v2.913z"/></g></g></svg>