<svg width="20" height="20" viewBox="0 0 20 20" xmlns="http://www.w3.org/2000/svg"><g fill="none"><path d="M10 17.737l2.947-9.067h-5.89l2.942 9.067z" fill="#E24329"/><path d="M2.928 8.67l-.898 2.755a.61.61 0 00.22.682l7.75 5.63L2.927 8.67z" fill="#FCA326"/><path d="M2.928 8.67h4.128L5.28 3.21c-.09-.28-.487-.28-.581 0l-1.77 5.46z" fill="#E24329"/><path d="M17.076 8.67l.894 2.755a.61.61 0 01-.22.682L10 17.737l7.076-9.067z" fill="#FCA326"/><path d="M17.076 8.67h-4.129l1.774-5.46c.09-.28.487-.28.581 0l1.774 5.46z" fill="#E24329"/><path d="M10 17.737l2.947-9.067h4.129l-7.077 9.067z" fill="#FC6D26"/><path d="M10 17.737L2.927 8.67h4.128L10 17.737z" fill="#FC6D26"/></g></svg>