<svg width="20" height="20" viewBox="0 0 20 20" xmlns="http://www.w3.org/2000/svg"><defs><linearGradient x1="49.995%" y1="122.45%" x2="49.995%" y2="31.139%" id="cabYLTa"><stop stop-color="#FFF100" offset="0%"/><stop stop-color="#F05A28" offset="100%"/></linearGradient></defs><path d="M12.825 6.16a4.918 4.918 0 00-.5-1.765 5.354 5.354 0 00-.673-1.03 4.962 4.962 0 00-.365-.392c.196-.781-.238-1.458-.238-1.458-.75-.046-1.227.235-1.404.362-.03-.012-.058-.027-.089-.039-.126-.05-.257-.1-.396-.142a5.327 5.327 0 00-.846-.2l-.077-.012C7.911.438 6.972 0 6.972 0c-1.05.665-1.246 1.596-1.246 1.596l-.011.054c-.058.015-.116.034-.173.05a6.178 6.178 0 00-.477.18c-.158.07-.316.147-.47.231-.15.085-.296.177-.438.273L4.12 2.37c-1.454-.554-2.742.111-2.742.111-.12 1.546.58 2.52.719 2.696a6.67 6.67 0 00-.354 1.53C.396 7.373 0 8.73 0 8.73c1.12 1.288 2.427 1.369 2.427 1.369l.003-.004a5.615 5.615 0 00.858 1.161 3.015 3.015 0 00.058 2.138 3.504 3.504 0 002.238-.68 5.505 5.505 0 001.546.285c.096.003.196.007.292.003h.139l.061-.004v.004c.589.839 1.62.958 1.62.958.734-.773.776-1.542.776-1.708v-.011-.023-.035c.154-.108.3-.223.438-.35.293-.265.55-.569.766-.896l.057-.092c.831.046 1.42-.516 1.42-.516-.139-.865-.631-1.288-.735-1.369l-.012-.007c-.007-.004-.007-.008-.007-.008-.004-.004-.012-.008-.02-.012l.012-.157c.008-.092.008-.189.008-.28V8.371v-.023l-.004-.058-.004-.077c0-.027-.004-.05-.008-.073-.004-.023-.004-.05-.007-.073l-.008-.073-.012-.073a3.701 3.701 0 00-.053-.284 3.531 3.531 0 00-1.127-1.884 3.502 3.502 0 00-2.365-.877h-.123l-.062.003c-.023 0-.046.004-.065.004a2.737 2.737 0 00-1.165.38 2.745 2.745 0 00-1.15 1.354 2.652 2.652 0 00-.177.808c-.004.065-.004.135-.004.2v.05l.004.054c.004.03.004.065.007.096a2.103 2.103 0 00.404 1.057c.142.193.316.35.496.477.181.123.377.212.57.27.192.057.384.08.565.08h.1c.011 0 .023 0 .034-.004.02 0 .039-.003.058-.003.004 0 .012 0 .015-.004l.02-.004c.011 0 .023-.004.034-.004l.066-.011a.288.288 0 00.061-.016c.042-.008.08-.023.12-.034.076-.027.153-.058.219-.093.069-.034.13-.077.192-.115.015-.012.034-.023.05-.039a.146.146 0 00.023-.203.142.142 0 00-.18-.035l-.047.023a1.25 1.25 0 01-.346.115l-.096.012c-.016 0-.031.004-.05.004h-.093c-.019 0-.038 0-.057-.004h-.023c-.008 0-.02 0-.027-.004-.02-.004-.035-.004-.054-.008a1.496 1.496 0 01-.42-.123 1.469 1.469 0 01-.388-.253 1.473 1.473 0 01-.469-.858 1.45 1.45 0 01-.015-.258c0-.023.004-.046.004-.069v-.031c0-.011.004-.023.004-.034a1.85 1.85 0 01.785-1.33 1.793 1.793 0 01.846-.308c.05-.004.1-.008.153-.008H8.295l.042.004c.112.007.22.023.327.05a2.3 2.3 0 011.554 1.2 2.148 2.148 0 01.23.822l.005.043.003.042v.165l-.003.1a3.127 3.127 0 01-.208.912 2.973 2.973 0 01-1.523 1.607c-.23.104-.473.181-.723.22-.123.023-.25.034-.377.038h-.176-.016a4.02 4.02 0 01-1-.154 4.034 4.034 0 01-.746-.3 3.942 3.942 0 01-1.661-1.688 3.974 3.974 0 01-.285-.735 4.06 4.06 0 01-.13-.773l-.005-.05v-.219-.027-.096a4.609 4.609 0 01.097-.788 5.161 5.161 0 01.37-1.134c.218-.47.503-.889.845-1.224.084-.084.173-.161.265-.238a3.924 3.924 0 01.592-.385c.05-.027.104-.053.158-.076l.08-.035.082-.035c.107-.046.219-.084.334-.119.027-.008.058-.015.085-.027l.084-.023c.058-.015.116-.03.173-.042.027-.008.058-.012.089-.02.03-.007.058-.011.088-.019.031-.004.058-.011.089-.015l.042-.008.046-.007.089-.012.1-.012c.027-.003.073-.007.1-.011.019-.004.042-.004.061-.008l.042-.004.02-.003h.023c.034-.004.065-.004.1-.008l.05-.004h.038c.027 0 .058-.004.085-.004a4.534 4.534 0 01.992.073 4.718 4.718 0 012.165 1.03c.02.016.035.032.054.047.015.015.035.03.05.046.035.03.065.062.1.092.035.031.065.062.096.093.03.03.062.061.092.096a5.021 5.021 0 01.82 1.15l.023.046.023.046c.015.03.03.062.042.092l.042.089c.012.03.027.057.039.088.046.116.092.227.127.331.057.17.1.32.134.45a.103.103 0 00.116.08c.057-.003.1-.05.1-.107.003-.138 0-.304-.02-.492z" transform="translate(3 3)" fill="url(#cabYLTa)" fill-rule="nonzero"/></svg>