<svg width="20" height="20" viewBox="0 0 20 20" xmlns="http://www.w3.org/2000/svg" xmlns:xlink="http://www.w3.org/1999/xlink"><defs><path d="M16.946 8.241a3.99 3.99 0 00-.337-1.142.468.468 0 00-.09-.117.88.88 0 00-.337-.192.488.488 0 00-.385 0 .316.316 0 00-.083.061c-.069.075-.13.156-.185.241a1.26 1.26 0 01-.2.248.97.97 0 01-.261.144 2.064 2.064 0 00-.145-.282 2.952 2.952 0 00-.247-.33 1.376 1.376 0 00-.227-.213 2.581 2.581 0 00-.248-.165 5.263 5.263 0 01-.688-.523l-.269-.282A2.58 2.58 0 0011.731 5a3.695 3.695 0 00-1.686.371c-.277.125-.53.3-.743.516-.19.184-.362.384-.516.599a.901.901 0 00-.282.062 1.177 1.177 0 00-.337.22l-.24.234-.214.213a7.107 7.107 0 00-1.459.358 3.887 3.887 0 00-1.21.75 3.282 3.282 0 00-.73.943l-.145.15v-.096c.032-.15.032-.304 0-.454a.447.447 0 00-.137-.24l.13-.186.042-.117H4.08a1.83 1.83 0 00-.784.488c-.093.095-.17.204-.227.324a.633.633 0 00-.062.378.62.62 0 00.172.317c0 .075.034.13.048.178.018.062.041.121.069.18a.564.564 0 00.344.302.688.688 0 00.31 0c-.02.123-.03.247-.035.372-.015.229-.015.459 0 .688v.344l-.062.172-.055.213-.427.42c-.151.144-.179.185-.137.433a1.5 1.5 0 00.44.833c.197.192.431.341.688.44a.922.922 0 00.4.069l-.077.179a.537.537 0 000 .474.633.633 0 00.324.276c.15.06.303.109.46.144h.125c.242.073.49.121.743.145.399 0 .633-.09.688-.351a1.376 1.376 0 00.055-.53c.05-.117.111-.228.186-.33v-.049c.06-.08.1-.175.117-.275a1.08 1.08 0 000-.289c.167.009.334.009.502 0h.041c-.2.117-.255.33-.158.62.073.206.172.403.296.584.141.27.341.505.584.688a.688.688 0 00.379.11.984.984 0 00.468-.137.688.688 0 00.302-.317l.062-.103c.076-.048.241-.193.406-.323l.159-.131c.046.029.097.05.151.062.102.022.205.036.31.041h.743a.936.936 0 00.46-.082.516.516 0 00.235-.461.826.826 0 000-.241.757.757 0 00-.083-.2v-.605a1.459 1.459 0 00-.041-.33 2.16 2.16 0 00-.11-.31l-.076-.2a2.377 2.377 0 00-.13-.316l.054.055.158.158c.112.118.236.222.372.31.154.091.33.134.51.124.229-.018.449-.101.632-.241.183-.128.32-.311.392-.523v-.041l.042-.13v-.111c.294.04.593.04.887 0 .29-.025.573-.107.833-.24.35-.186.638-.468.832-.813.218-.394.349-.83.385-1.28a5.621 5.621 0 00-.034-1.245zm-1.7-.488a.894.894 0 00.248-.117c.096-.084.181-.179.255-.282.055-.075.114-.147.179-.214a.138.138 0 01.13-.034h.049c-.15.298-.39.539-.688.688a.585.585 0 01-.379.041.626.626 0 01.207-.082zm-11.324 1.1a.2.2 0 01.041.09h-.055l.014-.09zm0 .427l.048.076.096.124a.846.846 0 01-.254.165.77.77 0 00.137-.365h-.027zm-.44.736a2.064 2.064 0 01-.118-.357.35.35 0 01-.11-.303 1.1 1.1 0 01.475-.62 1.1 1.1 0 00-.048.124c-.027.104-.04.21-.041.317a.55.55 0 01-.186.475.034.034 0 000 .041l.048.096c.096.207.145.282.427.172a.99.99 0 00.22-.144l-.069.213v.041c-.186.083-.468.159-.571-.055H3.48zm1.28 4.039a.213.213 0 01-.166.09 1.376 1.376 0 01-.688-.4 1.1 1.1 0 01-.316-.584c0-.117 0-.124.068-.207l.448-.447.055-.151c.172.535.417 1.045.729 1.513a.557.557 0 01-.103.186H4.76zm7.086-.578v.688c.06.078.082.179.062.275 0 .248-.09.276-.29.276H10.872a1.149 1.149 0 01-.193-.083c.326-.364.585-.784.764-1.238a4.85 4.85 0 01.117-.338c.041-.11.082-.234.117-.35.023.079.05.157.082.233.076.17.114.352.11.537h-.02zM16.63 9.57a2.353 2.353 0 01-1.026 1.803c-.763.426-1.65.186-2.49-.097a1.658 1.658 0 01-.372-.192l-.055-.035a.034.034 0 000 .035c.046.176.046.36 0 .536-.102.23-.117.49-.041.73a.344.344 0 00.234.158c.154.04.317.009.447-.083a.034.034 0 00-.041 0 .757.757 0 01-.358 0 .2.2 0 01-.117-.061h.103a.537.537 0 00.688-.296v-.104c.012-.068.03-.135.055-.2h.124l-.096.317a.826.826 0 01-.736.489.963.963 0 01-.626-.33l-.042-.035-.413-.364a3.096 3.096 0 01-.997-.503.034.034 0 00-.048.049c.19.255.444.457.736.584a4.128 4.128 0 01-.241.943c-.041.117-.083.24-.124.378a4.761 4.761 0 01-.73 1.156c-.054 0-.233.18-.426.33-.192.152-.399.324-.46.358l-.07.103a.688.688 0 01-.227.255c-.399.206-.653-.2-.88-.557-.227-.358-.262-.51-.227-.633a.144.144 0 01.075-.097c.2-.106.392-.223.578-.35l.055.075.062.083c.013.009.03.009.042 0V13.8a1.651 1.651 0 010-.357v-.372c-.02.063-.043.125-.07.186-.028.065-.054.131-.075.2v.103a4.245 4.245 0 01-1.569 0c0-.193-.075-.393-.11-.537a.041.041 0 00-.034 0v.901a.626.626 0 01-.11.427l-.076.117c-.074.112-.14.23-.2.35-.023.181-.089.353-.192.503 0 .09-.186.206-.998 0h-.068c-.186-.048-.468-.124-.544-.268a.193.193 0 010-.165c.123-.344.202-.703.234-1.067a5.353 5.353 0 01-.95-2.332 2.924 2.924 0 01.11-1.376 3.44 3.44 0 01.984-1.535 3.68 3.68 0 012.065-.908l-.496.571-.13.2a4.128 4.128 0 00-.558.908.777.777 0 00.076 1.025l.09.124c.17.203.3.437.385.688a1.713 1.713 0 00-.152.585c.21.292.502.515.84.64a1.1 1.1 0 00.832-.117l.344-.186a3.055 3.055 0 011.376-.495c.259-.658.302-1.38.124-2.065a10.32 10.32 0 01-.124-1.465.034.034 0 00-.034 0 3.488 3.488 0 00-.055 1.48 2.752 2.752 0 01-.097 1.781 3.268 3.268 0 00-1.272.496l-.338.178a.853.853 0 01-.64.056 1.204 1.204 0 01-.57-.455c0-.217.061-.43.178-.612.207-.406.44-.791.688-1.149a.034.034 0 000-.048.034.034 0 00-.048 0l-.22.261c-.196.22-.38.449-.55.688a1.885 1.885 0 00-.282-.447l-.2-.151a.523.523 0 01-.069-.688v-.041a3.09 3.09 0 01.55-.847c.18-.192.358-.399.524-.598.268-.31.543-.633.846-.93a.853.853 0 01.619-.288h.096c.317-.048.64-.11.977-.186a.034.034 0 00-.034 0c-.31 0-.606.041-.874.048.226-.337.547-.6.922-.757 1.177-.509 1.947-.612 2.938.214l.206.179c.152.13.296.254.448.371a.977.977 0 00-.2.055.034.034 0 100 .069c.128-.022.258-.022.385 0l.11.069c.15.072.28.181.379.316.108.149.205.305.289.468h-.076a.392.392 0 00-.117 0h-.034c-.07 0-.14.019-.2.055-.11.053-.225.092-.344.117a.468.468 0 00.227-.034.4.4 0 000 .09.372.372 0 00.042.206l-.104.04a.034.034 0 000 .042.041.041 0 00.042 0c.207-.03.418-.03.626 0v.158h-.042a.461.461 0 00-.399 0 .564.564 0 00-.488.482c-.035.117-.081.23-.138.337a.034.034 0 000 .048.034.034 0 00.048 0c.07-.09.13-.186.18-.289.089-.179.158-.316.398-.371h.055a.447.447 0 00-.123.179c-.044.133-.07.272-.076.413a1.273 1.273 0 01-.083.405.034.034 0 00.049 0c.069-.128.122-.264.158-.405.03-.119.072-.234.124-.344a.495.495 0 01.289-.228h.055c.015.142.015.285 0 .427-.021.25-.06.499-.117.743a.041.041 0 00.04 0 1.81 1.81 0 00.228-.688v-.124a2.167 2.167 0 000-.853.275.275 0 010-.158h.083a.84.84 0 00.261.055c.055.01.11.01.165 0 .355-.133.615-.44.688-.812a.454.454 0 01.145.172c.31.722.456 1.505.426 2.291h-.02zm-3.888 1.204l.138.041-.145.07-.144.068-.05.03c-.056.034-.075.057-.108.128-.042.09-.083.2-.138.344l-.007-.02.007-.021v-.316c.034-.214.062-.283.296-.324h.151zm.103-2.876a1.177 1.177 0 01-.213.145c.09.047.162.122.207.213a.475.475 0 01.034.117 1.3 1.3 0 01.371-.055l-.013.055a.034.034 0 010 .034c-.465.137-.88.405-1.197.771l.04-.097a1.06 1.06 0 01.11-.178c.066-.086.143-.162.228-.227l-.03-.044a.152.152 0 00-.245.174v.042a.468.468 0 01-.172-.303 1.335 1.335 0 01-.303.179.034.034 0 01-.041 0c.086-.086.167-.178.24-.275.094-.128.202-.243.324-.344a.956.956 0 01.365-.124c.101-.016.2-.044.295-.083zM9.99 7.065a.041.041 0 010 .062 5.67 5.67 0 01-.688.22v.048c-.248.19-.42.464-.482.77l-.028-.12c-.05-.22-.054-.32.028-.485l-.141.203a4.08 4.08 0 00-.436.884l-.062.145-.007-.021.007-.02a4.06 4.06 0 01.57-1.425.495.495 0 01.414-.186zm1.961-.007l.02.007c-.412.13-.712.486-.77.915l-.017-.104c-.055-.434.165-.664.746-.811a.034.034 0 01.042 0z" id="cgnnKCa"/></defs><use fill="#414042" fill-rule="nonzero" xlink:href="#cgnnKCa"/></svg>