<svg width="20" height="20" viewBox="0 0 20 20" xmlns="http://www.w3.org/2000/svg"><path d="M11.544 2.64a.552.552 0 01.288.24 5.904 5.904 0 011.16 4.72.68.68 0 01-.232.424 5.36 5.36 0 00-1.352 1.76 2.4 2.4 0 00-.168.616c-.024.12-.056.256.08.336.136.08.256-.008.352-.104.335-.328.638-.687.904-1.072a5.36 5.36 0 01.52-.712c.056-.032.056-.08.056-.08.048-.016.048.048.12.04v.68a1.912 1.912 0 01-.8 1.6 1.6 1.6 0 00-.472.496.512.512 0 00.168.8c.088.064.112.104 0 .192a1.128 1.128 0 00-.48.84 10.688 10.688 0 01-.648 3.28 1.224 1.224 0 01-.928.8.672.672 0 000-.408c-.056-.184-.248-.056-.336-.184.16-.08.336-.144.336-.36a.44.44 0 00-.32-.392l-.08-.056C9.6 16 9.528 15.84 9.6 15.76c.072-.08.168.072.248.136.045.037.086.08.12.128.112.152.2.104.32 0a.64.64 0 00.216-.688 3.2 3.2 0 01.448-2.656.936.936 0 000-1.104c-.056-.088-.096-.176-.152-.256a1.992 1.992 0 01-.048-2.12 5.872 5.872 0 011.168-1.6c.195-.175.323-.413.36-.672.088-.69.088-1.39 0-2.08a6.568 6.568 0 00-.736-2.208zm-3.029 9.673l.096.002a.56.56 0 01.445.309 3.2 3.2 0 01.352 1.432l-.04-.02c-.065-.036-.051-.071-.12-.236-.08-.192-.16-.376-.232-.568a.224.224 0 00-.232-.176.296.296 0 01-.312-.224.344.344 0 00-.36-.304.56.56 0 01.499-.213zM6.904 9.472c.088-.04.136.024.184.056a5.76 5.76 0 01.912 1.6 2.32 2.32 0 01-1.136-1.464c-.016-.064-.064-.144.04-.192zM8.4 2.504c.048.048 0 .12 0 .12A5.832 5.832 0 007.6 5.2a.88.88 0 01-.064.128v.8c.064.328.064.672.136.968a.584.584 0 00.184.36A6.264 6.264 0 019.12 9.2c.155.329.245.685.264 1.048a.84.84 0 01-.672.8c-.144.024-.144-.008-.144-.12a4 4 0 00-1.472-2.936.584.584 0 01-.192-.328 5.888 5.888 0 011.424-5.096z" fill="#316797" fill-rule="nonzero"/></svg>