<svg width="20" height="20" viewBox="0 0 20 20" xmlns="http://www.w3.org/2000/svg"><g fill-rule="nonzero" fill="none"><path d="M14.356 15.402l.069.06c-.067 1.006-2.616 1.342-4.83 1.342-.47 0-.94-.066-1.342-.066-1.544-.067-1.879-.335-1.879-.335v-.098c.003-.034.013-.034.066-.034 1.98.312 3.998.29 5.971-.066 1.678-.335 1.879-.738 1.879-.738 0-.065 0-.065.066-.065zm-9.525-.336c.47-.337 1.61-.671 1.946-.403v.066c0 .066 0 .066-.066.066-.136.007-.27.029-.402.065a1.482 1.482 0 00-.738.336c0 .036.03.066.066.066 1.341.603 6.038.402 7.447 0 .337-.137.402-.203.402-.269a.234.234 0 00-.065-.131v-.132h.131c.268.134.268.271.268.403-.134.402-1.14.738-2.683.939-.757.093-1.518.138-2.28.134a24.06 24.06 0 01-3.556-.268c-.47-.134-.672-.202-.738-.403 0-.134.067-.268.268-.47zm2.95-1.405c.036 0 .066.03.066.066 0 .065 0 .131-.066.131a.234.234 0 00-.068.141s0 .066.402.131c.897.088 1.8.043 2.684-.131h.066c.235.135.482.248.738.335a.066.066 0 01.066.066l-.066.066c-.744.31-1.542.47-2.348.47a3.367 3.367 0 01-2.014-.47.433.433 0 01-.131-.336c0-.2.268-.338.67-.47zm-.336-1.409l.02.03.008.036c0 .025-.01.048-.028.066-.065.07-.131.135-.131.201s.134.132.402.132c1.162.15 2.342.106 3.49-.132h.065c.157.144.339.258.536.335.066 0 .066 0 .066.066v.138c-.98.279-1.998.415-3.018.403-1.074 0-2.016-.201-2.148-.604-.067-.268.135-.47.738-.67zm5.3-1.416a1.217 1.217 0 011.341.201c.247.245.35.6.268.94-.134.334-.537 1.072-2.147 1.475l-.065-.066a.093.093 0 010-.131l.065-.066c1.074-.605 1.61-1.208 1.409-1.745a.69.69 0 00-.805-.47 1.058 1.058 0 01-.268.066c0 .066-.066 0-.066 0 .08-.082.17-.15.268-.204zm-4.699.01a.066.066 0 110 .132c-.67.135-1.274.338-1.274.47 0 0 .067.066.47.132a17.27 17.27 0 003.153-.066 18.12 18.12 0 001.946-.269c.036 0 .066.03.066.066 0 .066 0 .132-.066.132 0 0-.336.204-.604.335l-.564.103c-.944.156-1.899.234-2.856.233-1.408 0-2.55-.202-2.619-.462-.067-.134.067-.204.268-.336a4.467 4.467 0 012.08-.47z" fill="#5382A1"/><path d="M12.413 6.215c.066 0 .132 0 .132.065 0 .066 0 .132-.066.132-1.41.805-2.082 1.342-2.147 1.812-.067.335.201.603.47 1.006l.065.268c.187.222.26.518.197.801a1.947 1.947 0 01-1.074 1.14h-.065l-.066-.065a.093.093 0 010-.132.925.925 0 00.402-.67c.067-.202-.07-.403-.2-.604a1.73 1.73 0 01-.538-1.745c.404-1.342 2.824-2.008 2.89-2.008zM10.87 3.526c.24.336.378.732.4 1.143-.068.806-.671 1.61-1.677 2.483-1.61 1.275-1.074 2.013-.47 2.885.194.22.351.468.467.738a.093.093 0 010 .131h-.132C8.251 9.766 7.244 8.76 7.915 7.753c.351-.474.76-.902 1.215-1.276.94-.738 1.878-1.476 1.543-2.885l.066-.066z" fill="#F89823"/></g></svg>