<svg width="20" height="20" viewBox="0 0 20 20" xmlns="http://www.w3.org/2000/svg"><path d="M14.111 11.208a1.82 1.82 0 00-2.262-.257c-.147.088-.28.198-.412.294-.737-.339-.737-.339-.693-1.083.028-.173.028-.35 0-.523-.074-.302-.125-.538.236-.737.36-.199.493-.228.818 0 .742.55 1.782.44 2.394-.25a1.894 1.894 0 00.11-2.366 1.857 1.857 0 00-2.305-.53 1.702 1.702 0 00-1.002 1.871c.058.45-.266.538-.524.649a.781.781 0 01-.538-.11c-.375-.185-.736-.406-1.134-.627a.877.877 0 01.552-1.142 1.739 1.739 0 00.81-2.07A1.916 1.916 0 008.336 3 1.864 1.864 0 006.58 4.319a1.732 1.732 0 00.803 2.078c.67.287.634.737.538 1.245a2.306 2.306 0 00-1.916 2.174c-.035.465.079.93.324 1.326a11.421 11.421 0 001.629 1.43c0 .552 0 .552-.604.965a1.85 1.85 0 001.009 3.404 1.908 1.908 0 001.798-1.341 1.746 1.746 0 00-.81-2.07.847.847 0 01-.539-1.12c.45-.273.833-.524 1.238-.737a.56.56 0 01.406-.045c.405.109.65.52.552.929a1.754 1.754 0 001.408 1.776 1.85 1.85 0 001.716-3.125h-.022zM12.86 6.581a.84.84 0 01.803.892.906.906 0 01-.862.795.921.921 0 01-.848-.884.862.862 0 01.907-.803zm-5.35-1.768a.87.87 0 01.9-.804c.442.04.786.404.802.848a.855.855 0 01-1.47.569.847.847 0 01-.232-.613zm1.695 10.242a.848.848 0 11-1.695.073.847.847 0 01.81-.891.855.855 0 01.892.825l-.007-.007zm-.884-3.861A1.223 1.223 0 119.595 9.97a1.23 1.23 0 01-1.275 1.223zm4.495 2.173a.862.862 0 01-.855-.795.921.921 0 01.84-.892.906.906 0 01.877.847.833.833 0 01-.87.833l.008.007z" fill="#000" fill-rule="nonzero"/></svg>