<svg width="20" height="20" viewBox="0 0 20 20" xmlns="http://www.w3.org/2000/svg"><g transform="translate(4.5 3)" fill="#509EE3" fill-rule="nonzero"><circle cx=".833" cy="3.579" r="1"/><circle cx=".833" cy="5.966" r="1"/><circle opacity=".2" cx="3.167" cy="3.579" r="1"/><circle cx="3.167" cy="5.989" r="1"/><circle opacity=".2" cx="5.5" cy="3.579" r="1"/><circle opacity=".2" cx="5.5" cy=".852" r="1"/><circle opacity=".2" cx="5.5" cy="5.989" r="1"/><circle opacity=".2" cx="7.833" cy="3.579" r="1"/><circle cx="10.167" cy="3.579" r="1"/><circle cx="7.833" cy="5.989" r="1"/><circle cx="10.167" cy="5.989" r="1"/><circle cx=".833" cy="8.352" r="1"/><circle opacity=".2" cx="3.167" cy="8.375" r="1"/><circle cx="5.5" cy="8.375" r="1"/><circle opacity=".2" cx="7.833" cy="8.375" r="1"/><circle cx="10.167" cy="8.375" r="1"/><circle cx=".833" cy="10.738" r="1"/><circle opacity=".2" cx="3.167" cy="10.761" r="1"/><circle opacity=".2" cx="5.5" cy="10.761" r="1"/><circle opacity=".2" cx="5.5" cy="13.148" r="1"/><circle opacity=".2" cx="7.833" cy="10.761" r="1"/><circle cx="10.167" cy="10.761" r="1"/></g></svg>