<svg width="20" height="20" viewBox="0 0 20 20" xmlns="http://www.w3.org/2000/svg"><g fill-rule="nonzero" fill="none"><path d="M3.38 11.386V9.43h.456v.248c.115-.2.365-.305.591-.305.263 0 .493.117.6.346.157-.258.39-.346.65-.346.361 0 .707.225.707.744v1.27h-.46v-1.194c0-.23-.12-.402-.387-.402-.25 0-.415.193-.415.434v1.162h-.468v-1.194c0-.225-.116-.4-.387-.4-.255 0-.415.184-.415.433v1.162h-.473zM6.967 11.386v-2.91h.477v2.91z" fill="#333"/><path d="M7.252 12.452c.107.029.204.048.408.048.38 0 .83-.21.947-.799l.488-2.361h.725l.088-.393h-.732l.098-.47c.076-.364.282-.548.613-.548.086 0 .062.007.138.021l.106-.402A1.229 1.229 0 009.74 7.5a.956.956 0 00-.584.187.995.995 0 00-.364.613l-.137.647h-.648l-.053.393h.621l-.448 2.184c-.049.247-.193.543-.606.543-.094 0-.06-.007-.144-.02l-.124.405z" fill="#0194E2"/><path d="M12.627 9.552a1.042 1.042 0 00-1.332.132.987.987 0 00-.063 1.308l.312-.224a.62.62 0 01-.081-.665.646.646 0 01.576-.361l-.007.238.595-.428z" fill="#43C9ED"/><path fill="#0194E2" d="M10.25 11.37h-.478l.654-2.937h.476zM12.858 9.775a.89.89 0 00-.032-.041l-.3.217a.62.62 0 01.112.675.645.645 0 01-.582.379l.007-.239-.602.434a1.04 1.04 0 001.31-.136.986.986 0 00.088-1.287v-.002zM13.437 9.428h.52l.106 1.338.742-1.338.494.007.195 1.33.653-1.337.477.007-.99 1.952h-.476l-.23-1.399-.759 1.4h-.494zM16.911 9.463h-.098v-.034h.237v.035h-.098v.282h-.04zM17.11 9.43h.05l.061.168.023.066h.002l.023-.066.061-.169h.05v.317h-.039v-.175c0-.027.003-.065.005-.094h-.002l-.024.073-.062.164h-.026l-.062-.164-.025-.072h-.002c.002.028.006.066.006.094v.175h-.038l-.001-.318z"/></g></svg>