<svg width="20" height="20" viewBox="0 0 20 20" xmlns="http://www.w3.org/2000/svg"><path d="M3.117 3.677c.412-.973 1.796-.241 2.333.1.135.141.28.272.436.39h.707c.418.072.824.203 1.206.389a9.497 9.497 0 013.655 3.53c.182.349.343.707.483 1.074.24.552.505 1.12.777 1.641.103.255.234.497.39.723.062.094.256.125.365.18.311.163.684.287.98.474.547.346 1.067.733 1.555 1.159.18.155.304.38.475.552v.109l-.451.132c-.327.086-.622.062-.941.148a3.788 3.788 0 01-.654.155l.05.103c.196.303.758.548 1.031.737.373.265.704.585.98.95l.28.248c.07.093.086.218.164.288l-.048-.02c-.078-.044-.076-.101-.256-.221-.21-.14-.412-.311-.622-.444a3.518 3.518 0 00-.281-.154l-.58-.274-.282-.155c-.21-.132-.412-.288-.607-.435a2.201 2.201 0 01-.49-.576c-.062-.109-.17-.124-.148-.303.014-.103.093-.146.185-.175l.14-.038.064-.02a4.356 4.356 0 011.828-.265c-.031-.187-.505-.42-.653-.537-.304-.21-.622-.443-.941-.638a6.759 6.759 0 00-.654-.264c-.256-.101-.824-.21-.964-.404a6.222 6.222 0 01-.669-1.26c-.194-.452-.443-.918-.638-1.385-.1-.225-.148-.42-.264-.638a8.361 8.361 0 00-2.94-3.22 6.028 6.028 0 00-1.338-.622c-.288-.101-.622-.039-.926-.101H5.66c-.171-.047-.311-.226-.443-.319a4.783 4.783 0 00-.934-.474c-.116-.086-.466-.187-.59-.086a.148.148 0 00-.133.125c-.117.116-.047.287 0 .388.15.26.324.505.521.732.179.227.337.469.475.723.256.529.365 1.112.622 1.61.095.212.21.415.342.607.101.147.233.233.35.427.117.195-.171.817-.233 1.011a4.076 4.076 0 00.085 2.52c.117.257.218.568.521.646l.022-.29c.04-.385.12-.765.243-1.133.126-.229.277-.443.45-.638.094.062.094.233.149.342.124.288.256.607.404.902.307.597.664 1.167 1.066 1.704.148.202.311.392.49.567.08.052.154.115.217.187l-.132-.068c-.208-.133-.364-.357-.552-.5a5.382 5.382 0 01-1.229-1.26c-.124-.256-.257-.513-.389-.777l-.036.057c-.026.058-.026.12-.026.207-.124.467.031.949-.451 1.174-.482.226-.84-.318-.988-.552a4.153 4.153 0 01-.272-3.165c.04-.245.113-.483.218-.708-.024-.171-.156-.218-.234-.319a4.457 4.457 0 01-.35-.583c-.192-.4-.361-.81-.505-1.23-.062-.17-.086-.334-.148-.497a4.418 4.418 0 00-.482-.708c-.218-.342-.848-.94-.591-1.555zm3.072 1.85c.078.079.202.125.257.219.035.066.074.131.116.194a.529.529 0 01-.202.474l-.218-.45a3.181 3.181 0 01-.303-.39l.115-.024c.078-.014.156-.021.235-.022z" fill="#6A7E91" fill-rule="evenodd"/></svg>