<svg width="20" height="20" viewBox="0 0 20 20" xmlns="http://www.w3.org/2000/svg"><g filter="url(#filter0_f_1388_9508)" fill="transparent" stroke="#336791"><path d="M9.491 12.833c-.052 1.814.014 3.64.198 4.085.184.444.579 1.307 1.935 1.027 1.133-.234 1.546-.687 1.725-1.687a60.24 60.24 0 00.418-3.197M7.866 3.74S1.724 1.32 2.01 6.82c.06 1.17 1.74 8.854 3.744 6.533.732-.848 1.394-1.514 1.394-1.514M11.183 3.298c-.213.064 3.416-1.278 5.478 1.26.729.898-.116 4.563-2.135 7.45" stroke-width=".655" stroke-linecap="round" stroke-linejoin="round"/><path d="M14.526 12.008s.132.624 2.044.244c.838-.167.334.467-.516.848-.697.312-2.261.392-2.287-.04-.066-1.112.823-.774.76-1.052-.059-.251-.456-.497-.72-1.112-.229-.536-3.147-4.647.81-4.036.145-.03-1.032-3.627-4.736-3.686-3.702-.058-3.58 4.388-3.58 4.388" stroke-width=".655" stroke-linecap="round" stroke-linejoin="bevel"/><path d="M8.455 12.388c-.516.556-.365.653-1.396.858-1.044.207-.431.576-.03.673.485.117 1.608.282 2.367-.741.23-.312-.002-.81-.32-.936-.152-.062-.358-.138-.621.146v0z" stroke-width=".655" stroke-linecap="round" stroke-linejoin="round"/><path d="M8.421 12.378c-.052-.326.111-.715.287-1.17.263-.682.87-1.365.384-3.53-.362-1.612-2.79-.335-2.792-.116-.001.218.11 1.108-.04 2.145-.197 1.352.893 2.496 2.147 2.379" stroke-width=".655" stroke-linecap="round" stroke-linejoin="round"/><path d="M7.843 7.529c-.01.075.142.274.341.3.2.027.37-.128.38-.203.011-.075-.141-.157-.34-.184-.2-.027-.37.012-.38.087h0z" stroke-width=".17"/><path d="M13.905 7.377c.01.074-.142.274-.341.3-.2.027-.37-.129-.38-.203-.011-.075.141-.157.34-.184.2-.027.37.012.38.087v0z" stroke-width=".164"/><path d="M14.617 6.86c.033.586-.13.985-.152 1.609-.03.906.45 1.944-.273 2.983" stroke-width=".655" stroke-linecap="round" stroke-linejoin="round"/></g><defs><filter id="filter0_f_1388_9508" x="1.508" y="2.508" width="15.983" height="15.983" filterUnits="userSpaceOnUse" color-interpolation-filters="sRGB"><feFlood flood-opacity="0" result="BackgroundImageFix"/><feBlend in="SourceGraphic" in2="BackgroundImageFix" result="shape"/><feGaussianBlur stdDeviation=".082" result="effect1_foregroundBlur_1388_9508"/></filter></defs></svg>