<svg width="20" height="20" viewBox="0 0 20 20" xmlns="http://www.w3.org/2000/svg"><g fill-rule="nonzero" fill="none"><path d="M14.086 8.276c-.706-.082-.992.077-1.107.236-.375.54.363 1.858.675 2.424.082.147.14.249.165.312.03.064.064.126.102.185.164-.437.2-.912.102-1.368a4.556 4.556 0 01-.045-.681c.009-.2.03-.4.064-.599.026-.168.04-.338.044-.509zm-.407.408a.37.37 0 01-.21.114h-.038a.305.305 0 01-.286-.19c0-.09.133-.16.286-.179.153-.019.312 0 .324.096a.23.23 0 01-.076.152v.007zM9.97 12.553c-.096-.038-.154-.064-.275.07-.076.089-.14.159-.184.229-.223.28-.325.375-.98.509a1.177 1.177 0 00-.255.076.802.802 0 00.242.102c.594.2 1.249-.008 1.617-.515a.267.267 0 000-.23.382.382 0 00-.166-.241zM7.704 10.364c.063-.494.075-.993.038-1.49v-.178a4.493 4.493 0 01.999-2.959c-.636-.203-2.196-.636-3.182.064-.585.414-.853 1.19-.802 2.297.127.966.34 1.918.637 2.845.439 1.438.935 2.348 1.368 2.488.063 0 .267.089.553-.261.414-.496.802-.923.98-1.107a1.744 1.744 0 01-.133-.115 1.91 1.91 0 01-.458-1.584z" fill="#010101"/><path d="M9.555 11.573v-.07c.032-.096.077-.185.121-.28a3.31 3.31 0 00.172-2.418.547.547 0 00-.426-.478 1.992 1.992 0 00-1.35.395v.114c.041.522.028 1.047-.037 1.566-.069.463.079.932.4 1.273.239.257.573.404.923.407.056-.174.122-.344.197-.51zm-.464-2.788a.223.223 0 01-.051-.146.115.115 0 01.05-.076.452.452 0 01.313-.045c.073.01.144.03.21.064.095.057.108.114.102.146a.337.337 0 01-.319.217h-.05a.407.407 0 01-.255-.16z" fill="#010101"/><path d="M13.883 12.03c-.165-.19-.3-.404-.401-.635 0-.045-.077-.153-.147-.274-.375-.675-1.164-2.081-.636-2.806.21-.344.675-.497 1.356-.414a4.06 4.06 0 00-.732-1.273 3.5 3.5 0 00-2.673-1.273c-.615-.03-1.213.201-1.648.637-.54.645-.85 1.45-.885 2.29l.102-.057c.273-.139.568-.23.872-.267a.942.942 0 011.139.77c.27.875.201 1.82-.19 2.647-.04.09-.077.172-.11.255v.07a4.32 4.32 0 00-.152.47.566.566 0 01.363.045.732.732 0 01.4.478.675.675 0 010 .108v.057a14.395 14.395 0 00.14 3.182.974.974 0 001.274.706 1.273 1.273 0 001.177-1.19c.095-.572.293-2.195.318-2.545 0-.675.337-.808.54-.866l-.107-.114z" fill="#010101"/><path d="M16.613 12.273a.636.636 0 00-.528-.427 1.21 1.21 0 00-.42 0c-.21.046-.423.073-.637.083a12.543 12.543 0 001.33-3.182c.44-1.705.204-2.482-.07-2.832a3.818 3.818 0 00-3.073-1.444 5.447 5.447 0 00-1.598.223 5.95 5.95 0 00-.948-.058 3.035 3.035 0 00-1.629.401 7.426 7.426 0 00-1.145-.286 3.557 3.557 0 00-2.692.426C4.4 5.744 4.032 6.73 4.095 8.098a16.8 16.8 0 00.637 3.023c.184.617.425 1.215.719 1.788.207.535.613.968 1.133 1.21.382.127.804.037 1.1-.236a.96.96 0 00.23.197c.136.084.284.146.439.185.504.142 1.042.11 1.527-.09v.529c-.006.516.063 1.03.204 1.527v.083c.08.304.238.582.458.808.263.24.61.368.967.356a2.17 2.17 0 00.452-.05 2.125 2.125 0 001.425-.828 4.74 4.74 0 00.592-2.603v-.172h.108c.5.022 1-.065 1.464-.254.35-.127 1.285-.624 1.063-1.298zm-1.158.954c-.37.15-.766.226-1.165.223a1.63 1.63 0 01-.51-.076 48.861 48.861 0 01-.285 2.227 1.604 1.604 0 01-1.458 1.483 2.03 2.03 0 01-.426.05 1.317 1.317 0 01-1.273-.973 10.984 10.984 0 01-.178-2.616 1.68 1.68 0 01-1.158.433 2.38 2.38 0 01-.547-.089c-.058 0-.56-.153-.554-.47.006-.319.426-.383.585-.414.56-.115.592-.16.764-.382l.127-.153a1.604 1.604 0 01-.744-.197c-.14.152-.554.592-1 1.132a.948.948 0 01-.725.408.713.713 0 01-.229-.038c-.56-.23-1.094-1.127-1.59-2.775a16.405 16.405 0 01-.637-2.934c-.064-1.272.26-2.119.954-2.615a3.226 3.226 0 012.412-.344c.434.07.86.18 1.273.331a2.622 2.622 0 011.553-.433c.304.006.608.047.903.121a4.71 4.71 0 011.623-.26 3.462 3.462 0 012.794 1.304c.191.3.279.656.248 1.012a6.644 6.644 0 01-.23 1.502 12.155 12.155 0 01-1.558 3.493c.095.077.407.21 1.31 0 .3-.063.478 0 .535.16.102.368-.496.738-.814.89z" fill="#010101"/><path d="M13.545 6.393c.427.472.731 1.043.885 1.66a.242.242 0 010 .07c.006.24-.014.478-.057.713a4.455 4.455 0 00-.064.56 4.22 4.22 0 00.045.637c.132.592.049 1.213-.236 1.75l.038.05c1.439-2.258 1.91-4.88 1.483-5.453a3.06 3.06 0 00-2.412-1.145 4.71 4.71 0 00-1.062.101 3.99 3.99 0 011.38 1.057zM14.233 12.508l-.051-.038h-.077c-.165.045-.324.09-.305.515.189.08.396.107.598.077a2.64 2.64 0 00.891-.185c.188-.083.362-.195.516-.33-.511.18-1.07.166-1.572-.039z" fill="#010101"/><path d="M8.2 11.93a1.91 1.91 0 01-.496-1.566c.063-.494.075-.993.038-1.49v-.178a4.493 4.493 0 01.999-2.959c-.636-.203-2.196-.636-3.182.064-.585.414-.853 1.19-.802 2.297.127.966.34 1.918.637 2.845.439 1.438.935 2.348 1.368 2.488.063 0 .267.089.553-.261.414-.496.802-.923.98-1.107a1.744 1.744 0 01-.095-.134zM15.295 12.91c.188-.084.362-.196.516-.332a2.215 2.215 0 01-1.566-.063l-.063-.045h-.077c-.165.045-.324.09-.305.515.189.08.396.107.598.077.306.001.61-.05.897-.153z" fill="#356892"/><path d="M10.67 16.027a.974.974 0 001.272.707 1.273 1.273 0 001.177-1.19c.096-.573.293-2.196.318-2.546 0-.674.338-.808.541-.865l-.095-.128c-.165-.19-.3-.405-.401-.636 0-.044-.077-.153-.147-.274-.375-.674-1.164-2.08-.636-2.806.21-.318.675-.47 1.356-.388a4.06 4.06 0 00-.732-1.273 3.5 3.5 0 00-2.673-1.273c-.615-.03-1.213.201-1.648.637-.54.645-.85 1.45-.885 2.29l.102-.057c.273-.139.568-.23.872-.267a.942.942 0 011.139.77c.27.875.201 1.82-.19 2.647-.04.09-.077.172-.11.255v.07a4.32 4.32 0 00-.152.47.566.566 0 01.363.045.732.732 0 01.4.478.675.675 0 010 .108v.057a14.395 14.395 0 00.128 3.17z" fill="#356892"/><path d="M9.384 12.088a4.72 4.72 0 01.171-.515v-.07c.032-.096.077-.185.121-.28a3.31 3.31 0 00.172-2.418.547.547 0 00-.426-.478 1.992 1.992 0 00-1.35.395v.114c.041.522.028 1.047-.037 1.566-.069.463.079.932.4 1.273.244.265.588.416.949.413zM9.09 8.563a.452.452 0 01.312-.045c.073.01.144.03.21.064.095.057.108.114.102.146a.337.337 0 01-.319.217h-.05a.407.407 0 01-.255-.16.223.223 0 01-.051-.146.115.115 0 01.05-.076zM14.086 8.276c-.706-.082-.992.077-1.107.236-.375.54.363 1.858.675 2.424.082.147.14.249.165.312.03.064.064.126.102.185.164-.437.2-.912.102-1.368a4.556 4.556 0 01-.045-.681c.009-.2.03-.4.064-.599.026-.168.04-.338.044-.509zm-.407.408a.37.37 0 01-.21.114h-.038a.305.305 0 01-.286-.19c0-.09.133-.16.286-.179.153-.019.312 0 .324.096a.23.23 0 01-.076.152v.007zM10.135 13.024a.267.267 0 000-.23.382.382 0 00-.191-.241c-.096-.038-.153-.064-.274.07-.076.089-.14.159-.185.229-.222.28-.324.375-.98.509a1.177 1.177 0 00-.254.076.802.802 0 00.242.102c.6.213 1.27.003 1.642-.515z" fill="#356892"/><path d="M13.545 6.393c.427.472.731 1.043.885 1.66a.242.242 0 010 .07c.006.24-.014.478-.057.713a4.455 4.455 0 00-.064.56 4.22 4.22 0 00.045.637c.132.592.049 1.213-.236 1.75l.038.05c1.439-2.258 1.91-4.88 1.483-5.453a3.06 3.06 0 00-2.412-1.145 4.71 4.71 0 00-1.062.101 3.99 3.99 0 011.38 1.057z" fill="#356892"/></g></svg>