<svg width="20" height="20" viewBox="0 0 20 20" xmlns="http://www.w3.org/2000/svg"><defs><linearGradient x1="67.094%" y1="100%" x2="67.094%" y2="0%" id="bbyilRa"><stop stop-color="#5C9FD3" offset="0%"/><stop stop-color="#316A99" offset="100%"/></linearGradient><linearGradient x1="37.909%" y1="0%" x2="37.909%" y2="100%" id="bbyilRb"><stop stop-color="#FFD53D" offset="0%"/><stop stop-color="#FEE875" offset="100%"/></linearGradient></defs><g fill-rule="nonzero" fill="none"><path d="M7.057 0a11.9 11.9 0 00-1.65.142c-1.435.284-1.722.78-1.722 1.774v1.277H7.13v.425H2.394A2.128 2.128 0 00.242 5.321a6.36 6.36 0 000 3.476c.093.927.853 1.65 1.793 1.703h1.148V8.94a2.195 2.195 0 012.152-2.13h3.443A1.736 1.736 0 0010.5 5.109V1.916A1.906 1.906 0 008.778.142 12.99 12.99 0 007.057 0zM5.192 1.064c.356 0 .645.286.645.639a.642.642 0 01-.645.638.642.642 0 01-.646-.638c0-.353.29-.639.646-.639z" fill="url(#bbyilRa)" transform="translate(3 3)"/><path d="M10.748 3.5v1.486a2.134 2.134 0 01-2.132 2.123h-3.41A1.725 1.725 0 003.5 8.807v3.255c0 .92.782 1.486 1.705 1.699 1.115.319 2.297.319 3.411 0 .853-.213 1.705-.779 1.705-1.699V10.79h-3.41v-.425h5.116c.994 0 1.35-.708 1.705-1.698a5.742 5.742 0 000-3.468c-.213-.99-.71-1.698-1.705-1.698h-1.28zm-1.919 8.209a.635.635 0 01.452 1.087.641.641 0 01-1.091-.45c0-.352.286-.637.64-.637z" fill="url(#bbyilRb)" transform="translate(3 3)"/></g></svg>