<svg width="20" height="20" viewBox="0 0 20 20" xmlns="http://www.w3.org/2000/svg"><g fill-rule="nonzero" fill="none"><path d="M14.732 12.826a1.141 1.141 0 00-.378-.441 3.752 3.752 0 00-.777-.322c.161 0 .294-.056.427-.098a2.212 2.212 0 001.12-.7c.374-.48.53-1.094.427-1.694a1.764 1.764 0 00-.847-1.351 2.478 2.478 0 00-.798-.315 2.555 2.555 0 00-.546-.063H8.915c-.084 0-.105 0-.105.105v7.546h2.317v-1.337-.105-1.036-.462c0-.042 0-.063.056-.063h.602a.497.497 0 01.315.21c.069.07.128.151.175.238.167.254.316.518.448.791l.658 1.225.28.532H16.3l-1.456-2.45a1.526 1.526 0 01-.112-.21zm-2.184-2.03h-1.337c-.063 0-.07 0-.07-.077V9.571c0-.063 0-.077.077-.077h1.337a.609.609 0 01.63.749.623.623 0 01-.637.553z" fill="#3374BA"/><path d="M11.995 13.001c.022.026.04.054.056.084l.12.183c.076.124.146.252.209.384l.091.168a9.1 9.1 0 01-.903.189h-.182v-1.008zM10.539 5c.132.027.265.043.399.049a9.275 9.275 0 012.38.539 6.3 6.3 0 012.471 1.589c.426.443.736.984.903 1.575.042.182.063.357.077.511v.567a.133.133 0 000 .07 3.178 3.178 0 01-.161.7 4.361 4.361 0 01-1.75 2.002l-.063-.105v-.098l-.042-.049-.084-.084-.049-.042c.327-.176.617-.414.854-.7.391-.517.576-1.16.518-1.806a2.485 2.485 0 00-.833-1.764 3.682 3.682 0 00-1.162-.7 7.497 7.497 0 00-2.408-.448 9.1 9.1 0 00-1.729.07 6.657 6.657 0 00-2.401.791 3.5 3.5 0 00-1.232 1.134 1.96 1.96 0 00-.266 1.631c.15.49.446.921.847 1.239.514.43 1.109.755 1.75.952v1.372a7.987 7.987 0 01-.854-.168 8.001 8.001 0 01-2.1-.819A5.096 5.096 0 013.742 11.3a3.129 3.129 0 01-.182-3.171A4.55 4.55 0 015.163 6.4a7.532 7.532 0 012.331-1.113A8.743 8.743 0 019.279 5a.812.812 0 00.28 0z" fill="#C3C4C8"/></g></svg>