<svg width="20" height="20" viewBox="0 0 20 20" xmlns="http://www.w3.org/2000/svg"><g transform="translate(1 6)" fill-rule="nonzero" fill="none"><circle fill="#75AADB" transform="rotate(-45 3.786 3.788)" cx="3.786" cy="3.788" r="2.674"/><g fill="#4D4D4D"><path d="M7.029 4.581c.139.089.337.156.551.156.317 0 .502-.167.502-.409 0-.22-.128-.352-.452-.473-.39-.142-.632-.348-.632-.682 0-.374.309-.651.775-.651.241 0 .423.057.526.117l-.085.253a.884.884 0 00-.452-.114c-.327 0-.451.196-.451.36 0 .224.146.333.476.462.406.156.609.352.609.704 0 .37-.27.693-.836.693-.23 0-.483-.07-.611-.156l.08-.26zM9.177 2.825v.412h.448v.239h-.448v.927c0 .214.06.334.235.334a.566.566 0 00.18-.021l.015.238a.846.846 0 01-.277.042.447.447 0 01-.338-.13c-.085-.097-.12-.25-.12-.452v-.938h-.267v-.239h.266v-.32l.306-.092zM11.417 4.485c0 .182.003.338.013.473h-.277l-.018-.28h-.007a.643.643 0 01-.568.32c-.27 0-.594-.153-.594-.753V3.237h.313v.95c0 .327.103.551.384.551a.45.45 0 00.441-.448V3.237h.313v1.248zM13.419 2.434v2.08c0 .153.007.327.014.444h-.277l-.014-.298h-.01c-.093.191-.3.337-.58.337-.416 0-.74-.352-.74-.875-.004-.572.355-.92.771-.92.267 0 .441.123.52.259h.007V2.434h.309zm-.31 1.503a.565.565 0 00-.014-.13.46.46 0 00-.451-.36c-.324 0-.515.285-.515.661 0 .349.174.637.508.637.21 0 .402-.142.458-.374a.559.559 0 00.014-.135v-.299zM14.29 2.753c0 .107-.075.192-.2.192-.114 0-.188-.086-.188-.192 0-.107.079-.196.196-.196.113.001.192.087.192.196zm-.349 2.205v-1.72h.313v1.72h-.313zM16.33 4.083c0 .636-.444.914-.856.914-.463 0-.825-.342-.825-.885 0-.573.38-.91.853-.91.495 0 .829.359.829.881zm-1.361.018c0 .377.213.661.52.661.298 0 .523-.28.523-.669 0-.291-.146-.657-.516-.657-.367 0-.527.342-.527.665z"/></g><path d="M4.701 4.642h.29v.225h-.443l-.733-1.1h-.391v.875h.382v.225h-.962v-.225h.33V2.704l-.33-.04V2.45c.125.029.234.049.37.049.205 0 .415-.049.62-.049.4 0 .77.181.77.624 0 .343-.206.56-.524.653l.621.915zM3.424 3.55l.21.004c.511.008.708-.189.708-.451 0-.307-.222-.428-.503-.428-.133 0-.27.013-.415.029v.846z" fill="#FFF"/><g fill="#4D4D4D"><path d="M16.155 2.558a.202.202 0 100 .405.202.202 0 000-.405zm.169.202a.169.169 0 11-.337 0 .169.169 0 01.337 0z"/><path d="M16.226 2.842l-.05-.073c.029-.01.044-.031.044-.06 0-.045-.038-.06-.073-.06-.01 0-.019 0-.028.002a.278.278 0 01-.026.002.124.124 0 01-.032-.004l-.005-.001v.028l.029.004v.162h-.03v.03h.095v-.03h-.034v-.068h.028l.063.095.001.002h.046v-.03h-.028v.001zm-.01-.116a.046.046 0 01-.017.037c-.013.01-.034.015-.06.015h-.023v-.097l.045-.003c.025 0 .055.009.055.048z"/></g></g></svg>