<svg width="20" height="20" viewBox="0 0 20 20" xmlns="http://www.w3.org/2000/svg"><g fill="none"><path d="M16.623 6.302L9.989 2.286 3.377 6.302v7.65L10 17.776l6.623-3.824v-7.65z" fill="#428BCA"/><path opacity=".25" d="M9.989 8.467c2.442 0 4.546-1.086 5.483-2.645L10 2.663l-5.49 3.17c.942 1.553 3.04 2.634 5.479 2.634z" fill="url(#paint0_linear_1071_4936)"/><path d="M17 14.125V6.041l-.558-.322-5.293-3.056L10 2l-1.149.663-5.293 3.056L3 6.041v8.082l.558.322 5.36 3.095 1.084.624 1.084-.625 5.36-3.094.554-.32zm-13.442-.303v-7.44l.953-.55L10 2.663l5.472 3.159.97.56v7.44L10 17.542l-6.442-3.72z" fill="#3674A8"/><path d="M9.99 14.059l.018-.018h-.006a.046.046 0 01-.011.018z" fill="#E6B35A"/><path d="M9.962 17.172l.086.085c.019.02.036.037.051.056h.002c-.008-.023-.013-.048-.02-.073l-.026-.12.03-.017.09.082.056.055h.002a.522.522 0 01-.023-.072l-.03-.116.035-.021.052.234-.033.02-.085-.079a.758.758 0 01-.056-.055c.008.025.016.05.021.076l.023.114-.032.02-.175-.164.032-.025zM10.27 16.993l.086.085c.02.02.037.037.052.056h.002c-.008-.023-.014-.048-.02-.073l-.026-.12.03-.017.09.082c.02.02.04.038.055.055h.002a.535.535 0 01-.023-.072l-.03-.116.036-.021.051.236-.032.019-.086-.078a.76.76 0 01-.055-.055c.008.024.015.05.021.076l.023.114-.032.02-.176-.167.033-.024zM10.58 16.814l.085.085c.019.02.036.037.051.056h.002a.805.805 0 01-.019-.073l-.026-.12.03-.017.09.082c.02.019.04.038.055.055h.002c-.01-.025-.015-.05-.023-.074l-.03-.116.036-.021.051.236-.032.019-.086-.078a.758.758 0 01-.055-.055c.007.024.015.05.02.076l.024.114-.033.02-.175-.165.032-.024zM10.945 16.837c-.01-.014-.006-.031.008-.04 0 0 .002 0 .002-.003.015-.007.032 0 .04.016a.033.033 0 01-.01.038c-.013.01-.03.004-.04-.011.002.001 0 .001 0 0zM10.972 16.667a1.151 1.151 0 00-.038-.061l.032-.02.025.039h.002a.068.068 0 01.03-.076c.004-.002.008-.004.012-.004l.019.034-.014.006a.057.057 0 00-.02.074c.001.006.005.012.007.017l.061.107-.034.021-.082-.137zM11.16 16.692a.125.125 0 00.057-.014c.027-.015.031-.036.021-.051-.009-.015-.026-.021-.059-.015-.043.007-.072-.002-.085-.025-.02-.032-.008-.072.034-.1a.117.117 0 01.057-.014l.006.032a.103.103 0 00-.048.011.035.035 0 00-.019.044l.002.004c.01.017.027.017.057.011.042-.007.07 0 .088.029.02.034.007.076-.04.103a.13.13 0 01-.065.019l-.006-.034zM11.244 16.349l.034.057.052-.03.017.028-.051.03.063.107c.015.025.028.035.049.023a.073.073 0 00.02-.015l.016.027a.108.108 0 01-.028.022.06.06 0 01-.048.008.082.082 0 01-.044-.044l-.063-.109-.03.018-.015-.029.03-.017-.029-.048.027-.028zM11.621 16.4l.033.053-.033.02-.02-.03c0 .031-.018.06-.044.075-.03.02-.079.023-.12-.047l-.069-.117.036-.02.063.11c.023.038.048.057.082.038a.06.06 0 00.029-.06.095.095 0 00-.008-.022l-.07-.122.036-.02.085.142zM11.715 16.027l.14.24.033.051-.032.02-.021-.035a.085.085 0 01-.046.078c-.048.029-.108.01-.145-.051-.038-.067-.02-.132.027-.158a.077.077 0 01.078-.004l-.069-.118.035-.023zm.065.196l-.01-.015a.06.06 0 00-.076-.012c-.038.021-.04.067-.015.113.022.04.062.063.1.04a.064.064 0 00.03-.075l-.008-.017-.021-.034zM11.837 16.006c.007.013.004.028-.01.036a.026.026 0 01-.036-.01c-.008-.011-.004-.028.008-.034h.002c.011-.01.028-.006.036.008 0-.002 0-.002 0 0zm.108.278l-.116-.2.036-.021.117.2-.037.02zM12.162 16.021c.042.074.01.135-.038.164-.053.032-.118.015-.154-.048-.038-.067-.017-.131.038-.164.055-.032.118-.011.155.048zm-.156.095c.025.044.07.061.105.042.034-.019.042-.068.015-.112-.019-.034-.06-.067-.104-.042s-.039.074-.016.112zM12.237 16.086c-.008-.014-.002-.03.013-.038.014-.008.03-.002.038.013.008.013.002.03-.011.038a.028.028 0 01-.038-.01c-.002-.001-.002-.003-.002-.003zM12.48 15.962a.136.136 0 01-.049.044c-.059.034-.124.017-.158-.044a.119.119 0 01.034-.162l.012-.006a.145.145 0 01.055-.019l.008.033a.088.088 0 00-.048.015c-.046.027-.051.074-.027.116.027.046.073.057.113.034a.118.118 0 00.038-.036l.023.025zM12.646 15.74c.044.075.012.136-.038.165-.053.03-.118.015-.154-.048-.038-.066-.017-.131.038-.164.055-.032.118-.013.154.048zm-.158.094c.025.044.07.061.105.042.034-.019.042-.068.015-.112-.019-.034-.06-.067-.104-.042s-.037.074-.016.112zM12.665 15.67c-.01-.02-.022-.038-.032-.053l.033-.019.02.03h.002a.076.076 0 01.042-.072.07.07 0 01.08.008c0-.014.002-.027.008-.038a.083.083 0 01.036-.04c.027-.016.076-.021.116.047l.069.118-.034.021-.067-.112c-.023-.038-.05-.053-.078-.036a.052.052 0 00-.023.057.057.057 0 00.008.019l.072.124-.036.02-.07-.12c-.02-.032-.046-.047-.075-.03a.064.064 0 00-.017.082l.07.12-.036.021-.088-.147z" fill="#fff"/><path opacity=".9" d="M5.345 10.707c-.062-.002-.02 0 0 0zm-.002 0a.632.632 0 00-.013 0h.033H5.343c.014 0 .02.002 0 0zm.018 0c.665.015 1.36-.139 1.562-.93.131-.51-.196-.882-.486-1.255-.002-.002-.004-.004-.004-.008-.011-.047-.325-.337-.413-.446 0-.002-.002-.002-.004-.003-.042-.03-.086-.185-.107-.271a.233.233 0 01-.002-.109c.077-.388.119-.672.635-.588.371.06.179.606.38.659h.003c.12.011.354-.276.389-.374.133-.377-.637-.607-.871-.592-.47.028-.78.284-.968.705-.347.775.301 1.292.693 1.823.298.402.284.76-.08 1.105-.4.38-.865-.143-.918-.51-.048-.338-.044-.572-.326-.143-.26.398.008.916.517.937zm10.47-1.84v.003a.95.95 0 01-.054.24c-.05.13-.113.256-.189.372-.093.143-.143.2-.24.326a7.644 7.644 0 01-.537.642c-.297.314-.629.674-.99.932-.517.37-1.169.47-1.786.527-1.806.164-4.464.408-5.024 2.363-.004.011-.014.017-.025.013-.006-.002-.01-.004-.012-.01-.548-.937-1.728-1.624-2.821-1.592-.012.002-.021-.004-.023-.015-.002-.012.004-.021.015-.023 2.816-1.399 5.693-.728 8.734-1.271.76-.135 1.398-.634 1.857-1.235.176-.226.4-.419.555-.66.025-.04.152-.359-.046-.224-.306.208-.566.465-.899.627a.389.389 0 01-.05.021c-.005.002-.01.008-.011.013a1.91 1.91 0 01-.2.446c-.101.159-.236.294-.396.395-.149.099-.322.156-.5.17l-.072.001a.677.677 0 01-.341-.067c-.14-.072-.183-.19-.192-.333-.006-.086.047-.179.091-.25a.483.483 0 01.164-.17l.004-.001c.247-.183.668-.196.954-.274.008-.002.014-.008.014-.014l.143-.522c.003-.011-.004-.02-.014-.025a.021.021 0 00-.02.008 2.815 2.815 0 01-.239.303c-.112.118-.2.19-.267.217a.781.781 0 01-.236.05.273.273 0 01-.24-.113c-.063-.08-.097-.198-.105-.354a.616.616 0 010-.084.022.022 0 00-.013-.025.022.022 0 00-.025.014 2.528 2.528 0 01-.421.59c-.126.126-.248.193-.36.2-.212.014-.326-.106-.341-.358-.015-.24.08-.733.286-1.469a.253.253 0 00.013-.099c-.004-.066-.042-.093-.12-.087a.442.442 0 00-.246.102.852.852 0 00-.211.27 3 3 0 00-.301.76c-.038.154-.07.283-.092.384-.023.105-.044.215-.065.33-.015.08-.032.179-.036.194l-.004.015-.524.035-.002-.02c-.003-.045.035-.207.111-.491l-.046.08c-.09.156-.2.3-.327.427-.126.126-.248.192-.36.2h-.023c-.185 0-.29-.145-.307-.43a1.744 1.744 0 01-.004-.174.022.022 0 00-.013-.025.022.022 0 00-.025.013c-.288.528-.547.795-.787.81-.211.014-.326-.112-.343-.375-.019-.292.061-.718.238-1.267a.984.984 0 00.052-.278c-.006-.077-.04-.086-.069-.086h-.007c-.025.002-.079.017-.191.088-.1.064-.185.144-.255.238a1.384 1.384 0 00-.195.352c-.05.134-.09.25-.118.347a4.681 4.681 0 00-.086.354 7.851 7.851 0 01-.076.343 5.183 5.183 0 00-.068.305l-.004.015-.503.033c-.012 0-.021-.008-.021-.02v-.007c.074-.257.179-.674.312-1.238.134-.564.256-1.016.355-1.34.086-.282.186-.56.305-.829.091-.21.215-.405.365-.579.143-.16.303-.245.473-.257.179-.011.274.078.288.263.007.124-.029.29-.107.497-.143.368-.381.797-.71 1.275a.02.02 0 000 .028.02.02 0 00.028 0c.057-.043.118-.083.183-.116.095-.05.2-.078.308-.087.204-.014.313.08.326.276a.575.575 0 01-.023.213l-.064.22c-.023.081-.042.15-.058.201l-.059.214c-.024.09-.043.167-.055.228a1.387 1.387 0 00-.042.368c.008.114.054.114.069.114h.005c.193-.011.42-.346.677-.994l.004-.01c.059-.213.133-.423.223-.625.106-.234.236-.358.388-.367l.305-.016c.012 0 .021.008.021.02a.022.022 0 01-.006.015c-.047.045-.11.167-.186.364l-.172.453a4.699 4.699 0 00-.122.41 1.356 1.356 0 00-.055.411c.01.136.061.136.078.136h.006c.027-.002.076-.021.166-.103.068-.063.127-.134.177-.212.046-.074.095-.167.15-.282.056-.114.103-.213.143-.297.044-.09.061-.12.073-.132l.024-.045c.094-.377.137-.642.128-.789a.162.162 0 00-.017-.072c-.006-.008-.006-.021.004-.027.003-.002.007-.004.011-.004l.212-.013c.123-.008.202 0 .242.026.04.027.064.07.066.117a.69.69 0 01-.013.139c-.002.011.006.02.017.023.006.002.013-.002.017-.006.238-.248.486-.381.741-.396.204-.014.315.083.326.287a.74.74 0 01-.013.195c-.014.064-.046.19-.103.385-.12.417-.177.697-.168.834.006.097.044.109.073.109h.005c.027-.002.077-.021.164-.105.069-.065.128-.137.18-.215a3.03 3.03 0 00.152-.279c.055-.11.1-.21.14-.293l.035-.072.002-.004c.055-.233.12-.425.194-.574.086-.175.183-.291.286-.348.103-.058.244-.09.425-.101a.04.04 0 01.044.036v.004c.002.02-.01.043-.033.072-.127.14-.251.385-.371.732-.12.346-.172.638-.158.87.007.107.034.162.08.162h.004c.112-.007.255-.146.42-.415.163-.255.29-.53.382-.817l.047-.164c.021-.073.037-.12.044-.147.008-.027.023-.065.042-.112a.421.421 0 01.055-.105l.065-.069a.215.215 0 01.093-.06c.09-.027.181-.045.275-.052l.211-.014c.01-.003.021.002.025.012s-.002.02-.011.025l-.004.003c-.095.075-.189.252-.276.528-.073.235-.134.452-.181.644-.048.193-.079.31-.09.353l-.074.3a12.32 12.32 0 01-.075.294c-.003.01 0 .021.01.025a.018.018 0 00.019-.004 3.06 3.06 0 00.572-.442c.097-.097.834-.916.868-.396l.004.023zM8.774 6.512c-.074.004-.206.118-.404.628-.137.353-.27.755-.398 1.197-.004.011.004.021.013.025.008.002.017 0 .023-.008.343-.524.581-.96.707-1.301.078-.233.114-.387.11-.456-.005-.083-.038-.083-.047-.083l-.004-.002zm4.948 3.591c.004-.01-.002-.02-.012-.025a.012.012 0 00-.01 0c-.104.021-.207.039-.308.063-.143.035-.36.069-.47.189l-.004.006a.458.458 0 00-.02.192c.005.06.062.114.111.154a.227.227 0 00.162.048c.225-.017.41-.227.55-.627zm-3.407-2.452c.122-.006.275-.051.31-.232a.248.248 0 00-.062-.202c-.03-.027-.072-.038-.128-.035a.325.325 0 00-.184.098c-.084.078-.08.19-.054.264.025.063.069.105.118.107z" fill="#fff"/></g><defs><linearGradient id="paint0_linear_1071_4936" x1="9.974" y1="-.351" x2="9.999" y2="8.48" gradientUnits="userSpaceOnUse"><stop stop-color="#fff" stop-opacity=".83"/><stop offset=".56" stop-color="#fff" stop-opacity=".37"/><stop offset="1" stop-color="#fff" stop-opacity="0"/></linearGradient></defs></svg>