<svg width="20" height="20" viewBox="0 0 20 20" xmlns="http://www.w3.org/2000/svg"><path d="M15.082 5.8c-.903.224-3.5.903-3.5.903S10.588 5.184 10 4.211a1.029 1.029 0 00-1.981.399C7.809 5.8 7.41 7.9 7.41 7.9s-2.24.749-3.402 1.113a.98.98 0 00-.504 1.687c.329.245 2.863 1.547 2.863 1.547v2.884c0 1.554 1.183 1.666 2.177.532a18.725 18.725 0 011.925-1.897s1.4.287 2.891.756c1.491.469 1.946-.749 1.582-1.491-.364-.742-1.512-2.8-1.512-2.8l2.66-3.108c.91-1.106-.105-1.519-1.008-1.323zM11.855 10l1.4 2.961-3.059-1.022-2.408 2.415v-2.8L5.478 10l3.038-.973.7-3.297 1.547 2.59 3.213-.889L11.855 10z" fill="#E67225" fill-rule="nonzero"/></svg>