<svg width="20" height="20" viewBox="0 0 20 20" xmlns="http://www.w3.org/2000/svg"><path d="M10 4.214a5.757 5.757 0 013.093.89l-.977.971L10 8.18h5.454c.186.577.296 1.176.325 1.78a5.767 5.767 0 01-2.643 4.813 5.837 5.837 0 01-5.496.448l.57-.567 2.116-2.104H4.872a5.812 5.812 0 01-.65-2.59C4.232 6.792 6.812 4.227 10 4.215zM10 3c-3.854.028-6.971 3.128-7 6.96a6.76 6.76 0 001.14 3.803h3.255l-1.709 1.7A6.846 6.846 0 0010 17c3.866 0 7-3.116 7-6.96 0-1.067-.251-2.12-.733-3.075H12.93l1.954-1.942A6.76 6.76 0 0010 3z" fill="#1F3764" fill-rule="nonzero"/></svg>