<svg width="20" height="20" viewBox="0 0 20 20" xmlns="http://www.w3.org/2000/svg"><g fill-rule="nonzero" fill="none"><path d="M13.403 6.5c-1.2 0-2.307.68-3.375 1.869C8.978 7.162 7.853 6.5 6.598 6.5 4.517 6.5 3 7.995 3 10.007c0 2.013 1.518 3.49 3.597 3.49 1.279 0 2.27-.604 3.375-1.808 1.069 1.207 2.156 1.811 3.43 1.811 2.08-.004 3.598-1.474 3.598-3.493C17 7.99 15.482 6.5 13.403 6.5zm-6.79 4.885c-.882 0-1.407-.585-1.407-1.359 0-.773.525-1.375 1.406-1.375.742 0 1.349.602 2.006 1.413-.62.754-1.275 1.32-2.006 1.32zm6.727 0c-.731 0-1.35-.585-2.006-1.359.675-.81 1.256-1.375 2.006-1.375.88 0 1.4.609 1.4 1.375s-.52 1.359-1.4 1.359z" fill="#484848"/><path d="M11.538 12.997l1.399-1.681c-.557-.169-1.07-.673-1.603-1.3L9.972 11.69c.446.521.975.963 1.566 1.308zM10.028 8.367A6.307 6.307 0 008.47 7.029l-1.4 1.7c.532.187 1.003.67 1.504 1.284l.056.04 1.397-1.686z" fill="#00D1C1"/></g></svg>