<svg width="20" height="20" viewBox="0 0 20 20" xmlns="http://www.w3.org/2000/svg"><g transform="translate(3 3)" fill="none" fill-rule="evenodd"><circle fill="#FF6D70" cx="7" cy="7" r="7"/><path d="M2.188 5.702l.014.003c.024.01.038.024.038.044v.483h.392a.04.04 0 01.03.019.071.071 0 01.012.04.213.213 0 01-.017.09c-.011.024-.023.036-.036.036h-.38v.996c0 .098.004.173.014.224.01.052.027.087.05.106.023.019.056.029.1.029a.524.524 0 00.138-.023.87.87 0 00.147-.055c.007-.004.017.003.03.02a.205.205 0 01.03.057c.007.02.007.032 0 .037a.49.49 0 01-.137.092c-.062.031-.128.056-.198.076a.698.698 0 01-.185.03.746.746 0 01-.407-.098c-.1-.064-.151-.178-.151-.34V6.42h-.19c-.011-.001-.021-.01-.03-.027a.103.103 0 01-.006-.016c-.015-.06.044-.074.044-.074a1.03 1.03 0 00.642-.566s.026-.047.07-.033l-.014-.003zm10.057-.438a.05.05 0 01.036.016c.01.011.017.029.017.053v2.318c0 .046.01.081.028.105a.13.13 0 00.068.046c.027.007.06.013.1.017.025.003.042.008.05.015.008.008.012.024.012.05 0 .015-.005.03-.016.046-.012.017-.026.025-.043.025h-.601c-.045 0-.076-.007-.096-.02a.078.078 0 01-.034-.055.743.743 0 01-.003-.113.526.526 0 01-.247.177.915.915 0 01-.327.061.757.757 0 01-.449-.124.71.71 0 01-.254-.328 1.24 1.24 0 01-.08-.453c0-.162.034-.311.101-.449a.8.8 0 01.301-.333.904.904 0 01.49-.126c.099 0 .183.008.251.024a.73.73 0 01.215.09l-.015-.662c0-.076-.03-.13-.09-.16a.714.714 0 00-.262-.057.068.068 0 01-.031-.024.08.08 0 01-.01-.045c0-.017.004-.033.012-.05s.018-.026.03-.027c.166-.01.377-.016.631-.017h.216zm-5.23.914c.262 0 .456.05.584.151.128.101.209.25.242.444.01.063.015.16.015.29l-1.222.001c0 .17.026.307.08.412.053.105.121.18.203.226a.53.53 0 00.26.068.77.77 0 00.273-.042.478.478 0 00.203-.15.043.043 0 01.016-.013.038.038 0 01.02-.001l.077.036c.012.005.018.012.018.021a.07.07 0 01-.01.03.663.663 0 01-.279.26.974.974 0 01-.451.094c-.342 0-.595-.08-.761-.24-.166-.16-.248-.39-.248-.69 0-.188.044-.35.133-.486a.844.844 0 01.356-.307c.15-.07.313-.104.492-.104zm-1.347-.914a.05.05 0 01.036.016c.011.011.017.03.017.054v2.342c0 .04.01.071.032.093a.153.153 0 00.075.042.99.99 0 00.107.016c.026.003.042.008.05.015.009.008.013.024.013.05a.086.086 0 01-.016.048.05.05 0 01-.044.023H4.603c-.068 0-.463.024-.523-.007s-.067-.081-.067-.081-.008-.062-.008-.102v-.005a.73.73 0 01-.271.177.97.97 0 01-.346.06.636.636 0 01-.239-.049.48.48 0 01-.203-.153.413.413 0 01-.081-.262c0-.143.055-.257.165-.343a1.06 1.06 0 01.404-.188c.159-.038.338-.069.538-.09v-.287c0-.104-.022-.175-.066-.214-.044-.039-.11-.058-.196-.058a.507.507 0 00-.194.027l-.023.009c-.179.077-.25.226-.238.367v.011c.007.068-.047.08-.1.073a.277.277 0 01-.128-.06.223.223 0 01-.08-.178c0-.093.045-.17.134-.233a.937.937 0 01.329-.137c.129-.03.254-.045.376-.045.173 0 .316.02.43.062a.524.524 0 01.25.17c.054.074.081.158.081.253v.938c0 .046.007.084.02.114.012.031.17.073.296.073.127 0 .32-.043.32-.072l.001-2.086c0-.054-.011-.095-.033-.123a.16.16 0 00-.08-.056.699.699 0 00-.117-.023 1.202 1.202 0 01-.066-.01.066.066 0 01-.032-.025.08.08 0 01-.01-.045c0-.016.003-.033.012-.05.008-.017.018-.026.03-.027.252-.016.512-.024.78-.024zm3.787.914c.173 0 .31.036.41.11.102.073.153.208.153.405v.936c0 .065.016.107.049.127.032.02.066.03.102.034l.07.007c.022.003.036.008.045.017.009.008.013.024.013.047a.085.085 0 01-.015.048.05.05 0 01-.044.023H9.3a.05.05 0 01-.044-.023.085.085 0 01-.015-.048c0-.02.003-.036.01-.046.007-.01.022-.015.044-.018a.294.294 0 00.116-.036c.034-.02.051-.044.051-.074v-.985a.644.644 0 00-.01-.121.18.18 0 00-.057-.097c-.03-.03-.078-.043-.14-.043-.06 0-.12.01-.183.033a.842.842 0 00-.171.084.598.598 0 00-.121.099v.972a.18.18 0 00.025.105c.017.024.037.04.062.047a.469.469 0 00.094.016c.026.003.043.007.05.015.009.007.013.024.013.05 0 .014-.005.03-.017.046a.05.05 0 01-.042.024h-.917a.05.05 0 01-.044-.023.085.085 0 01-.016-.048c0-.02.004-.034.013-.045.008-.01.023-.016.045-.019.123-.015.185-.052.185-.11V6.586a.207.207 0 00-.03-.121.145.145 0 00-.068-.056.548.548 0 00-.103-.022.435.435 0 01-.059-.01.067.067 0 01-.031-.025.08.08 0 01-.01-.045.12.12 0 01.01-.049c.008-.017.018-.026.031-.027.273-.016.519-.024.739-.024.011 0 .022.005.033.015.01.01.017.029.019.054v.194a.724.724 0 01.15-.117 1.29 1.29 0 01.256-.123.843.843 0 01.287-.052zm2.014.182c-.173 0-.296.064-.37.19-.073.127-.11.307-.11.54 0 .44.15.66.451.66.06 0 .12-.015.18-.044a.297.297 0 00.135-.12V6.55a.221.221 0 00-.063-.086.428.428 0 00-.109-.074.27.27 0 00-.114-.029zm-7.511.695a1.304 1.304 0 00-.256.063.405.405 0 00-.18.136.428.428 0 00-.074.265c0 .063.02.117.06.162.04.046.096.068.169.068a.346.346 0 00.28-.132v-.562zm3.06-.731c-.093 0-.173.048-.24.143-.068.096-.11.243-.124.442h.62c0-.206-.021-.355-.061-.447-.04-.092-.105-.138-.194-.138z" fill="#FFF" fill-rule="nonzero"/></g></svg>