<svg width="20" height="20" viewBox="0 0 20 20" xmlns="http://www.w3.org/2000/svg"><g fill-rule="nonzero" fill="none"><path d="M3.134 9.846A6.85 6.85 0 019.98 3l.013 6.833a6.85 6.85 0 01-6.846 6.845l-.013-6.832z" fill="#404040"/><path d="M9.98 9.833V3a6.85 6.85 0 016.846 6.846L9.98 9.833z" fill="#A0D1C5"/><path d="M8.144 5.894c.228 0 .416.187.416.415a.417.417 0 01-.416.415.417.417 0 01-.415-.415c-.013-.228.174-.415.415-.415z" fill="#FFF"/><path d="M8.144 4.393a1.915 1.915 0 100 3.831 1.915 1.915 0 000-3.83zm0 3.524a1.615 1.615 0 111.622-1.621c-.014.897-.737 1.62-1.622 1.62z" fill="#F2C600"/><path d="M7.743 8.345a.174.174 0 01-.067.175c-.054.026-.134-.027-.175-.067a.163.163 0 01-.013-.215c.027-.053.08-.08.134-.067.094.027.12.134.12.215l.121-.04c-.08-.202-.268-.215-.455-.121-.014 0-.04.027-.014.04.027 0 .067 0 .094-.013.12-.054.214.026.241.134.014.026.134 0 .12-.04-.013-.135-.08-.242-.227-.242a.333.333 0 00-.295.174c-.04.108.014.242.12.282.014.013.041.013.054.013.148.04.295-.04.335-.187l.014-.067c.013-.04-.12-.014-.107.026z" fill="#F2C600"/><path d="M7.582 8.48c1.474 2.679-1.983 5.023-4.448 5.023-.013 0 0 .014 0 .04v.148c2.505 0 6.216-2.532 4.595-5.252-.013-.027-.16.027-.147.04z" fill="#F2C600"/></g></svg>