<svg width="20" height="20" viewBox="0 0 20 20" xmlns="http://www.w3.org/2000/svg"><g fill="none" fill-rule="evenodd" stroke-linecap="round" stroke-linejoin="round"><path d="M15.088 12.424v-.516c.003.284-.019.567-.065.848-.19 1.135-.762 1.986-1.616 2.401-.427.204-.9.29-1.37.252-1.284-.095-2.586-.99-3.484-2.348a5.832 5.832 0 01-.237-.388 6.057 6.057 0 01-.217-.412 6.205 6.205 0 01-.593-3.558c.229-1.557.988-2.135.988-2.135a3.03 3.03 0 00-.736.56c-1.37 1.157-1.75 3.472-.889 5.69.065.173.14.344.222.516.94 1.942 2.654 3.262 4.368 3.398.282.023.565.01.84-.038.277-.047.547-.13.801-.25 1.361-.66 2.076-2.235 1.987-4.014" fill="#3FAE49"/><path d="M10.874 3.993l-.435.276c.241-.149.495-.277.759-.382 1.07-.425 2.096-.374 2.89.142.395.26.713.62.923 1.043.593 1.148.49 2.725-.21 4.2a7.788 7.788 0 01-.45.8 6.199 6.199 0 01-2.744 2.351c-1.453.61-2.34.255-2.34.255.269.156.56.27.86.338 1.702.575 3.88-.296 5.338-2.185.113-.145.222-.297.326-.457 1.186-1.805 1.432-3.961.653-5.492a3.377 3.377 0 00-.48-.709 3.128 3.128 0 00-.632-.542c-1.253-.839-2.978-.634-4.458.362" fill="#F36C21"/><path d="M5.777 11.955l.465.222a5.082 5.082 0 01-.726-.441c-.925-.685-1.415-1.58-1.4-2.527.012-.472.15-.932.398-1.334.664-1.1 2.054-1.86 3.674-2.043.15-.018.3-.03.45-.036.155-.005.297 0 .466 0a6.208 6.208 0 013.445 1.074c1.287.91 1.456 1.847 1.456 1.847a3.053 3.053 0 00-.169-.91c-.409-1.736-2.3-3.132-4.673-3.366a5.91 5.91 0 00-.56-.035c-2.154-.042-4.122.89-5.009 2.354-.15.247-.273.513-.358.792-.078.264-.121.539-.128.815-.027 1.512 1.056 2.859 2.67 3.588" fill="#15C0DD"/><g><path d="M14.98 12.316V11.8c.003.284-.019.568-.065.848-.19 1.136-.762 1.987-1.616 2.401-.426.204-.899.291-1.37.252-1.283-.094-2.585-.99-3.484-2.348a5.832 5.832 0 01-.237-.388 6.057 6.057 0 01-.216-.412 6.205 6.205 0 01-.593-3.558c.228-1.557.987-2.135.987-2.135a3.03 3.03 0 00-.735.56c-1.37 1.157-1.75 3.472-.89 5.69.065.173.14.345.223.517.94 1.942 2.654 3.261 4.368 3.398.281.022.564.01.84-.039.277-.046.546-.13.8-.249 1.362-.661 2.076-2.236 1.987-4.015" fill="#3FAE49"/><path d="M10.767 3.886l-.436.275c.242-.148.495-.276.759-.382 1.07-.424 2.096-.374 2.891.142.394.26.713.62.922 1.044.593 1.147.49 2.725-.21 4.198a7.788 7.788 0 01-.45.8 6.199 6.199 0 01-2.744 2.352c-1.453.611-2.339.255-2.339.255.268.156.56.27.86.339 1.702.575 3.879-.297 5.337-2.186.113-.145.223-.296.326-.456 1.186-1.806 1.433-3.962.653-5.493a3.377 3.377 0 00-.48-.708 3.128 3.128 0 00-.632-.543c-1.252-.838-2.978-.634-4.457.363" fill="#F36C21"/><path d="M5.67 11.847l.464.223a5.082 5.082 0 01-.726-.442c-.925-.685-1.414-1.58-1.4-2.526.012-.472.15-.933.398-1.335.664-1.1 2.055-1.859 3.674-2.043.15-.018.3-.03.45-.035.155-.006.297 0 .466 0a6.208 6.208 0 013.446 1.073c1.287.91 1.456 1.847 1.456 1.847a3.053 3.053 0 00-.17-.91c-.409-1.736-2.3-3.131-4.672-3.366a5.91 5.91 0 00-.56-.035c-2.155-.042-4.122.89-5.01 2.354-.15.248-.273.514-.358.792-.078.265-.12.54-.128.815-.026 1.512 1.056 2.859 2.671 3.588" fill="#15C0DD"/></g></g></svg>