<svg width="20" height="20" viewBox="0 0 20 20" xmlns="http://www.w3.org/2000/svg" xmlns:xlink="http://www.w3.org/1999/xlink"><defs><linearGradient x1="50%" y1="0%" x2="50%" y2="100%" id="dWqdTyc"><stop stop-color="#FFF" offset="0%"/><stop stop-color="#FFF" stop-opacity="0" offset="100%"/></linearGradient><path d="M9.928 13.94c.22.087.472.081.694-.027l2.883-1.394a.88.88 0 00.495-.792V2.273a.88.88 0 00-.495-.792L10.622.087a.868.868 0 00-.994.17L4.11 5.317 1.706 3.483a.58.58 0 00-.744.033l-.771.705a.589.589 0 000 .867L2.274 7 .19 8.911a.589.589 0 000 .868l.772.704a.58.58 0 00.744.034L4.11 8.683l5.518 5.06a.87.87 0 00.3.197zm.574-10.135L6.315 7l4.187 3.195v-6.39z" id="dWqdTya"/></defs><g transform="translate(2 3)" fill="none" fill-rule="evenodd"><mask id="dWqdTyb" fill="#fff"><use xlink:href="#dWqdTya"/></mask><g mask="url(#dWqdTyb)"><path d="M13.505 1.483L10.62.087a.869.869 0 00-.995.17L.182 8.91a.588.588 0 000 .868l.772.704c.208.19.52.204.745.034L13.07 1.845a.58.58 0 01.93.464v-.034a.88.88 0 00-.495-.792z" fill="#0065A9" fill-rule="nonzero"/><path d="M13.505 12.517l-2.885 1.396a.869.869 0 01-.995-.17L.182 5.088a.588.588 0 010-.867l.772-.705a.581.581 0 01.745-.033l11.371 8.672a.58.58 0 00.93-.464v.034a.88.88 0 01-.495.792z" fill="#007ACC" fill-rule="nonzero"/><path d="M10.62 13.913a.87.87 0 01-.995-.17.512.512 0 00.875-.364V.62a.512.512 0 00-.875-.364.87.87 0 01.995-.17l2.884 1.394a.88.88 0 01.496.792v9.454a.88.88 0 01-.496.792l-2.884 1.394z" fill="#1F9CF0" fill-rule="nonzero"/><path d="M9.928 13.94c.22.086.472.081.694-.027l2.882-1.394a.88.88 0 00.496-.792V2.273a.88.88 0 00-.495-.792L10.622.087a.868.868 0 00-.994.17L4.11 5.317 1.706 3.483a.58.58 0 00-.744.033l-.771.705a.589.589 0 000 .868L2.274 7 .19 8.911a.589.589 0 000 .868l.772.704a.58.58 0 00.744.034L4.11 8.683l5.518 5.06a.87.87 0 00.3.197zm.574-10.135L6.315 7l4.187 3.195v-6.39z" fill="url(#dWqdTyc)" transform="translate(-.009)" opacity=".25"/></g></g></svg>