<svg width="20" height="20" viewBox="0 0 20 20" xmlns="http://www.w3.org/2000/svg" xmlns:xlink="http://www.w3.org/1999/xlink"><defs><path d="M13.256 6c-1.305-.005-2.752.403-3.532.884-.291.18-.59.38-.89.593 0 0-2.704 2.082-3.544 3.13-.113.14-.215.292-.304.451l-.019.035a3.16 3.16 0 00-.024.046l-.006.012a3.183 3.183 0 00-.284.862v.007l-.005.032c-.045.344-.027.711.114 1.023.172.378.457.66.87.893.398.224 1.127.414 1.127.414l-.011.006c.607.107 1.237.071 1.851.012a32.3 32.3 0 00.904-.1h.012c-.02-.102-.052-.296-.013-.306.413-.11.659-.176.98-.288.309-.107.534-.205.783-.342.062-.035.112-.092.177-.12.206-.089.436-.11.658-.144a4.07 4.07 0 01.536-.048c.117-.002.235-.005.349.017a.772.772 0 01.252.088c.051.03.099.072.132.122.018.037.032.077.046.116.653-.244 1.316-.54 1.82-1.017.745-.708 1.337-1.632 1.63-2.617.159-.535.186-1.136.035-1.673-.093-.332-.237-.546-.559-.872-.657-.666-1.615-1.079-2.545-1.186a4.934 4.934 0 00-.54-.03zM8.834 7.477c-.133.095-.267.192-.4.29l.4-.29zm2.815.63a2.68 2.68 0 01.657.063s-.695.065-1.082.134c-.306.054-.799.149-1.182.279-.749.254-1.46.608-2.164.969-.54.277-1.058.597-1.575.916-.353.218-1.043.68-1.043.68s.588-.76 2.151-1.638c.447-.251.903-.487 1.371-.696.366-.164.737-.32 1.12-.436a6.848 6.848 0 011.554-.266c.068-.004.133-.006.193-.006zm-5.363.724c-.139.001-.257.164-.33.286-.094.157-.135.427-.155.642.3-.257.6-.495.807-.657-.08-.135-.18-.251-.294-.269a.179.179 0 00-.028-.002zm6.045.686s-1.305.496-1.954.755c-.747.298-1.492.603-2.231.92a65.523 65.523 0 00-2.946 1.35s.794-.651 2.267-1.295c.86-.376 1.44-.705 2.364-1.007.432-.14.858-.3 1.295-.425.397-.114 1.205-.298 1.205-.298zm.453 1.325s-.183.218-.592.49c-.205.134-.384.276-.585.4-.26.161-.527.31-.802.445-.34.166-.694.305-1.046.444-.346.137-.693.27-1.047.383-.436.14-.877.27-1.325.367-.325.07-.985.157-.985.157s.815-.276 1.22-.419a52.459 52.459 0 002.467-.922c.323-.13.646-.256.96-.403.24-.112.473-.24.707-.366.346-.186 1.028-.576 1.028-.576zm.949.856s-.011.135-.355.488a3.346 3.346 0 01-.54.421c-.604.373-.926.468-.926.468s.597-.39.885-.6c.17-.122.337-.25.499-.384.15-.126.437-.393.437-.393zm-9.263 1.29c-.203.09-.447.204-.607.29-.297.158-.882.437-.863.527.03.138.692-.129 1.036-.197.22-.044.438-.09.656-.136a2.82 2.82 0 01-.222-.485zm8.086.22c-.087 0-.181.006-.295.019-.35.038-.444.07-.723.16-.1.033-.158.085-.236.128-.14.077-.273.17-.419.235-.21.093-.434.153-.654.22-.181.055-.206.066-.549.148-.06.014-.003.111.05.185.812.017 3.27.056 3.303-.08l.182-.754c.016-.005.032-.01.048-.017a.289.289 0 00-.026-.069.315.315 0 00-.126-.122c-.088-.043-.193-.036-.291-.043a3.542 3.542 0 00-.264-.01zm.445.203c.097.002.176.02.176.081-.001.13-.225.124-.327.136-.66.082-.892.068-1.339.07-.086 0-.257-.01-.257-.01s.43-.128.81-.185c.222-.033.438-.068.651-.077.073-.003.189-.017.286-.015zm-.506.415c.08-.002.159 0 .237.015.062.011.132.015.18.067.022.023.047.073.038.096-.017.048-.084.05-.225.063-.17.015-.335.033-.503.04-.416.015-1.248-.004-1.248-.004s.26-.089.391-.12c.295-.068.593-.118.892-.142.079-.006.159-.013.238-.015z" id="gtWQnla"/></defs><use fill="#3071A9" fill-rule="nonzero" xlink:href="#gtWQnla"/></svg>