<svg width="20" height="20" viewBox="0 0 20 20" xmlns="http://www.w3.org/2000/svg"><path d="M17.257 13.44a.72.72 0 01.71.82l-.58 4H2.597l-.59-4a.71.71 0 01.17-.57.72.72 0 01.54-.25zm-2.97-1.68a.3.3 0 01.3.35l-.08.54a.41.41 0 01-.39.33h-4.19v-.36a1.21 1.21 0 00.68-.86zm-6.21-3.32c1.52 0 1.8 1.32 1.8 2.32h.08c.26 0 .27.29.26.63-.01.34-.26.82-.48.82a.17.17 0 01-.09 0 2.43 2.43 0 01-.49.76h-1.63a3 3 0 01-.57-.74h-.07c-.22 0-.57-.48-.57-.82v-.02c-.04-.35-.05-.63.18-.63h.06c-.1-.99 0-2.32 1.52-2.32zm7.6-2.79c1.171 0 2.12.95 2.12 2.12l-.67 5h-1l.67-5a1.12 1.12 0 00-1.12-1.12H4.227a1.12 1.12 0 00-1.09 1.14l.75 5-1-.02-.75-5c0-1.16.931-2.104 2.09-2.12zm-1.02 3.57a.34.34 0 01.32.41l-.1.63.01.01a.46.46 0 01-.43.39h-3.91a.64.64 0 00-.22-.28 3.67 3.67 0 00-.26-1.16zm.24-5.48a.27.27 0 01.26.33l-.18.78H4.567l-.19-.77a.27.27 0 01.26-.34zM13.827 2a.26.26 0 01.21.1.26.26 0 01.06.22l-.15.8-8.35-.01-.16-.79a.27.27 0 01.26-.32z" fill="#253C5B" fill-rule="evenodd"/></svg>