<svg width="20" height="20" viewBox="0 0 20 20" xmlns="http://www.w3.org/2000/svg"><g fill="none" fill-rule="evenodd" clip-rule="evenodd"><path d="M4.105 12.158H2.091v1.736l-1.12.966a1.177 1.177 0 01-.011-.158V3.392c0-.306.112-.57.336-.794.224-.224.489-.336.795-.336h1.13v-.848c0-.39.14-.722.416-.999.277-.277.61-.415.998-.415h.566c.389 0 .721.138.998.415.277.277.415.61.415.999v.848h3.393v-.848c0-.39.139-.722.415-.999.277-.277.61-.415.999-.415h.565c.389 0 .722.138.999.415.277.277.415.61.415.999v.848h1.13c.28 0 .524.092.734.277l-3.843 3.313v-.198H8.593v2.544H8.7l-.671.579v-.012H5.2v2.449l-1.096.944zm-.315 2.545h.845v-.73l.566-.487v1.216h2.827v-2.544H6.742l.656-.566h.63v-.543l.565-.487v1.03h2.828V8.765h-.743l.657-.567h.086v-.073l.565-.488v.561h2.545V5.654h-.244l1.375-1.185v10.233c0 .306-.112.571-.336.795a1.087 1.087 0 01-.795.336H2.478l1.312-1.13zm.845-3.11H2.091V8.764h2.544v2.827zm0-3.395H2.091V5.654h2.544v2.544zm6.786 6.505H8.593v-2.545h2.828v2.545zM8.028 8.198H5.2V5.654h2.827v2.544zm6.503 6.505h-2.545v-2.545h2.545v2.545zM5.484 1.413v2.545a.272.272 0 01-.084.198.272.272 0 01-.2.084h-.565a.272.272 0 01-.198-.084.272.272 0 01-.084-.198V1.413c0-.076.028-.143.084-.199a.272.272 0 01.198-.084h.566c.076 0 .143.028.199.084a.272.272 0 01.084.2zm9.047 10.18h-2.545V8.764h2.545v2.827zm-2.263-10.18v2.545a.272.272 0 01-.083.198.272.272 0 01-.2.084h-.565a.272.272 0 01-.198-.084.272.272 0 01-.084-.198V1.413c0-.076.028-.143.084-.199a.272.272 0 01.198-.084h.566c.076 0 .143.028.199.084a.272.272 0 01.083.2z" fill="#263D5C"/><path d="M16.823.196a.3.3 0 01.423.031l.732.85a.3.3 0 01-.032.423L1.351 15.804a.3.3 0 01-.423-.031l-.732-.85a.3.3 0 01.031-.423L16.823.196z" fill="#253C5B"/></g></svg>