<svg width="18" height="20" viewBox="0 0 18 22" xmlns="http://www.w3.org/2000/svg"><path d="M1.577 18.099h14.846V7.3H1.576v10.8zM5.624 5.277v-3.04a.329.329 0 00-.094-.241.329.329 0 00-.243-.096h-.675a.329.329 0 00-.338.338v3.037a.327.327 0 00.338.337h.675a.329.329 0 00.243-.095.329.329 0 00.094-.242zm8.1 0v-3.04a.328.328 0 00-.337-.337h-.675a.329.329 0 00-.243.096.328.328 0 00-.095.242v3.037a.326.326 0 00.338.337h.675a.329.329 0 00.337-.337zm4.05-.676V18.1a1.3 1.3 0 01-.4.949c-.268.267-.585.4-.95.4H1.576c-.367 0-.683-.133-.95-.4a1.298 1.298 0 01-.4-.949V4.601c0-.365.133-.682.4-.949a1.3 1.3 0 01.95-.4h1.349V2.24c0-.463.166-.861.495-1.191A1.624 1.624 0 014.613.552h.675c.464 0 .86.165 1.192.496.33.33.496.728.496 1.191v1.012h4.048v-1.01c0-.464.166-.862.496-1.192a1.624 1.624 0 011.192-.497h.675c.464 0 .86.165 1.19.496.332.33.496.728.496 1.191v1.012h1.35a1.3 1.3 0 01.95.4c.266.268.4.585.4.95z" vector-effect="non-scaling-stroke" fill="#A0B2CA" fill-rule="evenodd"/><path d="M12.489 11.883H9.805V9.199a.805.805 0 00-1.61 0v2.684H5.51a.805.805 0 000 1.61h2.684v2.684a.805.805 0 101.61 0v-2.684h2.684a.805.805 0 100-1.61z" vector-effect="non-scaling-stroke" fill="#A0B2CA"/></svg>