<svg width="20" height="20" viewBox="0 0 512 512" xmlns="http://www.w3.org/2000/svg"><path d="M0 96c0-35.3 28.7-64 64-64h384c35.3 0 64 28.7 64 64v184.4c-17-15.2-39.4-24.4-64-24.4H64c-24.6 0-47 9.2-64 24.4V96zm64 192h384c35.3 0 64 28.7 64 64v64c0 35.3-28.7 64-64 64H64c-35.3 0-64-28.7-64-64v-64c0-35.3 28.7-64 64-64zm256 128c17.7 0 32-14.3 32-32s-14.3-32-32-32-32 14.3-32 32 14.3 32 32 32zm128-32c0-17.7-14.3-32-32-32s-32 14.3-32 32 14.3 32 32 32 32-14.3 32-32z" fill="#253C5B" fill-rule="evenodd"/></svg>