<svg width="20" height="20" viewBox="0 0 20 20" xmlns="http://www.w3.org/2000/svg" xmlns:xlink="http://www.w3.org/1999/xlink"><defs><path d="M3 6v8h7a1 1 0 011 1h3a1 1 0 011-1h1a1 1 0 011 1h1V6H3zm15-1a1 1 0 011 1v9a1 1 0 01-1 1h-1a1 1 0 01-1-1h-1l-.007.117A1 1 0 0114 16h-3a1 1 0 01-1-1H2v-1h-.5a.5.5 0 110-1H2V5zm-4 2a3 3 0 100 6 3 3 0 000-6zM7 7a3 3 0 100 6 3 3 0 000-6zm7.531 3.4c.456-.352.945-.475 1.468-.37a2 2 0 01-2.38 1.934c.506-.395.788-.898.847-1.51zm-7 0c.456-.352.945-.475 1.468-.37a2 2 0 01-2.34 1.94c.501-.404.775-.913.823-1.528zM5.467 8.714l-.009.12c.201.603.574 1.034 1.118 1.294-.04.624-.321 1.101-.84 1.432A2.028 2.028 0 015 10c0-.49.176-.937.467-1.285zm6.988.015l-.01.121c.202.603.575 1.035 1.119 1.295-.057.612-.345 1.076-.862 1.393l.011-.008a1.996 1.996 0 01-.258-2.801zM14 8a2 2 0 011.78 1.089 2.083 2.083 0 00-1.51.359c-.607-.248-.98-.683-1.117-1.304l.01.04C13.417 8.065 13.7 8 14 8zM7 8a2 2 0 011.78 1.089 2.082 2.082 0 00-1.491.345c-.611-.248-.985-.684-1.124-1.307l.013.049C6.43 8.063 6.708 8 7 8zM2 3a1 1 0 011 1v1H2V3zm0 12h1v1.5a.5.5 0 11-1 0V15zm0-7v4a1 1 0 01-1-1V9a1 1 0 01.883-.993L2 8zm0-2v1h-.5a.5.5 0 010-1H2zm0-3v1h-.5a.5.5 0 010-1H2z" id="isbZfGa"/></defs><use fill="#253C5B" xlink:href="#isbZfGa" fill-rule="evenodd"/></svg>