<svg width="20" height="20" viewBox="0 0 154 132" fill="none" xmlns="http://www.w3.org/2000/svg"><path clip-rule="evenodd" d="M9.081 43.653C1.43 46.993-2.075 55.929 1.265 63.581l.7 1.604c.643 1.474 2.146 2.314 3.731 2.577 3.675.615 6.961 3 8.56 6.663 1.6 3.663 1.114 7.694-.934 10.807-.885 1.342-1.29 3.015-.647 4.49l6.756 15.475 87.226-38.076-.625-16.904a7.576 7.576 0 01-2.487 1.747 7.56 7.56 0 01-9.964-3.908l-6.056-13.872a7.56 7.56 0 013.909-9.964 7.56 7.56 0 019.964 3.908l4.17 9.553-.564-15.238c-.066-1.689.511-3.15 1.73-4.384 1.22-1.234 2.686-1.85 4.4-1.85h14.428c.183-.355.385-.7.606-1.035.885-1.341 1.29-3.015.647-4.489l-.701-1.604c-3.34-7.651-12.276-11.156-19.927-7.816L9.081 43.653zm13.378 68.48l84.499-36.885.547 14.797a3.797 3.797 0 00-4.207-.813 3.796 3.796 0 00-1.955 4.982l3.028 6.936-20.808 9.084-3.028-6.936a3.796 3.796 0 00-4.982-1.955 3.796 3.796 0 00-1.954 4.982l3.028 6.936-20.809 9.084-3.027-6.937a3.796 3.796 0 00-4.982-1.954 3.796 3.796 0 00-1.954 4.982l3.027 6.936-10.404 4.542a7.56 7.56 0 01-9.964-3.908l-6.055-13.873zM149.456 81.47l-2.78 1.214.904-24.429 5.784 13.251a7.56 7.56 0 01-3.908 9.964zM45.909 52.35l6.055 13.872a7.56 7.56 0 01-3.908 9.964 7.56 7.56 0 01-9.964-3.908l-6.055-13.872a7.56 7.56 0 013.908-9.964 7.56 7.56 0 019.964 3.908zm27.744-12.11L79.71 54.11a7.56 7.56 0 01-3.909 9.964 7.56 7.56 0 01-9.963-3.908L59.78 46.295a7.56 7.56 0 013.909-9.964 7.56 7.56 0 019.963 3.908zm65.928 87.172v-15.177c0-1.175-.424-2.191-1.27-3.049-.847-.859-1.849-1.288-3.008-1.288h-17.11c-1.158 0-2.161.429-3.007 1.288-.847.858-1.27 1.874-1.27 3.049v15.177c0 1.174.423 2.191 1.27 3.049.846.858 1.849 1.287 3.007 1.287h17.11c1.159 0 2.161-.429 3.008-1.287.846-.858 1.27-1.875 1.27-3.049zm.571-38.297l1.896-59.939c.045-1.352-.35-2.523-1.185-3.512-.835-.988-1.84-1.482-3.014-1.482h-21.671c-1.174 0-2.179.494-3.014 1.482-.835.989-1.23 2.16-1.185 3.512l1.896 59.939c.045 1.353.508 2.523 1.389 3.512.88.988 1.907 1.483 3.081 1.483h17.337c1.174 0 2.201-.495 3.081-1.483.881-.989 1.344-2.16 1.389-3.512z" fill="#253C5B" fill-rule="evenodd"/></svg>