<svg width="20" height="20" viewBox="0 0 20 20" fill="none" xmlns="http://www.w3.org/2000/svg">
<path fill-rule="evenodd" clip-rule="evenodd" d="M17.7531 10.4074C17.9506 10.0782 17.9506 9.74897 17.7531 9.41975L14.2469 3.39506C14.0494 3.13169 13.786 3 13.4568 3H6.5432C6.21398 3 5.95061 3.13169 5.75308 3.39506L2.2469 9.41975C2.04937 9.74897 2.04937 10.0782 2.2469 10.4074L5.75308 16.4321C5.95061 16.6955 6.21398 16.8272 6.5432 16.8272H13.4568C13.786 16.8272 14.0494 16.6955 14.2469 16.4321L17.7531 10.4074Z" fill="url(#paint0_linear_0_805)"/>
<path fill-rule="evenodd" clip-rule="evenodd" d="M17.1354 11.4687L13.7531 8.08642L13.0617 10.9506L11.7284 9.61728L10.9876 10.2099L8.2716 7.49383L6.64197 8.1358V11.3951L7.58024 13.0247L11.3827 16.8272H13.4568C13.786 16.8272 14.0494 16.6955 14.2469 16.4321L17.1354 11.4687Z" fill="black" fill-opacity="0.07"/>
<path fill-rule="evenodd" clip-rule="evenodd" d="M8.27161 12.3333L7.58025 13.0247L6.24692 11.6914V8.08642L7.53087 6.75309L8.27161 7.49383L7.28395 8.4321V11.3457L8.27161 12.3333Z" fill="white"/>
<circle cx="8.61727" cy="9.91358" r="0.444444" fill="white"/>
<circle cx="9.99999" cy="9.91358" r="0.444444" fill="white"/>
<circle cx="11.3827" cy="9.91358" r="0.444444" fill="white"/>
<path fill-rule="evenodd" clip-rule="evenodd" d="M11.7284 12.3333L12.3704 13.0247L13.7531 11.6914V8.08642L12.4198 6.75309L11.7284 7.49383L12.716 8.4321V11.3457L11.7284 12.3333Z" fill="white"/>
<path fill-rule="evenodd" clip-rule="evenodd" d="M17.6543 10.4074C17.8519 10.0782 17.8519 9.74897 17.6543 9.41975L14.1481 3.39506C13.9506 3.13169 13.6872 3 13.358 3H6.44444C6.11523 3 5.85185 3.13169 5.65432 3.39506L2.14815 9.41975C1.95062 9.74897 1.95062 10.0782 2.14815 10.4074L5.65432 16.4321C5.85185 16.6955 6.11523 16.8272 6.44444 16.8272H13.358C13.6872 16.8272 13.9506 16.6955 14.1481 16.4321L17.6543 10.4074Z" fill="url(#paint1_linear_0_805)"/>
<path fill-rule="evenodd" clip-rule="evenodd" d="M17.0366 11.4687L13.6543 8.08642L12.963 10.9506L11.6296 9.61728L10.8889 10.2099L8.17284 7.49383L6.54321 8.1358V11.3951L7.48148 13.0247L11.284 16.8272H13.358C13.6872 16.8272 13.9506 16.6955 14.1482 16.4321L17.0366 11.4687Z" fill="black" fill-opacity="0.07"/>
<path fill-rule="evenodd" clip-rule="evenodd" d="M8.17285 12.3333L7.4815 13.0247L6.14816 11.6914V8.08642L7.43211 6.75309L8.17285 7.49383L7.1852 8.4321V11.3457L8.17285 12.3333Z" fill="white"/>
<circle cx="8.51851" cy="9.91358" r="0.444444" fill="white"/>
<circle cx="9.90123" cy="9.91358" r="0.444444" fill="white"/>
<circle cx="11.284" cy="9.91358" r="0.444444" fill="white"/>
<path fill-rule="evenodd" clip-rule="evenodd" d="M11.6296 12.3333L12.2716 13.0247L13.6543 11.6914V8.08642L12.321 6.75309L11.6296 7.49383L12.6173 8.4321V11.3457L11.6296 12.3333Z" fill="white"/>
<defs>
<linearGradient id="paint0_linear_0_805" x1="2.09875" y1="3" x2="2.09875" y2="16.8272" gradientUnits="userSpaceOnUse">
<stop stop-color="#4387FD"/>
<stop offset="1" stop-color="#4683EA"/>
</linearGradient>
<linearGradient id="paint1_linear_0_805" x1="2" y1="3" x2="2" y2="16.8272" gradientUnits="userSpaceOnUse">
<stop stop-color="#4387FD"/>
<stop offset="1" stop-color="#4683EA"/>
</linearGradient>
</defs>
</svg>
