<svg width="20" height="20" viewBox="0 0 20 20" xmlns="http://www.w3.org/2000/svg"><path d="M10.036.115l.088.02 8.315 2.92c.196.06.318.26.286.466l-1.903 11.443a.42.42 0 01-.171.272l-6.432 4.574a.402.402 0 01-.475 0L3.35 15.236a.41.41 0 01-.171-.272L1.276 3.521a.42.42 0 01.267-.467L9.858.135a.4.4 0 01.266 0zm-.169 1.704L3.255 4.154a.4.4 0 00-.257.447l1.57 9.439a.4.4 0 00.162.262l5.033 3.6c.067.046.147.07.228.069a.384.384 0 00.228-.069l5.033-3.6a.4.4 0 00.162-.262l1.58-9.41a.4.4 0 00-.267-.476l-6.603-2.335a.382.382 0 00-.257 0zm.124.827l6.165 2.18-1.494 8.912-4.671 3.337-4.671-3.337-1.485-8.932 6.156-2.16zm0 2.825a1.75 1.75 0 00-1.692 1.36c-.19.799.18 1.626.893 2.003-1.092.352-1.835 1.388-1.836 2.559v1.294c0 .199.157.36.352.36h4.566a.356.356 0 00.352-.36v-1.294c0-1.171-.744-2.207-1.836-2.559a1.795 1.795 0 00.893-2.003 1.75 1.75 0 00-1.692-1.36z" fill="#253C5B" fill-rule="evenodd"/></svg>